<svg version="1.1" xmlns="http://www.w3.org/2000/svg" xmlns:xlink="http://www.w3.org/1999/xlink" x="0px" y="0px" viewBox="0 0 64 64" enable-background="new 0 0 64 64" xml:space="preserve">
    <g id="guide" display="none">
    </g>
    <g id="fill_outline">
        <g id="bed_3_">
            <g>
                <path fill="#FFFFFF" d="M61,51H3V33c0-2.209,1.791-4,4-4h50c2.209,0,4,1.791,4,4V51z"></path>
                <path d="M61,52H3c-0.553,0-1-0.448-1-1V33c0-2.757,2.243-5,5-5h50c2.757,0,5,2.243,5,5v18C62,51.552,61.553,52,61,52z M4,50h56
                    V33c0-1.654-1.346-3-3-3H7c-1.654,0-3,1.346-3,3V50z"></path>
            </g>
            <g>
                <rect x="5" y="51" fill="#4D4D4D" width="4" height="4"></rect>
                <path d="M9,56H5c-0.553,0-1-0.448-1-1v-4c0-0.552,0.447-1,1-1h4c0.553,0,1,0.448,1,1v4C10,55.552,9.553,56,9,56z M6,54h2v-2H6V54
                    z"></path>
            </g>
            <g>
                <rect x="55" y="51" fill="#4D4D4D" width="4" height="4"></rect>
                <path d="M59,56h-4c-0.553,0-1-0.448-1-1v-4c0-0.552,0.447-1,1-1h4c0.553,0,1,0.448,1,1v4C60,55.552,59.553,56,59,56z M56,54h2v-2
                    h-2V54z"></path>
            </g>
            <g>
                <path fill="#ED1C24" d="M58,29H6V13c0-2.209,1.791-4,4-4h44c2.209,0,4,1.791,4,4V29z"></path>
                <path d="M58,30H6c-0.553,0-1-0.448-1-1V13c0-2.757,2.243-5,5-5h44c2.757,0,5,2.243,5,5v16C59,29.552,58.553,30,58,30z M7,28h50
                    V13c0-1.654-1.346-3-3-3H10c-1.654,0-3,1.346-3,3V28z"></path>
            </g>
            <g>
                <path fill="#FFFFFF" d="M29,29H11v-8c0-1.105,0.895-2,2-2h14c1.105,0,2,0.895,2,2V29z"></path>
                <path d="M29,30H11c-0.553,0-1-0.448-1-1v-8c0-1.654,1.346-3,3-3h14c1.654,0,3,1.346,3,3v8C30,29.552,29.553,30,29,30z M12,28h16
                    v-7c0-0.551-0.448-1-1-1H13c-0.552,0-1,0.449-1,1V28z"></path>
            </g>
            <g>
                <path fill="#FFFFFF" d="M53,29H35v-8c0-1.105,0.895-2,2-2h14c1.105,0,2,0.895,2,2V29z"></path>
                <path d="M53,30H35c-0.553,0-1-0.448-1-1v-8c0-1.654,1.346-3,3-3h14c1.654,0,3,1.346,3,3v8C54,29.552,53.553,30,53,30z M36,28h16
                    v-7c0-0.551-0.448-1-1-1H37c-0.552,0-1,0.449-1,1V28z"></path>
            </g>
            <g>
                <rect x="3" y="34" fill="#4D4D4D" width="58" height="17"></rect>
                <path d="M61,52H3c-0.553,0-1-0.448-1-1V34c0-0.552,0.447-1,1-1h58c0.553,0,1,0.448,1,1v17C62,51.552,61.553,52,61,52z M4,50h56
                    V35H4V50z"></path>
            </g>
            <rect x="46" y="12" width="12" height="2"></rect>
            <rect x="42" y="12" width="2" height="2"></rect>
            <rect x="6" y="12" width="34" height="2"></rect>
        </g>
    </g>
    <g id="flat" display="none">
        <g id="bed_2_" display="inline">
            <path fill="#30353B" d="M8,54H6c-0.552,0-1-0.448-1-1v-3h4v3C9,53.552,8.552,54,8,54z"></path>
            <path fill="#30353B" d="M58,54h-2c-0.552,0-1-0.448-1-1v-3h4v3C59,53.552,58.552,54,58,54z"></path>
            <path fill="#FE4938" d="M58,31H6V14c0-2.209,1.791-4,4-4h44c2.209,0,4,1.791,4,4V31z"></path>
            <path fill="#454C54" d="M60,51H4c-0.552,0-1-0.448-1-1V33c0-2.209,1.791-4,4-4h50c2.209,0,4,1.791,4,4v17
                C61,50.552,60.552,51,60,51z"></path>
            <path fill="#FFFFFF" d="M29,29H11v-8c0-1.105,0.895-2,2-2h14c1.105,0,2,0.895,2,2V29z"></path>
            <path fill="#FFFFFF" d="M53,29H35v-8c0-1.105,0.895-2,2-2h14c1.105,0,2,0.895,2,2V29z"></path>
            <path fill="#E6E6E6" d="M61,33c0-2.209-1.791-4-4-4H7c-2.209,0-4,1.791-4,4v1h58V33z"></path>
        </g>
    </g>
    <g id="outline__x28_Expand_x2F_Unite_x29_" display="none">
        <g id="bed_1_" display="inline">
            <path d="M59,28.424V13c0-2.757-2.243-5-5-5H10c-2.757,0-5,2.243-5,5v15.424C3.237,29.198,2,30.955,2,33v18c0,0.552,0.447,1,1,1h1
                v3c0,0.552,0.447,1,1,1h4c0.553,0,1-0.448,1-1v-3h44v3c0,0.552,0.447,1,1,1h4c0.553,0,1-0.448,1-1v-3h1c0.553,0,1-0.448,1-1V33
                C62,30.955,60.763,29.198,59,28.424z M7,14h33v-2H7.184c0.414-1.161,1.514-2,2.816-2h44c1.302,0,2.402,0.839,2.816,2H46v2h11v14
                h-3v-7c0-1.654-1.346-3-3-3H37c-1.654,0-3,1.346-3,3v7h-4v-7c0-1.654-1.346-3-3-3H13c-1.654,0-3,1.346-3,3v7H7V14z M52,28H36v-7
                c0-0.551,0.448-1,1-1h14c0.552,0,1,0.449,1,1V28z M28,28H12v-7c0-0.551,0.448-1,1-1h14c0.552,0,1,0.449,1,1V28z M7,30h4h18h6h18h4
                c1.654,0,3,1.346,3,3H4C4,31.346,5.346,30,7,30z M8,54H6v-2h2V54z M58,54h-2v-2h2V54z M59,50h-4H9H5H4V35h56v15H59z"></path>
            <rect x="42" y="12" width="2" height="2"></rect>
        </g>
    </g>
    <g id="outline__x28_Non-Ex_x29_" display="none">
        <g id="bed" display="inline">
            <path fill="none" stroke="#000000" stroke-width="2" stroke-linejoin="round" stroke-miterlimit="10" d="M61,51H3V33
                c0-2.209,1.791-4,4-4h50c2.209,0,4,1.791,4,4V51z"></path>
            
                <rect x="5" y="51" fill="none" stroke="#000000" stroke-width="2" stroke-linejoin="round" stroke-miterlimit="10" width="4" height="4"></rect>
            
                <rect x="55" y="51" fill="none" stroke="#000000" stroke-width="2" stroke-linejoin="round" stroke-miterlimit="10" width="4" height="4"></rect>
            <path fill="none" stroke="#000000" stroke-width="2" stroke-linejoin="round" stroke-miterlimit="10" d="M58,29H6V13
                c0-2.209,1.791-4,4-4h44c2.209,0,4,1.791,4,4V29z"></path>
            <path fill="none" stroke="#000000" stroke-width="2" stroke-linejoin="round" stroke-miterlimit="10" d="M29,29H11v-8
                c0-1.105,0.895-2,2-2h14c1.105,0,2,0.895,2,2V29z"></path>
            <path fill="none" stroke="#000000" stroke-width="2" stroke-linejoin="round" stroke-miterlimit="10" d="M53,29H35v-8
                c0-1.105,0.895-2,2-2h14c1.105,0,2,0.895,2,2V29z"></path>
            
                <line fill="none" stroke="#000000" stroke-width="2" stroke-linejoin="round" stroke-miterlimit="10" x1="3" y1="34" x2="61" y2="34"></line>
            
                <line fill="none" stroke="#000000" stroke-width="2" stroke-linejoin="round" stroke-miterlimit="10" x1="46" y1="13" x2="58" y2="13"></line>
            
                <line fill="none" stroke="#000000" stroke-width="2" stroke-linejoin="round" stroke-miterlimit="10" x1="42" y1="13" x2="44" y2="13"></line>
            
                <line fill="none" stroke="#000000" stroke-width="2" stroke-linejoin="round" stroke-miterlimit="10" x1="6" y1="13" x2="40" y2="13"></line>
        </g>
    </g>
    <g id="tag" display="none">
    </g>
    </svg>