<svg xmlns="http://www.w3.org/2000/svg" viewBox="0 0 470.8 136.23"><defs><linearGradient id="a" x1="3100.69" y1="70.73" x2="3554.21" y2="70.73" gradientTransform="translate(-3090.16 -2.52)" gradientUnits="userSpaceOnUse"><stop offset=".35" stop-color="#b81178"/><stop offset=".63" stop-color="#ba4e8e"/></linearGradient><linearGradient id="b" x1="3100.69" y1="70.73" x2="3554.21" y2="70.73" gradientTransform="translate(-3090.16 -2.52)" gradientUnits="userSpaceOnUse"><stop offset=".35" stop-color="#22306f" stop-opacity="0"/><stop offset=".63" stop-color="#22306f"/></linearGradient></defs><g data-name="Layer 2"><g data-name="Capa 1"><path d="M470.8 117.78a14.5 14.5 0 01-6.33 11.95 15.42 15.42 0 01-17.92-.16 13.74 13.74 0 01-8.73 3.2l-12.25.07H424a13.38 13.38 0 01-10.55-5.11 14.39 14.39 0 01-1.71-2.76c-.65.49-1.3 1-2 1.48A46 46 0 01383 134.8h-.31c-12.08 0-21.66-3.54-28.49-10.59a33 33 0 01-2.3-2.59l-.08.32a14.65 14.65 0 01-14.28 11.32h-11.49a13.58 13.58 0 01-10.72-5.19 14.42 14.42 0 01-1.75-2.91 5.16 5.16 0 00-1.07-.12 5.73 5.73 0 00-4.09 2 13.64 13.64 0 01-11.45 6.26l-12.13.07h-.06a13.59 13.59 0 01-10.78-5.15c-.34-.44-.66-.91-.95-1.37-3.29-3.69-6 0-6 0a13.67 13.67 0 01-11.6 6.52h-11.98a13.76 13.76 0 01-9.61-3.88 14.79 14.79 0 01-9.81 3.81l-9.25.07h-.09a14.89 14.89 0 01-9-3 15.21 15.21 0 01-6.39 2.53 41.89 41.89 0 01-5.82.44h-.34c-9.28 0-16.28-2.06-21.42-6.32a22.26 22.26 0 01-5.19-6.2 52.07 52.07 0 01-4.81 4.3 44.65 44.65 0 01-27.92 9.68h-.29c-9.7 0-17.88-2.51-24.42-7.4a11.4 11.4 0 01-1.33 1.81 12.53 12.53 0 01-9.26 4.18l-13.52.06h-.08a14.18 14.18 0 01-14.12-13.07l-.73-10-20.2.11-8.48 15a15.61 15.61 0 01-13.48 7.93l-15.35.15h-.06a12.5 12.5 0 01-10.78-18.89l53-90A13.6 13.6 0 0166.29 18l21.83-.11h.08a13.48 13.48 0 0113.45 12.15l3.4 32.72a52.41 52.41 0 0111.24-11.21c7.67-5.63 16.85-8.52 27.26-8.59h.45c11.22 0 20.32 3.17 27.22 9.35a32.39 32.39 0 012.95 3l4.45-18.45a13.6 13.6 0 0113.2-10.46l12.18-.07h.08a13.64 13.64 0 0113.27 16.81l-.6 2.43a13.58 13.58 0 013.41 1.75l.66-.44a19.14 19.14 0 01-2-14.45l.1-.44a19.37 19.37 0 0118.81-14.17h1.75A19.42 19.42 0 01258 43.57a16.74 16.74 0 01-1 3.06c.27 0 .55-.08.82-.08h11.12a14.18 14.18 0 016.6 1.64l.63-.3a34.7 34.7 0 0114.32-3.05h.25c6.87 0 12.76 1.6 17.48 4.76a24.74 24.74 0 012.19 1.67 41.09 41.09 0 013.84-2.34 37.17 37.17 0 0117.71-4.3s13.9-.24 13.9-4.64a1.51 1.51 0 000-.3 17.24 17.24 0 01-.63-4.66 16.82 16.82 0 015.1-12 17.07 17.07 0 0112.84-4.69 16.19 16.19 0 019.81 4c-.05-.84-.11-1.67-.13-2.53a18.54 18.54 0 019.3-17.23 19.5 19.5 0 0120 .38 17.67 17.67 0 018 15.44 16.28 16.28 0 014.14-1.84A16.67 16.67 0 01427.17 18a16.94 16.94 0 016.83 7.29 15.09 15.09 0 0112.05-6.2h9.34A15.08 15.08 0 01470 37.61l-15.22 65.45a5.29 5.29 0 01.8 0 2.93 2.93 0 01.59 0 14.9 14.9 0 0114.63 14.72z" fill="#fff"/><path d="M346.39 60q5.13 4.89 5.18 14.44a45.76 45.76 0 01-1.41 10.23l-8.62 36.32a4.18 4.18 0 01-4.05 3.21H326a3.14 3.14 0 01-3.05-3.87l8.67-35.72a26.55 26.55 0 00.89-6.51q0-8.37-7.86-8.32-6 0-10.37 5.16t-6.75 14.7l-7.65 32.19a3.12 3.12 0 01-3 2.41l-12.14.06a3.13 3.13 0 01-3.06-3.86l8.75-36.81a20.75 20.75 0 00.76-5.45c0-5.48-2.61-8.48-7.91-8.45a14 14 0 00-10.84 5c-2.94 3.42-4.51 7.35-6.36 15.13l-7.6 32a3.13 3.13 0 01-3 2.4h-11.94a3.4 3.4 0 01-3.31-4.21l14.67-60.59a3.12 3.12 0 013-2.39L269 57a3.13 3.13 0 013 3.87l-.67 2.93h.26a31.62 31.62 0 018.91-6.36 24.07 24.07 0 0110-2.1q7.28 0 11.8 3a13.87 13.87 0 015.09 6.16 1.77 1.77 0 002.91.55 37.69 37.69 0 018.89-6.87A26.83 26.83 0 01332 55.12q9.26-.04 14.39 4.88zm25.35 39.74q0 6.7 3.41 9.85a12.18 12.18 0 008.75 3.12 15.44 15.44 0 008.86-2.68 13.85 13.85 0 004.55-5 3.1 3.1 0 012.71-1.73l13.67-.07a2 2 0 011.75 2.95 37.18 37.18 0 01-11.79 13.1 35.55 35.55 0 01-20.73 6.5q-13.94.06-21.2-7.4t-7.34-20.76a47.18 47.18 0 014.44-19.71 41.92 41.92 0 0113.32-16.59 34.39 34.39 0 0121.06-6.7q13.8-.07 21.07 7.2t7.33 19.91a53.25 53.25 0 01-1.19 10.61 1.93 1.93 0 01-1.87 1.52l-45.12.14a1.4 1.4 0 00-1.37 1.17 32 32 0 00-.31 4.52zm10.44-28.37a23.46 23.46 0 00-6.67 9.91.87.87 0 00.83 1.18l27-.14a1 1 0 001-.91c.1-.92.15-1.59.15-2q0-5.93-3.4-8.87a12.87 12.87 0 00-8.89-2.92 15.57 15.57 0 00-10.02 3.7zm38.91 48.73l20.65-86.93a4.5 4.5 0 014.36-3.47h9.26a4.52 4.52 0 014.42 5.56l-20.41 85.84a3.27 3.27 0 01-3.16 2.51l-12.25.06a2.94 2.94 0 01-2.87-3.62zm-23-80.67a487 487 0 011.45-20.25c1.11-11.7-16.71-11.24-16.24.25.27 6.78.73 13 1.31 19.71.74 8.58 13 9.18 13.48.29zm19 7.25c2.11-3.17 5.25-7.8 7.35-11 1.85-2.79.32-6.94-2.44-8.48a6.2 6.2 0 00-8.4 2.37c-1.78 3.35-4.59 8.16-6.37 11.51a5.83 5.83 0 002.22 7.72c2.86 1.6 6 .38 7.64-2.16zm-374 55.83l-10.92 19.3a5 5 0 01-4.37 2.58l-15.34.08a2 2 0 01-1.7-3l53-90a3 3 0 012.56-1.48l21.82-.11a3 3 0 013 2.69l9.26 89.58a2 2 0 01-2 2.17l-13.58.08a3.56 3.56 0 01-3.49-3.4L80 103.1a2 2 0 00-2-1.82l-33.19.17a1.94 1.94 0 00-1.67 1.01zm35.17-22.37c-.7-10.37-1.52-27.13-1.85-34.38a1.11 1.11 0 00-2.1-.44c-5.6 11.11-12.78 23.79-18.9 34.78l-2.53 4.46a1.19 1.19 0 001 1.78h23.56a1.14 1.14 0 001.13-1.21zm85.92-18.6q7.5 6.72 7.55 17.84v1.25a2.37 2.37 0 01-2.36 2.3l-14.26.07a2.47 2.47 0 01-2.47-2.45c0-3.58-.9-6.39-2.66-8.43a9.07 9.07 0 00-7.33-3 13.63 13.63 0 00-10.18 4.57 30.47 30.47 0 00-6.55 11 35.4 35.4 0 00-2.22 11.8c0 4.8 1 8.54 2.86 11.19a9.38 9.38 0 008.2 4 13.33 13.33 0 008.81-3.45 18 18 0 005.14-7.77 2.35 2.35 0 012.21-1.57l14.14-.07a2.39 2.39 0 012.22 3.27 37.88 37.88 0 01-12 16.3 34.26 34.26 0 01-21.48 7.44q-13.47.07-21.09-7.62T105 96.63a45.06 45.06 0 014.35-19.08 40.65 40.65 0 0113.19-16.12q8.79-6.45 21.08-6.53 13.08-.06 20.56 6.64zm28.42 40.14c-1 4.14.5 5.72 1.42 6.5 2.15 1.85 5.6 1.38 7.94 1 1.44-.24 2.11.75 1.79 2.08l-2.24 9.41a4.52 4.52 0 01-3.76 3.23 29.45 29.45 0 01-4.3.32q-10.2.06-15-3.9t-4.84-12.85a43 43 0 011.52-9.8l13.73-56.92a3.1 3.1 0 013-2.39L204 38.3a3.1 3.1 0 013 3.83L204 55a1.55 1.55 0 001.53 1.92l6.75-.05a3.14 3.14 0 013.07 3.87l-1.79 7.55a3.13 3.13 0 01-3 2.41h-9.25a1.57 1.57 0 00-1.52 1.19s-6.9 28.56-7.19 29.79zm45-54.1l1.6.05a8.87 8.87 0 008.63-6.63 8.89 8.89 0 00-8.55-11.11l-1.57-.06a8.89 8.89 0 00-8.65 6.69 8.88 8.88 0 008.54 11.06zm-22.86 76.71l9.25-.05a4.36 4.36 0 004.21-3.36l14.26-60a3.16 3.16 0 00-3.09-3.9l-11.7.07a3.16 3.16 0 00-3.06 2.43l-14.13 59.48a4.36 4.36 0 004.26 5.33zm160-83.36c-2.42-2.93-5.94-7.28-8.36-10.21-2.13-2.58-6.54-2.3-8.81-.1a6.22 6.22 0 00-.15 8.74c2.68 2.67 6.48 6.76 9.16 9.43a5.81 5.81 0 008 .1c2.36-2.28 2.08-5.6.14-8zm23.35-1.55a487 487 0 011.45-20.25c1.11-11.7-16.71-11.24-16.24.25.27 6.78.73 13 1.31 19.71.74 8.58 13 9.18 13.48.29zm19 7.25c2.11-3.17 5.25-7.8 7.35-11 1.85-2.79.32-6.94-2.44-8.48a6.2 6.2 0 00-8.4 2.37c-1.78 3.35-4.59 8.16-6.37 11.51a5.83 5.83 0 002.22 7.72c2.86 1.6 6 .38 7.64-2.16zm-374 55.83l-10.92 19.3a5 5 0 01-4.37 2.58l-15.34.08a2 2 0 01-1.7-3l53-90a3 3 0 012.56-1.48l21.82-.11a3 3 0 013 2.69l9.26 89.58a2 2 0 01-2 2.17l-13.58.08a3.56 3.56 0 01-3.49-3.35L80 103.1a2 2 0 00-2-1.82l-33.19.17a1.94 1.94 0 00-1.67 1.01zm35.17-22.32c-.7-10.37-1.52-27.13-1.85-34.38a1.11 1.11 0 00-2.1-.44c-5.6 11.11-12.78 23.79-18.9 34.78l-2.53 4.46a1.19 1.19 0 001 1.78h23.56a1.14 1.14 0 001.13-1.21zm85.92-18.6q7.5 6.72 7.55 17.84v1.25a2.37 2.37 0 01-2.36 2.3l-14.26.07a2.47 2.47 0 01-2.47-2.45c0-3.58-.9-6.39-2.66-8.43a9.07 9.07 0 00-7.33-3 13.63 13.63 0 00-10.18 4.57 30.47 30.47 0 00-6.55 11 35.4 35.4 0 00-2.22 11.8c0 4.8 1 8.54 2.86 11.19a9.38 9.38 0 008.2 4 13.33 13.33 0 008.81-3.45 18 18 0 005.14-7.77 2.35 2.35 0 012.21-1.57l14.14-.07a2.39 2.39 0 012.22 3.27 37.88 37.88 0 01-12 16.3 34.26 34.26 0 01-21.48 7.44q-13.47.07-21.09-7.62T105 96.63a45.06 45.06 0 014.35-19.08 40.65 40.65 0 0113.19-16.12q8.79-6.45 21.08-6.53 13.08-.06 20.56 6.64zm28.42 40.14c-1 4.14.5 5.72 1.42 6.5 2.15 1.85 5.6 1.38 7.94 1 1.44-.24 2.11.75 1.79 2.08l-2.24 9.41a4.52 4.52 0 01-3.76 3.23 29.45 29.45 0 01-4.3.32q-10.2.06-15-3.9t-4.84-12.85a43 43 0 011.52-9.8l13.73-56.92a3.1 3.1 0 013-2.39L204 38.3a3.1 3.1 0 013 3.83L204 55a1.55 1.55 0 001.53 1.92l6.75-.05a3.14 3.14 0 013.07 3.87l-1.79 7.55a3.13 3.13 0 01-3 2.41h-9.25a1.57 1.57 0 00-1.52 1.19s-6.9 28.56-7.19 29.79zm45-54.1l1.6.05a8.87 8.87 0 008.63-6.63 8.89 8.89 0 00-8.55-11.11l-1.57-.06a8.89 8.89 0 00-8.65 6.69 8.88 8.88 0 008.54 11.06zm-22.86 76.71l9.25-.05a4.36 4.36 0 004.21-3.36l14.26-60a3.16 3.16 0 00-3.09-3.9l-11.7.07a3.16 3.16 0 00-3.06 2.43l-14.13 59.48a4.36 4.36 0 004.26 5.33zm160-83.36c-2.42-2.93-5.94-7.28-8.36-10.21-2.13-2.58-6.54-2.3-8.81-.1a6.22 6.22 0 00-.15 8.74c2.68 2.67 6.48 6.76 9.16 9.43a5.81 5.81 0 008 .1c2.36-2.28 2.08-5.6.14-8zM448 117.7a8 8 0 117.89 8.17 8 8 0 01-7.89-8.17zm14.24.25a6.21 6.21 0 10-6.32 6.23 6.31 6.31 0 006.31-6.18zm-8.06.63l-.06 3.18a.73.73 0 01-1.46 0l.14-8c0-.33.16-.46.52-.45h2.92c2.22 0 3.34.7 3.31 2.7a2.33 2.33 0 01-2.33 2.51l1.92 3.05a1.53 1.53 0 01.21.56c0 .25-.45.37-.83.36a.89.89 0 01-.88-.5l-2-3.43zm1.71-1.3c1.13 0 2.17 0 2.2-1.36 0-1.11-1.07-1.21-2-1.23h-1.82l-.05 2.59z" fill="url(#a)"/><path d="M346.39 60q5.13 4.89 5.18 14.44a45.76 45.76 0 01-1.41 10.23l-8.62 36.32a4.18 4.18 0 01-4.05 3.21H326a3.14 3.14 0 01-3.05-3.87l8.67-35.72a26.55 26.55 0 00.89-6.51q0-8.37-7.86-8.32-6 0-10.37 5.16t-6.75 14.7l-7.65 32.19a3.12 3.12 0 01-3 2.41l-12.14.06a3.13 3.13 0 01-3.06-3.86l8.75-36.81a20.75 20.75 0 00.76-5.45c0-5.48-2.61-8.48-7.91-8.45a14 14 0 00-10.84 5c-2.94 3.42-4.51 7.35-6.36 15.13l-7.6 32a3.13 3.13 0 01-3 2.4h-11.94a3.4 3.4 0 01-3.31-4.21l14.67-60.59a3.12 3.12 0 013-2.39L269 57a3.13 3.13 0 013 3.87l-.67 2.93h.26a31.62 31.62 0 018.91-6.36 24.07 24.07 0 0110-2.1q7.28 0 11.8 3a13.87 13.87 0 015.09 6.16 1.77 1.77 0 002.91.55 37.69 37.69 0 018.89-6.87A26.83 26.83 0 01332 55.12q9.26-.04 14.39 4.88zm25.35 39.74q0 6.7 3.41 9.85a12.18 12.18 0 008.75 3.12 15.44 15.44 0 008.86-2.68 13.85 13.85 0 004.55-5 3.1 3.1 0 012.71-1.73l13.67-.07a2 2 0 011.75 2.95 37.18 37.18 0 01-11.79 13.1 35.55 35.55 0 01-20.73 6.5q-13.94.06-21.2-7.4t-7.34-20.76a47.18 47.18 0 014.44-19.71 41.92 41.92 0 0113.32-16.59 34.39 34.39 0 0121.06-6.7q13.8-.07 21.07 7.2t7.33 19.91a53.25 53.25 0 01-1.19 10.61 1.93 1.93 0 01-1.87 1.52l-45.12.14a1.4 1.4 0 00-1.37 1.17 32 32 0 00-.31 4.52zm10.44-28.37a23.46 23.46 0 00-6.67 9.91.87.87 0 00.83 1.18l27-.14a1 1 0 001-.91c.1-.92.15-1.59.15-2q0-5.93-3.4-8.87a12.87 12.87 0 00-8.89-2.92 15.57 15.57 0 00-10.02 3.7zm38.91 48.73l20.65-86.93a4.5 4.5 0 014.36-3.47h9.26a4.52 4.52 0 014.42 5.56l-20.41 85.84a3.27 3.27 0 01-3.16 2.51l-12.25.06a2.94 2.94 0 01-2.87-3.62zm-23-80.67a487 487 0 011.45-20.25c1.11-11.7-16.71-11.24-16.24.25.27 6.78.73 13 1.31 19.71.74 8.58 13 9.18 13.48.29zm19 7.25c2.11-3.17 5.25-7.8 7.35-11 1.85-2.79.32-6.94-2.44-8.48a6.2 6.2 0 00-8.4 2.37c-1.78 3.35-4.59 8.16-6.37 11.51a5.83 5.83 0 002.22 7.72c2.86 1.6 6 .38 7.64-2.16zm-374 55.83l-10.92 19.3a5 5 0 01-4.37 2.58l-15.34.08a2 2 0 01-1.7-3l53-90a3 3 0 012.56-1.48l21.82-.11a3 3 0 013 2.69l9.26 89.58a2 2 0 01-2 2.17l-13.58.08a3.56 3.56 0 01-3.49-3.4L80 103.1a2 2 0 00-2-1.82l-33.19.17a1.94 1.94 0 00-1.67 1.01zm35.17-22.37c-.7-10.37-1.52-27.13-1.85-34.38a1.11 1.11 0 00-2.1-.44c-5.6 11.11-12.78 23.79-18.9 34.78l-2.53 4.46a1.19 1.19 0 001 1.78h23.56a1.14 1.14 0 001.13-1.21zm85.92-18.6q7.5 6.72 7.55 17.84v1.25a2.37 2.37 0 01-2.36 2.3l-14.26.07a2.47 2.47 0 01-2.47-2.45c0-3.58-.9-6.39-2.66-8.43a9.07 9.07 0 00-7.33-3 13.63 13.63 0 00-10.18 4.57 30.47 30.47 0 00-6.55 11 35.4 35.4 0 00-2.22 11.8c0 4.8 1 8.54 2.86 11.19a9.38 9.38 0 008.2 4 13.33 13.33 0 008.81-3.45 18 18 0 005.14-7.77 2.35 2.35 0 012.21-1.57l14.14-.07a2.39 2.39 0 012.22 3.27 37.88 37.88 0 01-12 16.3 34.26 34.26 0 01-21.48 7.44q-13.47.07-21.09-7.62T105 96.63a45.06 45.06 0 014.35-19.08 40.65 40.65 0 0113.19-16.12q8.79-6.45 21.08-6.53 13.08-.06 20.56 6.64zm28.42 40.14c-1 4.14.5 5.72 1.42 6.5 2.15 1.85 5.6 1.38 7.94 1 1.44-.24 2.11.75 1.79 2.08l-2.24 9.41a4.52 4.52 0 01-3.76 3.23 29.45 29.45 0 01-4.3.32q-10.2.06-15-3.9t-4.84-12.85a43 43 0 011.52-9.8l13.73-56.92a3.1 3.1 0 013-2.39L204 38.3a3.1 3.1 0 013 3.83L204 55a1.55 1.55 0 001.53 1.92l6.75-.05a3.14 3.14 0 013.07 3.87l-1.79 7.55a3.13 3.13 0 01-3 2.41h-9.25a1.57 1.57 0 00-1.52 1.19s-6.9 28.56-7.19 29.79zm45-54.1l1.6.05a8.87 8.87 0 008.63-6.63 8.89 8.89 0 00-8.55-11.11l-1.57-.06a8.89 8.89 0 00-8.65 6.69 8.88 8.88 0 008.54 11.06zm-22.86 76.71l9.25-.05a4.36 4.36 0 004.21-3.36l14.26-60a3.16 3.16 0 00-3.09-3.9l-11.7.07a3.16 3.16 0 00-3.06 2.43l-14.13 59.48a4.36 4.36 0 004.26 5.33zm160-83.36c-2.42-2.93-5.94-7.28-8.36-10.21-2.13-2.58-6.54-2.3-8.81-.1a6.22 6.22 0 00-.15 8.74c2.68 2.67 6.48 6.76 9.16 9.43a5.81 5.81 0 008 .1c2.36-2.28 2.08-5.6.14-8zm23.35-1.55a487 487 0 011.45-20.25c1.11-11.7-16.71-11.24-16.24.25.27 6.78.73 13 1.31 19.71.74 8.58 13 9.18 13.48.29zm19 7.25c2.11-3.17 5.25-7.8 7.35-11 1.85-2.79.32-6.94-2.44-8.48a6.2 6.2 0 00-8.4 2.37c-1.78 3.35-4.59 8.16-6.37 11.51a5.83 5.83 0 002.22 7.72c2.86 1.6 6 .38 7.64-2.16zm-374 55.83l-10.92 19.3a5 5 0 01-4.37 2.58l-15.34.08a2 2 0 01-1.7-3l53-90a3 3 0 012.56-1.48l21.82-.11a3 3 0 013 2.69l9.26 89.58a2 2 0 01-2 2.17l-13.58.08a3.56 3.56 0 01-3.49-3.35L80 103.1a2 2 0 00-2-1.82l-33.19.17a1.94 1.94 0 00-1.67 1.01zm35.17-22.32c-.7-10.37-1.52-27.13-1.85-34.38a1.11 1.11 0 00-2.1-.44c-5.6 11.11-12.78 23.79-18.9 34.78l-2.53 4.46a1.19 1.19 0 001 1.78h23.56a1.14 1.14 0 001.13-1.21zm85.92-18.6q7.5 6.72 7.55 17.84v1.25a2.37 2.37 0 01-2.36 2.3l-14.26.07a2.47 2.47 0 01-2.47-2.45c0-3.58-.9-6.39-2.66-8.43a9.07 9.07 0 00-7.33-3 13.63 13.63 0 00-10.18 4.57 30.47 30.47 0 00-6.55 11 35.4 35.4 0 00-2.22 11.8c0 4.8 1 8.54 2.86 11.19a9.38 9.38 0 008.2 4 13.33 13.33 0 008.81-3.45 18 18 0 005.14-7.77 2.35 2.35 0 012.21-1.57l14.14-.07a2.39 2.39 0 012.22 3.27 37.88 37.88 0 01-12 16.3 34.26 34.26 0 01-21.48 7.44q-13.47.07-21.09-7.62T105 96.63a45.06 45.06 0 014.35-19.08 40.65 40.65 0 0113.19-16.12q8.79-6.45 21.08-6.53 13.08-.06 20.56 6.64zm28.42 40.14c-1 4.14.5 5.72 1.42 6.5 2.15 1.85 5.6 1.38 7.94 1 1.44-.24 2.11.75 1.79 2.08l-2.24 9.41a4.52 4.52 0 01-3.76 3.23 29.45 29.45 0 01-4.3.32q-10.2.06-15-3.9t-4.84-12.85a43 43 0 011.52-9.8l13.73-56.92a3.1 3.1 0 013-2.39L204 38.3a3.1 3.1 0 013 3.83L204 55a1.55 1.55 0 001.53 1.92l6.75-.05a3.14 3.14 0 013.07 3.87l-1.79 7.55a3.13 3.13 0 01-3 2.41h-9.25a1.57 1.57 0 00-1.52 1.19s-6.9 28.56-7.19 29.79zm45-54.1l1.6.05a8.87 8.87 0 008.63-6.63 8.89 8.89 0 00-8.55-11.11l-1.57-.06a8.89 8.89 0 00-8.65 6.69 8.88 8.88 0 008.54 11.06zm-22.86 76.71l9.25-.05a4.36 4.36 0 004.21-3.36l14.26-60a3.16 3.16 0 00-3.09-3.9l-11.7.07a3.16 3.16 0 00-3.06 2.43l-14.13 59.48a4.36 4.36 0 004.26 5.33zm160-83.36c-2.42-2.93-5.94-7.28-8.36-10.21-2.13-2.58-6.54-2.3-8.81-.1a6.22 6.22 0 00-.15 8.74c2.68 2.67 6.48 6.76 9.16 9.43a5.81 5.81 0 008 .1c2.36-2.28 2.08-5.6.14-8zM448 117.7a8 8 0 117.89 8.17 8 8 0 01-7.89-8.17zm14.24.25a6.21 6.21 0 10-6.32 6.23 6.31 6.31 0 006.31-6.18zm-8.06.63l-.06 3.18a.73.73 0 01-1.46 0l.14-8c0-.33.16-.46.52-.45h2.92c2.22 0 3.34.7 3.31 2.7a2.33 2.33 0 01-2.33 2.51l1.92 3.05a1.53 1.53 0 01.21.56c0 .25-.45.37-.83.36a.89.89 0 01-.88-.5l-2-3.43zm1.71-1.3c1.13 0 2.17 0 2.2-1.36 0-1.11-1.07-1.21-2-1.23h-1.82l-.05 2.59z" fill="url(#b)"/></g></g></svg>