<?xml version="1.0" encoding="utf-8"?>
<!-- Generator: Adobe Illustrator 24.2.0, SVG Export Plug-In . SVG Version: 6.00 Build 0)  -->
<svg version="1.2" baseProfile="tiny" id="Layer_1" xmlns="http://www.w3.org/2000/svg" xmlns:xlink="http://www.w3.org/1999/xlink"
	 x="0px" y="0px" viewBox="0 0 963.78 198.43" overflow="visible" xml:space="preserve">
<path fill-rule="evenodd" fill="#009846" d="M761.64,59.08c5.45,8.47,10.9,16.93,16.35,25.4c6.57-2.05,13.25-3.72,20.02-5.06
	c13.33-2.64,26.28-4.3,39.85-2.8c1.36,0.15,2.66,0.34,3.86,0.57c13.42,2.57,11.56,8.5-1.98,8.88c-11.28,0.32-22.41-0.41-33.77,0.24
	c-11.17,0.64-21.68,2.04-30.58,5.25c-14.51,5.23-26.92,17.39-22.95,34.09c5.03,21.18,32.44,26.91,50.94,27.43
	c16.32,0.47,32.83-3.57,49.55-12.12c0.83,5.11,4.8,8.13,11.91,9.06c14.38,0,28.75,0,43.13,0c0-8.28,0-16.56,0-24.84
	c-5.98,1.72-9.35-0.14-8.9-7.22c-0.22-12.81-0.45-25.62-0.67-38.43c-1.85-15.5-13.54-24.59-33.39-28.36
	C829.14,46.21,794.16,46.03,761.64,59.08L761.64,59.08z M802.8,113.65c3.82-7.16,16.05-5.91,22.61-6.05
	c1.28-0.03,10.84-0.57,18.33-0.53c4.19,0.02,7.15,0.79,7.96,2.88c1.45,3.77-3.04,8.87-6.27,10.46c-0.97,0.48-2.04,0.91-3.14,1.34
	c-6.97,2.09-13.95,3.36-20.92,3.7c-5.94,0.29-16.44,0.88-19.07-6C801.57,117.55,801.81,115.49,802.8,113.65L802.8,113.65z
	 M47.45,59.08c5.45,8.47,10.9,16.93,16.35,25.4c6.57-2.05,13.25-3.72,20.02-5.06c13.33-2.64,26.28-4.3,39.85-2.8
	c1.36,0.15,2.66,0.34,3.86,0.57c13.42,2.57,11.56,8.5-1.98,8.88c-11.28,0.32-22.41-0.41-33.77,0.24
	c-11.17,0.64-21.68,2.04-30.58,5.25c-14.51,5.23-26.92,17.39-22.95,34.09c5.03,21.18,32.44,26.91,50.94,27.43
	c16.32,0.47,32.83-3.57,49.55-12.12c0.83,5.11,4.8,8.13,11.91,9.06c14.38,0,28.75,0,43.13,0c0-8.28,0-16.56,0-24.84
	c-5.98,1.72-9.35-0.14-8.9-7.22c-0.22-12.81-0.45-25.62-0.67-38.43c-1.85-15.5-13.54-24.59-33.39-28.36
	C114.95,46.21,79.97,46.03,47.45,59.08L47.45,59.08z M88.61,113.65c3.82-7.16,16.05-5.91,22.61-6.05
	c1.28-0.03,10.84-0.57,18.33-0.53c4.19,0.02,7.15,0.79,7.96,2.88c1.45,3.77-3.04,8.87-6.27,10.46c-0.97,0.48-2.04,0.91-3.14,1.34
	c-6.97,2.09-13.95,3.36-20.92,3.7c-5.94,0.29-16.44,0.88-19.07-6C87.38,117.55,87.62,115.49,88.61,113.65L88.61,113.65z
	 M917.77,47.11v6.28h2.82c1.61,0,2.78-0.25,3.53-0.73c0.74-0.49,1.11-1.26,1.11-2.32c0-1.11-0.39-1.92-1.16-2.44
	c-0.77-0.52-1.99-0.78-3.67-0.78H917.77L917.77,47.11z M913.5,44.42h7.68c2.77,0,4.88,0.46,6.31,1.37c1.43,0.91,2.14,2.26,2.14,4.04
	c0,1.46-0.39,2.67-1.16,3.62c-0.76,0.95-1.86,1.58-3.29,1.89l4.45,9.04h-4.78l-3.96-8.34h-3.11v8.34h-4.27V44.42L913.5,44.42z
	 M920.78,39.61c2.06,0,4,0.39,5.83,1.15c1.83,0.77,3.49,1.89,4.98,3.36c1.42,1.45,2.49,3.09,3.22,4.92
	c0.73,1.83,1.09,3.81,1.09,5.94c0,1.99-0.39,3.9-1.15,5.69c-0.77,1.8-1.86,3.39-3.29,4.76c-1.48,1.46-3.16,2.56-5.02,3.31
	c-1.86,0.75-3.83,1.12-5.91,1.12c-1.92,0-3.79-0.39-5.61-1.17c-1.82-0.79-3.45-1.9-4.89-3.36c-1.42-1.44-2.51-3.07-3.26-4.88
	c-0.75-1.82-1.12-3.72-1.12-5.73c0-1.99,0.39-3.92,1.19-5.78c0.79-1.85,1.92-3.54,3.39-5.04c1.43-1.42,3.03-2.49,4.8-3.22
	C916.79,39.97,918.71,39.61,920.78,39.61L920.78,39.61z M920.75,36.95c2.45,0,4.77,0.45,6.93,1.35c2.17,0.9,4.11,2.22,5.81,3.97
	c1.66,1.67,2.91,3.56,3.78,5.69c0.86,2.12,1.3,4.38,1.3,6.78c0,2.45-0.44,4.75-1.34,6.9c-0.89,2.15-2.18,4.04-3.88,5.7
	c-1.73,1.68-3.68,2.97-5.85,3.87c-2.16,0.89-4.41,1.35-6.75,1.35c-2.36,0-4.63-0.46-6.8-1.39c-2.17-0.92-4.1-2.25-5.81-3.98
	c-1.68-1.7-2.96-3.62-3.85-5.74c-0.88-2.13-1.32-4.37-1.32-6.71c0-2.36,0.46-4.63,1.39-6.83c0.92-2.2,2.25-4.16,3.98-5.89
	c1.67-1.67,3.54-2.93,5.64-3.78C916.07,37.37,918.32,36.95,920.75,36.95L920.75,36.95z M459.37,52.55
	c21.46,8.15,36.54,26.72,36.54,48.19c0,0,0,0,0,0c0,22.75-16.93,42.24-40.44,49.53c-19.41,6.02-61.18,5.98-80.41-0.6
	c-22.54-7.72-38.59-26.78-38.59-48.93c0,0,0,0,0,0c0-22.37,16.38-41.6,39.29-49.17c9.31-3.07,23.97-4.68,38.93-4.76
	C431.65,46.73,448.99,48.61,459.37,52.55L459.37,52.55z M413.61,75.15c-14.11,0-25.66,11.55-25.66,25.66l0,0
	c0,14.11,11.55,25.66,25.66,25.66h5.13c14.11,0,25.66-11.55,25.66-25.66l0,0c0-14.11-11.55-25.66-25.66-25.66H413.61L413.61,75.15z
	 M205.98,49.92h46.92v6.87c1.12,1.6,2.9,2.16,6.11,0.52c3.14-2.75,6.8-4.86,10.93-6.37c13.04-4.79,33.34-4.58,44.93,3.57
	c11.34,7.98,15.6,22.93,14.43,43.24c-15.32,0.93-30.65,1.86-45.97,2.79V98.7c0-10.27-6.84-18.67-15.21-18.67h0
	c-8.12,0-14.81,7.91-15.19,17.77c-0.01,0-0.01,0-0.02,0v52.22h-46.92V49.92L205.98,49.92z M742.08,84.67v65.35h-47.82V96.28
	c0-1.79,0.1-2.79-0.59-4.44c-1.01-2.38-2.31-4.43-3.99-6.12c-8.54-8.53-27.74-6.71-36.11,1.35c-2.11,2.06-3.9,4.64-5.55,7.82
	c-1.06,2.05-0.9,2.96-0.9,5.29v49.85h-47.82V94.78c0-2.38-0.27-2.86-1.61-4.9c-0.95-1.43-1.98-2.73-3.1-3.88
	c-10.02-10.35-27.05-8.87-37.43,0.04c-1.47,1.26-2.78,2.69-3.92,4.3c-1.54,2.18-1.09,3.6-1.09,6.24v53.45h-47.82V49.92h47.82v11.56
	c10.95-8.12,23.79-12.14,38.22-12.73c18.74-1.56,34.43,2.49,47.05,12.15c1.87,1.49,3.89,2.16,6.25,1.06
	c4.82-3.83,10.03-6.89,15.65-9.13c16.63-6.62,43.69-6.16,59.95,1.07c6.3,2.8,11.87,6.9,16.47,12.78c4.01,5.12,6.1,10.2,6.33,16.68
	C742.07,83.78,742.08,84.22,742.08,84.67z"/>
</svg>
