<svg width="185" height="25" viewBox="0 0 185 25" fill="none" xmlns="http://www.w3.org/2000/svg">
<path d="M44.2531 3.92109C44.1428 3.93218 44.0289 3.93958 43.915 3.93958H37.706V10.6905L45.5573 10.6683C46.6448 10.6683 47.5486 10.5906 48.2761 10.439C48.9998 10.2577 49.573 10.0136 49.9955 9.71023C50.418 9.40691 50.7192 9.05549 50.9029 8.65968C51.083 8.23428 51.1748 7.77928 51.1748 7.291C51.1748 6.80641 51.083 6.36252 50.9029 5.97041C50.7229 5.54501 50.418 5.17879 49.9955 4.87546C49.573 4.57213 48.9998 4.34279 48.2761 4.19112C47.5523 4.00986 46.6448 3.91739 45.5573 3.91739H44.2531V3.92109ZM32.5588 1.97164C32.5588 0.884094 33.7087 0.00369914 35.1269 0.00369914L40.3109 0H46.733C48.1805 0 49.4958 0.136868 50.6715 0.410604C51.8508 0.654747 52.8612 1.06535 53.7062 1.64242C54.5512 2.18989 55.2015 2.91862 55.6534 3.83231C56.1053 4.7127 56.3331 5.80764 56.3331 7.11344C56.3331 9.11837 55.7452 10.6535 54.5659 11.7189C53.7613 12.4439 52.7693 13.0062 51.5863 13.4094L56.2118 20.0567C57.0238 21.2256 56.8033 22.7941 55.7159 23.5635C54.6284 24.3292 53.0853 24.0037 52.2733 22.8348L46.3031 14.2565H44.2163L37.7207 14.2269V19.4427L37.706 21.418C37.706 22.8459 36.5561 24.0037 35.1379 24.0037C33.7051 24.0037 32.5551 22.8459 32.5551 21.418V19.4427V2.67448C32.5551 2.53761 32.5661 2.40444 32.5845 2.27497C32.5698 2.17509 32.5588 2.07522 32.5588 1.97164Z" fill="#231F20"/>
<path d="M62.0497 2.11583C62.0497 0.950604 63.1997 0.00732422 64.6179 0.00732422H83.5939C85.0121 0.00732422 86.162 0.950604 86.162 2.11583C86.162 3.28106 85.0121 4.22434 83.5939 4.22434H76.6795V21.4142C76.6795 22.8421 75.5296 23.9999 74.1114 23.9999C72.6785 23.9999 71.5286 22.8421 71.5286 21.4142V4.22434H64.6179C63.1997 4.22434 62.0497 3.27736 62.0497 2.11583Z" fill="#231F20"/>
<path d="M92.6761 11.5709V11.4118L92.6724 11.4895L92.6761 11.5709ZM92.6724 21.8915C92.6724 21.8175 92.6797 21.7435 92.6871 21.6695C92.6797 21.5881 92.6724 21.503 92.6724 21.418V11.5709L92.6687 11.4932L92.6724 11.4155V2.67444C92.6724 2.53757 92.6834 2.4044 92.7018 2.27493C92.6834 2.17506 92.6724 2.07518 92.6724 1.9716C92.6724 0.884057 93.8223 0.00366211 95.2405 0.00366211H112.519C113.937 0.00366211 115.087 0.884057 115.087 1.9716C115.087 3.05915 113.937 3.93954 112.519 3.93954H97.8233V9.52894H106.92C108.338 9.52894 109.488 10.4093 109.488 11.4969C109.488 12.5844 108.338 13.4648 106.92 13.4648H97.8233V19.7866H112.824C114.242 19.7866 115.392 20.7299 115.392 21.8952C115.392 23.0604 114.242 24.0037 112.824 24.0037H95.2552C93.8187 23.9963 92.6724 23.053 92.6724 21.8915Z" fill="#231F20"/>
<path d="M125.22 0.0110604C125.279 0.00736125 125.334 0.00366211 125.393 0.00366211H125.22V0.0110604ZM146.063 7.27986L139.479 19.3317L138.953 20.2934L137.715 22.561C137.535 22.8717 137.194 23.0826 136.811 23.0826C136.521 23.0826 136.257 22.9605 136.066 22.7682L135.908 22.561L134.361 19.6313L127.711 7.05052V21.418C127.711 22.8458 126.679 24.0037 125.4 24.0037C124.125 24.0037 123.089 22.8458 123.089 21.418V2.58936C123.089 1.22808 124.03 0.110937 125.227 0.0110604L125.4 0.00366211C125.341 0.00366211 125.286 0.00736125 125.227 0.0110604L127.887 0.00366211C128.732 0.0480518 129.566 0.56963 130.026 1.43523L137.039 14.7188L144.292 1.45002C144.777 0.565931 145.622 0.0332552 146.452 0.00736125H146.584H148.66C149.986 0.0665474 151.044 1.20218 151.044 2.59306V21.418C151.044 22.8458 149.931 24.0037 148.557 24.0037C147.183 24.0037 146.066 22.8458 146.066 21.418V7.27986H146.063Z" fill="#231F20"/>
<path d="M17.2125 18.0744H5.95915L3.93479 22.3654C3.32858 23.6527 2.02432 24.3074 1.02133 23.8303C0.0220079 23.3531 -0.301302 21.9215 0.308578 20.6342L8.92405 2.37156C9.03059 2.14591 9.44208 1.24332 9.51556 1.12495C9.905 0.485001 10.7721 0.0300073 11.7824 0.0078125H11.8632H11.9771C13.0242 0.0078125 13.9243 0.466506 14.3248 1.12495C14.3762 1.21373 14.5452 1.54665 14.5856 1.62803L23.98 20.2495C24.6229 21.522 24.1343 23.0682 22.8888 23.7045C21.6433 24.3407 20.115 23.8229 19.472 22.5504L17.2125 18.0744ZM7.57203 14.6527H15.4894L11.3966 6.54789L7.57203 14.6527Z" fill="#231F20"/>
<path d="M176.95 18.0739H165.696L163.672 22.3649C163.066 23.6522 161.762 24.307 160.759 23.8298C159.759 23.3526 159.436 21.921 160.046 20.6337L168.661 2.37107C168.768 2.14543 169.179 1.24284 169.253 1.12446C169.642 0.484513 170.509 0.029519 171.52 0.00732422H171.6H171.714C172.761 0.00732422 173.662 0.466017 174.062 1.12446C174.117 1.21324 174.286 1.54617 174.327 1.62755L183.721 20.249C184.364 21.5215 183.875 23.0677 182.63 23.704C181.384 24.3403 179.856 23.8224 179.213 22.5499L176.95 18.0739ZM167.306 14.6522H175.223L171.134 6.5474L167.306 14.6522Z" fill="#231F20"/>
</svg>
