<?xml version="1.0" encoding="utf-8"?>
<!-- Generator: Adobe Illustrator 16.0.0, SVG Export Plug-In . SVG Version: 6.00 Build 0)  -->
<!DOCTYPE svg PUBLIC "-//W3C//DTD SVG 1.1//EN" "http://www.w3.org/Graphics/SVG/1.1/DTD/svg11.dtd">
<svg version="1.1" id="Layer_1" xmlns="http://www.w3.org/2000/svg" xmlns:xlink="http://www.w3.org/1999/xlink" x="0px" y="0px"
	 width="488.416px" height="444.294px" viewBox="0 0 488.416 444.294" enable-background="new 0 0 488.416 444.294"
	 xml:space="preserve">
<g>
	<defs>
		<path id="SVGID_1_" d="M0,0v282.012c0,97.894,104.997,162.282,244.209,162.282c139.212,0,244.206-64.389,244.206-162.282V0H0z"/>
	</defs>
	<clipPath id="SVGID_2_">
		<use xlink:href="#SVGID_1_"  overflow="visible"/>
	</clipPath>
	
		<linearGradient id="SVGID_3_" gradientUnits="userSpaceOnUse" x1="-39.6875" y1="642.1709" x2="-33.0181" y2="642.1709" gradientTransform="matrix(73.2314 0 0 -73.2314 2906.4175 47249.1563)">
		<stop  offset="0" style="stop-color:#E6D491"/>
		<stop  offset="0.4034" style="stop-color:#D6BC4F"/>
		<stop  offset="0.6154" style="stop-color:#CEB02C"/>
		<stop  offset="0.8132" style="stop-color:#EDE5D5"/>
		<stop  offset="1" style="stop-color:#CEB02C"/>
	</linearGradient>
	<rect clip-path="url(#SVGID_2_)" fill="url(#SVGID_3_)" width="488.416" height="444.294"/>
</g>
<g>
	<defs>
		<path id="SVGID_4_" d="M6.894,0v282.012c0,93.699,102.033,144.477,237.315,144.477c135.297,0,237.353-50.777,237.353-144.477V0
			H6.894z"/>
	</defs>
	<clipPath id="SVGID_5_">
		<use xlink:href="#SVGID_4_"  overflow="visible"/>
	</clipPath>
	
		<linearGradient id="SVGID_6_" gradientUnits="userSpaceOnUse" x1="-55.6338" y1="640.9102" x2="-48.9639" y2="640.9102" gradientTransform="matrix(0 11.08 11.08 0 -6857.0703 590.623)">
		<stop  offset="0" style="stop-color:#009444"/>
		<stop  offset="1" style="stop-color:#A6CE39"/>
	</linearGradient>
	<rect x="6.894" clip-path="url(#SVGID_5_)" fill="url(#SVGID_6_)" width="474.668" height="426.488"/>
</g>
<g>
	<defs>
		<path id="SVGID_7_" d="M235.102,163.564c-113.903,2.657-204.789,54.666-204.789,118.434c0,65.484,95.773,118.579,213.897,118.579
			c118.142,0,213.907-53.095,213.907-118.579c0-63.769-90.895-115.777-204.775-118.434H235.102z"/>
	</defs>
	<clipPath id="SVGID_8_">
		<use xlink:href="#SVGID_7_"  overflow="visible"/>
	</clipPath>
	
		<linearGradient id="SVGID_9_" gradientUnits="userSpaceOnUse" x1="-39.2769" y1="641.373" x2="-32.6074" y2="641.373" gradientTransform="matrix(-64.1426 0 0 -64.1426 -2061.1606 41421.4844)">
		<stop  offset="0" style="stop-color:#E6D491"/>
		<stop  offset="0.4034" style="stop-color:#D6BC4F"/>
		<stop  offset="0.6154" style="stop-color:#CEB02C"/>
		<stop  offset="0.8132" style="stop-color:#EDE5D5"/>
		<stop  offset="1" style="stop-color:#CEB02C"/>
	</linearGradient>
	<rect x="30.313" y="163.564" clip-path="url(#SVGID_8_)" fill="url(#SVGID_9_)" width="427.804" height="237.013"/>
</g>
<path fill="#FFFFFF" d="M452.09,282.012c0,63.333-98.513,108.823-208.99,108.823c-110.507,0-209.01-45.49-209.01-108.823
	c0-63.314,98.503-108.814,209.01-108.814C353.578,173.198,452.09,218.698,452.09,282.012"/>
<path fill="#CE9A2C" d="M287.351,195.886c91.914,7.266,160.107,38.969,160.107,77.346c0,22.443-23.597,42.701-61.464,57.042
	c20.041-14.16,25.368-32.645,25.368-51.038C411.363,239.349,362.826,206.998,287.351,195.886"/>
<path fill="#CE9A2C" d="M39.834,285.606c0-4.586,0.707-9.106,2.026-13.508c-0.137,1.223-0.213,2.461-0.213,3.672
	c0,43.496,89.281,78.759,199.453,78.759c58.554,0,111.213-9.966,147.714-25.858c-31.303,28.554-87.037,52.654-157.745,52.654
	C128.607,381.325,39.834,335.914,39.834,285.606"/>
<path fill="#CE9A2C" d="M201.754,274.078c0-16.584,13.433-30.014,29.968-30.014c16.585,0,30.013,13.43,30.013,30.014
	c0,16.543-13.428,29.974-30.013,29.974C215.187,304.052,201.754,290.621,201.754,274.078"/>
<path fill="#CE9A2C" d="M202.34,274.078c0.023,16.229,13.154,29.349,29.382,29.387c16.254-0.038,29.4-13.157,29.439-29.387
	c-0.039-16.258-13.186-29.401-29.439-29.428C215.494,244.677,202.363,257.82,202.34,274.078 M201.169,274.078
	c0-16.896,13.684-30.599,30.553-30.599c16.915,0,30.611,13.702,30.611,30.599c0,16.869-13.697,30.56-30.611,30.56
	C214.853,304.638,201.169,290.947,201.169,274.078"/>
<path fill="#FFFFFF" d="M213.14,274.078c0-10.278,8.336-18.604,18.583-18.604c10.296,0,18.607,8.325,18.607,18.604
	c0,10.264-8.312,18.589-18.607,18.589C221.476,292.667,213.14,284.342,213.14,274.078"/>
<path fill="#FFFFFF" d="M213.707,274.078c0.007,9.926,8.076,17.99,18.016,18.015c9.968-0.024,18.035-8.089,18.047-18.015
	c-0.012-9.953-8.079-18.029-18.047-18.055C221.783,256.049,213.713,264.125,213.707,274.078 M212.585,274.078
	c0-10.591,8.571-19.176,19.137-19.176c10.604,0,19.161,8.585,19.161,19.176c0,10.564-8.558,19.147-19.161,19.147
	C221.157,293.226,212.585,284.643,212.585,274.078"/>
<path fill="#CE9A2C" d="M222.714,275.562c0.139,1.59,0.052,0.405,0.592,1.59c0.186,0.392,2.553-3.542,2.888-3.803
	c0.625-0.482,3.354-1.016,4.114-1.108c2.117-0.272,7.158-7.881,4.016-3.998l-0.651,0.795c-1.789,0.702-1.469,1.94-3.365,2.475
	c-0.46,0.13-2.185,0.794-2.426,0.794C227.576,272.306,222.949,275.732,222.714,275.562"/>
<path fill="#BE7C2A" d="M226.775,273.021c1.056-0.39,2.901-0.729,3.533-0.819c1.531-0.171,4.77-4.494,4.989-4.989
	c-0.099,0.065-0.413,0.403-0.938,1.055l-0.686,0.782c-1.757,0.689-1.456,1.941-3.336,2.5c-0.489,0.13-2.188,0.796-2.455,0.796
	C227.78,272.346,227.38,272.632,226.775,273.021 M223.338,277.151l0.037,0.013c0.256,0.014,1.917-2.696,2.604-3.582
	c-1.352,0.898-2.941,1.993-3.227,2.033C222.88,277.14,222.805,275.927,223.338,277.151 M223.287,277.178
	c-0.521-1.185-0.465-0.014-0.605-1.616h0.033v-0.012h0.014c0.266,0,1.979-1.187,3.373-2.137c0.027-0.052,0.055-0.078,0.101-0.092
	c0.058-0.065,0.154-0.129,0.288-0.183c0.719-0.507,1.278-0.846,1.394-0.846c0.214,0,1.947-0.677,2.426-0.82
	c1.855-0.509,1.569-1.733,3.334-2.463l0.674-0.768c0.641-0.795,0.895-1.107,1.022-1.121c0,0,0.026,0.014,0.026,0.038
	c-0.026,0.302-3.396,4.872-5.058,5.108c-0.657,0.065-2.846,0.493-3.781,0.912c-0.127,0.104-0.251,0.193-0.4,0.285
	c-0.549,0.638-2.381,3.727-2.752,3.753h-0.037C223.338,277.218,223.307,277.191,223.287,277.178"/>
<path fill="#CE9A2C" d="M234.111,269.843c0.479-0.142,1.32-0.207,1.981-0.207c1.614,0,2.508,0.352,3.981,0.455
	c0.536,0.04,1.027,0.639,1.516,0.69c0-0.468,0.063-1.81,0.063-2.292l-3.208-0.547c-0.266,0.194-0.572,1.484-0.688,1.524
	c-0.406,0.169-1.392,0-1.973,0c-1.196,0-1.755,0.376-2.414,0.376H234.111z"/>
<path fill="#BE7C2A" d="M240.067,270.039c0.542,0.04,1.034,0.587,1.447,0.678c0-0.521,0.089-1.759,0.139-2.176l-3.177-0.573
	c-0.248,0.183-0.527,1.459-0.704,1.551c-0.141,0.052-0.352,0.077-0.579,0.077c-0.465,0-1.007-0.077-1.389-0.077
	c-0.771,0-1.292,0.144-1.718,0.272h0.025c0.482-0.142,1.293-0.221,1.981-0.221C237.727,269.57,238.642,269.922,240.067,270.039
	 M241.59,270.847c-0.561-0.078-1.021-0.677-1.554-0.702c-1.436-0.105-2.329-0.457-3.943-0.457c-0.658,0-1.499,0.104-1.954,0.209
	l-0.027-0.054v0.054h-0.74v-0.105c0.639,0,1.193-0.403,2.433-0.403c0.388,0,0.936,0.091,1.389,0.091
	c0.228,0,0.413-0.025,0.565-0.091c0,0.052,0.361-1.29,0.694-1.511l3.244,0.612c0,0.494-0.062,1.836-0.062,2.292v0.065H241.59z"/>
<path fill="#CE9A2C" d="M241.732,266.821c-0.248-0.599-0.186-1.419-0.751-1.419c-1.637,0-1.991-2.138-3.45-2.138
	c-1.228,0-2.869,1.733-4.028,2.046c1.254-0.352,2.342-1.682,3.508-1.682c0.654,0,1.287,0.719,1.725,1.069
	c0.609,0.509,1.469,0.431,2.075,0.926c0.596,0.521,0.936,1.954,0.821,2.853L241.732,266.821z"/>
<path fill="#CE9A2C" d="M226.589,261.182c0.801-1.159,4.308-2.604,6.612-1.823c1.452,0.468,3.098,1.276,3.418,3.021
	c0.166,0.794,0.733,1.785,1.427,1.028c0,0-2.446-3.595-3.393-3.972c-0.828-0.326-3.068,0.312-3.962,0.312
	c-1.462,0-3.07,0.065-3.961,0.639c-1.503,0.978-1.489,1.759-2.291,3.413c-1.103,2.357-3.087,3.738-3.087,7.295
	c0,0.65-0.141,1.198,0.069,1.693c0.661,1.692,1.26,4.65,2.56,5.483l0.012-0.402c-0.465-0.991-1.501-1.954-1.501-3.01
	c0-1.498,3.328-3.021,4.676-3.348l-1.653,0.495c-1.114,0.403-1.613,1.107-2.89,1.107c-0.585,0-0.84-0.704-0.84-1.212
	c-0.333,0-0.212-1.276-0.212-1.823c0-1.029,0.181-1.785,0.663-2.137c1.005-1.42,1.278-2.111,1.757-2.854
	c0.268-0.455,1.063-1.601,1.45-1.184c1.287,1.328,2.439,0.156,3.361,0.156c-2.143,0.469-2.515,0.051-3.888-0.652
	C224.769,263.344,226.73,261.247,226.589,261.182"/>
<path fill="#CE9A2C" d="M242.326,273.021c0,1.121-1.307,1.785-1.307,2.814c0,0.833,0.326,1.328,0.326,2.268
	c0,0.664-0.368,0.819-0.473,1.225c-0.246,0.925,1.541,5.797,1.166,4.883c-0.634-1.405-1.641-1.861-1.827-1.575
	c-0.661,1.068-1.862,4.547-2.977,5.016c0.756-1.329,3.055-4.508,3.055-6.369c0-1.069-1.077-1.187-0.784-2.605
	c0.197-0.913-1.889-0.026-1.75-1.134c0.181-1.108,0.594-1.252,0-3.244c-0.045-1.029-0.045,0.47,1.076,0.247
	c1.087,0.86,1.586,3.23,1.654,3.401c0.452-1.134,0.09-2.215,0.09-3.557c0.443-0.117,0.663-1.238,0.688-1.524l-1.662-2.384
	C240.071,271.185,242.326,271.811,242.326,273.021"/>
<path fill="#CE9A2C" d="M238.006,277.478c-0.586,1.121-1.767,2.527-1.973,3.856c-0.102,0.768-0.574,2.449-1.558,2.449
	c-0.689,0-1.387-0.835-2.038-0.835c-0.522,0-0.508,1.916-2.156,1.316c-0.244-0.117-1.813-1.72-2.12-2.098
	c-0.699-0.873-0.452-0.689-0.994-1.68c-0.177-0.419,0.085-1.524-0.094-2.006c-0.166-0.378-1.094-0.183-1.559-0.288
	c-1.148-0.313-1.369-2.278-2.456-2.749c-0.331,0.509-0.331,2.202-0.293,2.58c0.127,0.847,1.302,2.175,1.38,1.902
	c0.141-0.561,0.84-1.146,1.029-1.146c0.519,0,1.555-0.339,1.555,0.208c0,0.704-1.063,2.67-0.736,3.113
	c-0.326,0.912-0.479,1.564-0.479,2.541c0,1.433,0.934,2.409,2.068,2.409c-0.161-0.169-0.922-0.833-0.922-1.146
	c0-0.326,0.069-0.729,0.368-0.729c0.967,0,2.24,1.407,2.602,2.031c0.179,0.247,1.7,1.225,2.12,1.225
	c1.025,0,1.489-0.926,1.922-0.926c0.244,0,1.638-0.468,1.638-0.468c0.748,0,0.554-0.561,1.149-0.379
	c0.324-0.116,0.439-0.441,0.554-0.625c0.497-0.924,2.146-0.858,2.146-1.836c-1.847-0.157-1.881-1.146-1.881-2.865
	c0-0.561,0.727-2.997,0.727-2.997V277.478z"/>
<path fill="#CE9A2C" d="M228.654,272.697c1.267,0.482,2.222,0.807,3.935,0.807c1.494,0,1.742-0.39,1.894-1.445l2.979,1.902
	c-0.104,0.299-0.186,0.65-0.452,0.65c-0.434,0-1.076-0.403-1.207-0.65c-0.703,0.338-1.047,0.808-1.767,0.808
	c-0.669,0-1.287-0.808-2.195-0.808c-1.268,0-1.469,0.573-2.215,0.573c-0.527,0-1.476-0.899-2.048-1.03
	c-0.587-0.143-1.18,0.157-1.382-0.155c0.368-0.286,1.654-0.86,2.136-0.86C228.513,272.488,228.654,272.697,228.654,272.697"/>
<path fill="#BE7C2A" d="M232.217,279.105c-0.388,0-0.828,0-1.041-0.117l-0.139-0.689l0.085-0.065l0.121,0.689
	c0.146,0.052,0.585,0.065,0.974,0.065h0.445c0.195,0,0.288-0.183,0.288-0.547c0-0.613-0.261-1.576-0.261-2.071
	c0-1.12,0.261-1.237,0.261-1.667c0-0.144-0.041-0.326-0.114-0.601h0.008l0.105-0.024c0.06,0.299,0.08,0.468,0.08,0.625
	c0,0.494-0.228,0.561-0.228,1.667c0,0.443,0.241,1.446,0.241,2.071c0,0.364-0.065,0.664-0.381,0.664H232.217z"/>
<path fill="#CE9A2C" d="M228.165,282.167c0.094-0.547,1.687-1.538,2.222-1.538c0.732,0,0.744,0.313,1.452,0.313
	c0.895,0,0.895-0.352,1.735-0.352c0.746,0,1.547,0.248,2.126,0.443c-0.599-0.509-0.679-1.056-1.586-1.407
	c-0.572-0.234-0.875-0.378-1.476-0.573c-0.211-0.065-0.758-0.208-0.758-0.208c0,0.025-0.895,0.3-0.895,0.3
	C230.22,279.523,228.573,281.32,228.165,282.167"/>
<path fill="#CE9A2C" d="M234.19,271.212c0.089-0.392,0.406-0.651,0.75-0.651c0.567,0,1.045,0.482,1.357,0.651
	c1.169,0.612,2.349,0.859,2.762,2.071c-0.954-1.212-2.334-1.941-3.85-2.319c-0.025,0.534,0.03,0.443,0.127,0.781h-0.396
	C234.355,271.693,234.464,271.146,234.19,271.212"/>
<path fill="#CE9A2C" d="M222.525,278.337c0,0.729,0,1.615,0.228,2.071v2.085c0.306,0.964,0.065,2.618,0.719,3.491l0.134-1.277
	c-0.272-0.898-0.388-1.302-0.708-2.214v-2.085l-0.29-3.881c0-0.286,0.463,0.234,0.57,0.064
	C222.945,277.205,222.525,277.583,222.525,278.337"/>
<path fill="#CE9A2C" d="M237.317,276.93c-0.681,0.703-1.101,1.212-1.854,1.655C236.254,278.142,237.189,277.894,237.317,276.93"/>
<path fill="#BE7C2A" d="M236.134,278.168c0.509-0.261,0.956-0.561,1.094-1.068C236.848,277.504,236.515,277.855,236.134,278.168
	 M235.435,278.547c0.761-0.443,1.16-0.978,1.839-1.644l0.095-0.142v0.182c-0.127,0.964-1.114,1.25-1.889,1.693L235.435,278.547z"/>
<path fill="#CE9A2C" d="M228.12,278.74c0.214,0.612,0.313,1.043,0.865,1.225C228.732,279.432,228.5,279.028,228.12,278.74"/>
<path fill="#BE7C2A" d="M228.093,278.78l0.039-0.04L228.093,278.78z M228.871,279.861c-0.177-0.378-0.375-0.703-0.637-0.938
	C228.393,279.366,228.497,279.692,228.871,279.861 M228.985,280.005c-0.599-0.157-0.692-0.652-0.927-1.251l-0.047-0.155l0.141,0.104
	c0.375,0.3,0.605,0.716,0.894,1.225l0.028,0.117L228.985,280.005z"/>
<path fill="#CE9A2C" d="M236.189,261.351c0,0.664,0.161,0.795-0.406,0.795c-0.592,0-1.813-0.743-2.361-0.743
	c-0.694,0-0.994,1.107-1.273,1.445c-0.654,0.809-2.14,2.071-3.296,2.319c1.194-0.248,2.041-1.185,2.735-1.759
	c0.686-0.508,1-1.497,2.081-1.497c0.552,0,0.74,0.079,0.74,0.547c0,0.95-0.787,0.612-0.987,1.342h0.381
	c0.661-0.664,2.674-1.485,2.674-2.397C236.477,261.168,236.254,261.402,236.189,261.351"/>
<path fill="#FFFFFF" d="M223.71,294.034c-1.896,2.67-3.181,4.376-3.482,4.755l-1.305-0.196l-0.248,0.248
	c0.667,0.261,1.325,0.547,1.974,0.808c0.617,0.261,1.221,0.521,1.813,0.795l0.254-0.234l-1.094-0.821
	c0.166-0.286,3.373-4.924,3.92-5.691l-0.139-0.039c-1.114-0.13-2.408-0.34-2.655-0.34l-0.224,0.21L223.71,294.034z"/>
<path fill="#FFFFFF" d="M229.982,294.529c-1.572-0.248-2.832,0.873-3.031,2.227c-0.176,1.342,0.625,2.085,1.521,2.215
	c0.385,0.04,0.938-0.038,1.377-0.261l0.043,0.026c-0.354,0.572-1.036,1.369-1.922,1.876c-0.947,0.509-1.566,0.65-1.979,0.756
	l0.11,0.352c0.85,0,2.11-0.183,3.21-0.808c1.651-0.938,2.313-2.228,2.466-3.49c0.203-1.551-0.447-2.684-1.789-2.893H229.982z
	 M229.917,294.945c0.467,0.065,0.726,0.612,0.605,1.733c-0.104,0.638-0.273,1.159-0.472,1.576c-0.234,0.144-0.541,0.155-0.768,0.117
	c-0.532-0.079-1.027-0.586-0.894-1.603c0.134-1.002,0.773-1.941,1.502-1.824H229.917z"/>
<path fill="#FFFFFF" d="M237.658,294.191c-0.93,0.104-2.361,0.702-3.386,1.718c-1.208,1.187-1.606,2.58-1.502,3.831
	c0.134,1.667,1.121,2.526,2.442,2.396c1.675-0.145,2.635-1.524,2.521-2.904c-0.121-1.342-0.987-1.824-1.802-1.747
	c-0.472,0.04-0.98,0.274-1.56,0.756h-0.013c0.161-0.859,0.599-1.771,1.509-2.566c0.833-0.742,1.598-1.042,1.931-1.146
	L237.658,294.191z M235.239,301.72c-0.574,0.038-0.967-0.547-1.014-1.589c-0.081-0.534,0-1.095,0.047-1.342
	c0.318-0.313,0.712-0.482,0.999-0.508c0.484-0.04,0.942,0.208,1.029,1.198C236.405,300.457,235.932,301.654,235.239,301.72"/>
<path fill="#FFFFFF" d="M243.266,297.721l0.413-0.168c0.141,0.221,0.32,0.414,0.454,0.545l0.162-0.131
	c0.045-0.193,0.045-1.563,0-1.797l-0.139,0.041c-0.157,0.193-0.316,0.441-0.529,0.885l-0.361,0.143l-0.4-4.846
	c-0.473,0.234-1.134,0.599-1.28,0.743c-0.301,0.392-1.88,4.259-2.287,5.745l0.306,0.272l2.433-0.912
	c0.055,0.77,0.055,1.394,0.055,1.604l-0.826,0.664v0.338c0.503-0.208,1.059-0.39,1.579-0.599c0.507-0.183,0.994-0.339,1.494-0.508
	l0.027-0.326l-0.922-0.026L243.266,297.721z M241.979,297.708c-0.688,0.221-1.414,0.468-1.838,0.585
	c0.438-1.537,0.731-2.37,1.629-4.636h0.057L241.979,297.708z"/>
<path fill="#FFFFFF" d="M205.787,274.078c0-14.355,11.612-25.963,25.939-25.963c14.345,0,25.984,11.607,25.984,25.963
	c0,8.179-3.798,15.448-9.705,20.217l-0.967-1.187c5.582-4.48,9.145-11.345,9.145-19.03c-0.03-13.522-10.952-24.426-24.457-24.452
	c-13.493,0.026-24.418,10.93-24.418,24.452c0,8.258,4.154,15.565,10.437,19.969h0.02l-0.892,1.264
	C210.208,290.609,205.787,282.845,205.787,274.078"/>
<g>
	<defs>
		<polygon id="SVGID_10_" points="340.785,231.924 340.785,250.044 349.579,249.014 349.579,319.463 365.145,322.511 
			365.145,247.165 376.471,245.731 376.471,226.583 376.453,226.583 		"/>
	</defs>
	<clipPath id="SVGID_11_">
		<use xlink:href="#SVGID_10_"  overflow="visible"/>
	</clipPath>
	
		<linearGradient id="SVGID_12_" gradientUnits="userSpaceOnUse" x1="-21.1045" y1="633.1152" x2="-14.4357" y2="633.1152" gradientTransform="matrix(2.6818 4.1935 -4.1935 2.6818 3066.7668 -1340.188)">
		<stop  offset="0" style="stop-color:#EB2227"/>
		<stop  offset="0.5055" style="stop-color:#A71D39"/>
		<stop  offset="1" style="stop-color:#A71D39"/>
	</linearGradient>
	<polygon clip-path="url(#SVGID_11_)" fill="url(#SVGID_12_)" points="297.246,254.421 351.141,338.703 420.005,294.659 
		366.109,210.385 	"/>
</g>
<path fill="#D3B42D" d="M353.03,316.674l8.702,1.682V244.13l11.326-1.42v-12.14l-28.867,4.298v11.345l8.839-1.054V316.674z
	 M349.579,319.475v-70.461l-8.794,1.03v-16.648v-1.483l35.687-5.343v19.162l-11.326,1.408v75.371L349.579,319.475z"/>
<g>
	<defs>
		<path id="SVGID_13_" d="M176.249,288.524v-9.953h10.085c0,0,0.065,7.804,0,11.619c-0.089,3.011-2.977,3.152-4.722,3.337
			c-0.604,0.063-1.234,0.142-1.864,0.142C177.928,293.669,176.255,292.928,176.249,288.524 M164.889,248.167
			c0.03,11.022-0.039,44.395,0.115,49.541c0.292,10.824,3.162,9.651,14.96,7.281c18.467-3.713,17.354-0.572,17.354-22.548V269.91
			l-21.07-0.014v-14.539c0.007-2.227,3.135-1.394,5.771-1.094c4.647,0.535,3.808,1.877,3.794,7.751l11.505-0.024
			c-0.102-18.942,1.374-16.075-13.294-18.459c-3.282-0.574-5.835-0.978-8.491-1.394c-2.322-0.365-4.25-0.704-5.777-0.704
			C166.43,241.434,164.85,242.867,164.889,248.167"/>
	</defs>
	<clipPath id="SVGID_14_">
		<use xlink:href="#SVGID_13_"  overflow="visible"/>
	</clipPath>
	
		<linearGradient id="SVGID_15_" gradientUnits="userSpaceOnUse" x1="-35.7822" y1="657.4111" x2="-29.1124" y2="657.4111" gradientTransform="matrix(2.2629 4.7443 -4.7443 2.2629 3377.8938 -1050.8906)">
		<stop  offset="0" style="stop-color:#EB2227"/>
		<stop  offset="0.5934" style="stop-color:#A71D39"/>
		<stop  offset="1" style="stop-color:#A71D39"/>
	</linearGradient>
	<polygon clip-path="url(#SVGID_14_)" fill="url(#SVGID_15_)" points="138.777,253.874 171.123,321.689 224.762,296.105 
		192.42,228.289 	"/>
</g>
<g>
	<defs>
		<path id="SVGID_16_" d="M176.249,288.524v-9.953h10.085c0,0,0.065,7.804,0,11.619c-0.089,3.011-2.977,3.152-4.722,3.337
			c-0.604,0.063-1.234,0.142-1.864,0.142C177.928,293.669,176.255,292.928,176.249,288.524 M164.889,248.167
			c0.03,11.022-0.039,44.395,0.115,49.541c0.292,10.824,3.162,9.651,14.96,7.281c18.467-3.713,17.354-0.572,17.354-22.548V269.91
			l-21.07-0.014v-14.539c0.007-2.227,3.135-1.394,5.771-1.094c4.647,0.535,3.808,1.877,3.794,7.751l11.505-0.024
			c-0.102-18.942,1.374-16.075-13.294-18.459c-3.282-0.574-5.835-0.978-8.491-1.394c-2.322-0.365-4.25-0.704-5.777-0.704
			C166.43,241.434,164.85,242.867,164.889,248.167"/>
	</defs>
	<clipPath id="SVGID_17_">
		<use xlink:href="#SVGID_16_"  overflow="visible"/>
	</clipPath>
	
		<linearGradient id="SVGID_18_" gradientUnits="userSpaceOnUse" x1="-36.0596" y1="659.6191" x2="-29.3895" y2="659.6191" gradientTransform="matrix(1.9765 4.1438 -4.1438 1.9765 2981.595 -889.2539)">
		<stop  offset="0" style="stop-color:#EB2227"/>
		<stop  offset="0.5934" style="stop-color:#A71D39"/>
		<stop  offset="1" style="stop-color:#A71D39"/>
	</linearGradient>
	<polygon clip-path="url(#SVGID_17_)" fill="url(#SVGID_18_)" points="138.777,253.874 171.123,321.689 224.762,296.105 
		192.42,228.289 	"/>
</g>
<path fill="#D3B42D" d="M177.935,288.524c0,2.006,0.44,2.864,0.674,3.125c0.199,0.21,0.433,0.313,1.132,0.326
	c0.454,0.014,1.056-0.064,1.695-0.155c0.913-0.078,1.92-0.171,2.447-0.47c0.541-0.3,0.643-0.286,0.728-1.198
	c0.025-1.25,0.047-2.932,0.047-4.651c0-1.94-0.022-3.881-0.022-5.21h-6.702V288.524 M179.617,303.31
	c4.694-0.964,8.145-1.459,10.505-2.02c2.413-0.534,3.582-1.121,4.143-1.876c0.447-0.533,0.758-1.29,0.98-2.658
	c0.313-1.783,0.386-4.494,0.386-8.323c0-1.642-0.006-3.53-0.006-5.613v-0.378v-10.813l-17.689-0.012v3.725v1.537h8.399h1.693v1.669
	c0,0,0.04,3.477,0.04,6.954c0,1.72,0,3.427-0.04,4.729c0.04,2.072-1.354,3.713-2.708,4.233c-1.359,0.612-2.68,0.664-3.502,0.77
	c-0.579,0.052-1.293,0.143-2.075,0.143c-1.132,0.026-2.646-0.248-3.716-1.498c-1.057-1.237-1.465-2.971-1.484-5.354
	c0-1.513-0.02-4.561-0.02-8.233v-10.395v-1.706c0.02-4.964,0.02-9.692,0.039-12.846c-0.081-0.989,0.495-2.135,1.362-2.63
	c0.86-0.509,1.642-0.548,2.401-0.574c1.318,0,2.706,0.3,3.881,0.416c1.782,0.248,3.155,0.482,4.281,1.63
	c1.053,1.225,1.094,2.578,1.108,3.985c0,0.664-0.014,1.328-0.055,2.123l8.086-0.012v-0.326c0-1.785,0.006-3.321,0.006-4.663
	c0-2.867-0.074-4.86-0.303-6.123c-0.25-1.29-0.503-1.616-0.912-1.928c-0.847-0.77-4.295-1.08-10.664-2.019
	c-3.296-0.574-5.817-0.978-8.484-1.395c-2.335-0.404-4.228-0.69-5.511-0.69c-1.446,0.026-1.993,0.272-2.324,0.716
	c-0.415,0.471-0.85,1.759-0.841,4.222v0.013v0.052v0.025c0.04,11.022-0.008,44.435,0.112,49.462
	c0.054,2.488,0.286,4.287,0.621,5.354c0.401,1.094,0.708,1.394,1.18,1.616c0.334,0.155,0.895,0.272,1.68,0.272
	C172.068,304.898,175.236,304.194,179.617,303.31 M167.072,307.725c-0.969-0.441-1.776-1.236-2.315-2.148
	c-1.079-1.916-1.338-4.352-1.465-7.855c-0.127-5.171-0.057-38.414-0.127-49.514v-0.13c0.019-2.774,0.382-4.794,1.593-6.358
	c1.24-1.549,3.169-2.006,5.001-1.979c1.736,0,3.736,0.338,6.051,0.702c2.654,0.431,5.188,0.835,8.502,1.394
	c3.514,0.588,6.083,0.822,8.109,1.187c1.964,0.378,3.639,0.833,4.857,2.227c0.806,0.914,1.22,2.058,1.416,3.336
	c0.306,1.707,0.351,3.792,0.351,6.709c0,1.354-0.018,2.892-0.018,4.663c0,0.65,0,1.315,0.018,2.02v1.693l-14.93,0.052v-1.707
	c0-1.641,0.052-2.904,0.052-3.843c0-0.638-0.027-1.067-0.065-1.328c-0.088-0.286-0.12-0.326-0.141-0.352
	c0-0.026-0.508-0.378-2.143-0.535c-1.325-0.156-2.692-0.403-3.493-0.403c-0.154,0-0.261,0.014-0.333,0.038
	c-0.055,3.127-0.055,7.752-0.055,12.599l21.109,0.024v14.24c0,0.117-0.018,0.245-0.018,0.364c0,2.083,0.018,3.945,0.018,5.613
	c0,3.856-0.045,6.644-0.432,8.884c-0.319,2.201-1.141,4.052-2.7,5.25c-3.137,2.332-7.405,2.384-15.596,4.104
	c-4.407,0.86-7.536,1.602-10.132,1.629C169.083,308.299,168.045,308.154,167.072,307.725"/>
<path fill="#EB2227" d="M175.16,236.548l-0.352,4.208l5.99,0.938l5.601,0.781l0.332-2.229c0,0-0.231-2.317-0.524-2.409
	c-0.289-0.104-4.91-0.717-4.91-0.717L175.16,236.548z"/>
<path fill="#D3B42D" d="M175.64,240.562l9.724,1.614l0.032-3.217c-0.465,0.052-0.94,0.076-1.418,0.076
	c-1.011,0-2.043-0.09-3.124-0.272c-1.916-0.34-3.672-0.859-5.213-1.576V240.562z M172.21,243.479l0.075-13.171l2.807,2.488
	c1.153,1.056,3.607,2.175,6.314,2.604c0.922,0.131,1.769,0.196,2.57,0.196c1.045,0,1.974-0.104,2.653-0.313l2.208-0.639
	l-0.094,11.556L172.21,243.479z"/>
<g>
	<defs>
		<path id="SVGID_19_" d="M88.863,228.303v94.442l0.007,0.038l26.264-5.145c4.83-1.121,6.143-3.296,5.969-11.295v-20.503
			c-0.038-7.047,0.529-9.627-3.748-13.08c2.715-1.992,3.237-4.636,3.748-9.521c0.301-5.874,0-13.769,0-20.751
			c-0.038-4.43,0.301-8.949-6.249-10.069l-25.984-4.116H88.863z"/>
	</defs>
	<clipPath id="SVGID_20_">
		<use xlink:href="#SVGID_19_"  overflow="visible"/>
	</clipPath>
	
		<linearGradient id="SVGID_21_" gradientUnits="userSpaceOnUse" x1="-42.8657" y1="669.2402" x2="-36.1963" y2="669.2402" gradientTransform="matrix(2.5997 4.3265 -4.3265 2.5997 3110.5967 -1281.4316)">
		<stop  offset="0" style="stop-color:#EB2227"/>
		<stop  offset="0.5" style="stop-color:#A71D39"/>
		<stop  offset="1" style="stop-color:#A71D39"/>
	</linearGradient>
	<polygon clip-path="url(#SVGID_20_)" fill="url(#SVGID_21_)" points="47.153,253.365 97.555,337.244 163.343,297.721 
		112.938,213.833 	"/>
</g>
<path fill="#D3B42D" d="M104.15,302.839c1.934-0.207,3.127-0.286,3.328-0.403c0-0.024,0.052-0.104,0.078-0.247
	c0.101-0.39,0.183-1.302,0.183-2.695c0-0.835-0.03-1.891-0.062-3.113c-0.052-3.544-0.02-6.124-0.052-7.999
	c0-1.862-0.147-2.997-0.274-3.335c0-0.013,0-0.038-0.025-0.038c-0.014-0.027-0.069-0.027-0.116-0.054
	c-0.177-0.025-0.494-0.052-0.895-0.052c-0.561,0-1.287,0.026-2.165,0.052V302.839z M100.713,281.581h1.695h0.373
	c1.427,0,2.56-0.092,3.533-0.092c0.974,0.026,1.942,0.026,2.951,0.678c1.039,0.664,1.433,1.785,1.586,2.841
	c0.326,2.175,0.152,5.327,0.252,11.32c0.027,1.225,0.027,2.265,0.027,3.165c0,1.472-0.027,2.54-0.248,3.53
	c-0.186,0.95-0.912,2.031-1.872,2.447c-1.802,0.77-3.321,0.522-6.324,1.004l-0.261-1.693l0.261,1.693l-1.975,0.286V281.581z"/>
<path fill="#D3B42D" d="M105.623,265.038c0.647,0,1.143-0.054,1.474-0.092c0.333-0.052,0.434-0.104,0.434-0.104v-0.027
	c0.013-0.052,0.082-0.209,0.127-0.561c0.082-0.468,0.121-1.237,0.121-2.188c0-1.432-0.075-3.386-0.075-5.966
	c0-1.889,0.037-3.399,0.037-4.61c0-1.473-0.062-2.488-0.183-3.021c-0.113-0.561-0.127-0.432-0.127-0.471
	c-0.038-0.117-1.198-0.3-3.279-0.547v17.573C104.704,265.024,105.189,265.038,105.623,265.038 M102.375,268.385l-1.655-0.091
	l-0.007-22.797v-1.966l1.961,0.286c1.775,0.247,3.068,0.364,4.181,0.533c1.063,0.169,2.143,0.365,3.068,1.329
	c0.572,0.601,0.863,1.382,0.997,2.111c0.211,1.028,0.211,2.149,0.211,3.699v4.61c0,2.54,0.062,4.431,0.062,5.966
	c-0.015,1.576-0.015,2.725-0.423,3.87c-0.372,1.146-1.593,2.109-2.712,2.306c-0.781,0.183-1.547,0.195-2.436,0.195
	C104.704,268.438,103.635,268.411,102.375,268.385"/>
<path fill="#D3B42D" d="M88.592,229.957l0.281-1.681L88.592,229.957z M90.563,320.66l24.216-4.728
	c2.082-0.522,2.986-1.056,3.589-1.994c0.626-0.991,1.039-2.892,1.014-6.214c0-0.429,0-0.885-0.026-1.433v-20.438v-0.144
	c0-1.407,0.026-2.632,0.026-3.699c0-2.15-0.108-3.596-0.495-4.69c-0.392-1.08-1.052-1.98-2.611-3.257l-1.75-1.394l1.802-1.302
	c1.112-0.821,1.648-1.63,2.106-2.88c0.453-1.237,0.708-3.036,0.922-5.419c0.114-1.889,0.159-4.038,0.159-6.306
	c0-4.532-0.159-9.6-0.159-14.276v-0.064v-1.069c0-2.006-0.082-3.737-0.681-4.858c-0.579-1.081-1.456-1.914-4.074-2.409
	l-24.023-3.818L90.563,320.66z M87.154,228.265v-2.008l27.977,4.455c3.336,0.521,5.556,2.123,6.619,4.26
	c1.012,2.071,1.012,4.312,1.039,6.383v1.069l0,0v0.052c0,4.598,0.142,9.665,0.142,14.289c0,2.333-0.061,4.521-0.142,6.526v0.053
	v0.026c-0.251,2.461-0.492,4.469-1.114,6.239c-0.39,1.147-0.987,2.201-1.804,3.127c1.052,1.08,1.804,2.201,2.247,3.438
	c0.612,1.773,0.692,3.636,0.692,5.838c0,1.094-0.021,2.316-0.021,3.699v0.104v20.451c0.021,0.495,0.021,0.977,0.021,1.459
	c-0.021,3.517-0.321,6.02-1.533,8.023c-1.254,2.021-3.329,2.958-5.745,3.519h-0.045l-28.333,5.536V228.265z"/>
<path fill="#FFFFFF" d="M102.96,246.37l3.756,0.131l1.591,1.445l1.285,6.058l-0.274,2.448l-0.585,5.797l-1.01,3.165l-2.464,0.275
	l-1.571,0.272c0,0-1.312-0.86-1.312-1.288C102.375,264.255,102.96,246.37,102.96,246.37"/>
<path fill="#D3B42D" d="M105.623,265.038c0.647,0,1.143-0.054,1.474-0.092c0.333-0.052,0.434-0.104,0.434-0.104v-0.027
	c0.013-0.052,0.082-0.209,0.127-0.561c0.082-0.468,0.121-1.237,0.121-2.188c0-1.432-0.075-3.386-0.075-5.966
	c0-1.889,0.037-3.399,0.037-4.61c0-1.473-0.062-2.488-0.183-3.021c-0.113-0.561-0.127-0.432-0.127-0.471
	c-0.038-0.117-1.198-0.3-3.279-0.547v17.573C104.704,265.024,105.189,265.038,105.623,265.038 M102.375,268.385l-1.655-0.091
	l-0.007-22.797v-1.966l1.961,0.286c1.775,0.247,3.068,0.364,4.181,0.533c1.063,0.169,2.143,0.365,3.068,1.329
	c0.572,0.601,0.863,1.382,0.997,2.111c0.211,1.028,0.211,2.149,0.211,3.699v4.61c0,2.54,0.062,4.431,0.062,5.966
	c-0.015,1.576-0.015,2.725-0.423,3.87c-0.372,1.146-1.593,2.109-2.712,2.306c-0.781,0.183-1.547,0.195-2.436,0.195
	C104.704,268.438,103.635,268.411,102.375,268.385"/>
<polygon fill="#FFFFFF" points="103.242,284.459 106.716,284.316 107.722,285.606 109.158,289.045 108.605,295.558 108.308,300.898 
	107.856,302.918 104.533,303.777 103.101,303.777 "/>
<path fill="#D3B42D" d="M104.15,302.839c1.934-0.207,3.127-0.286,3.328-0.403c0-0.024,0.052-0.104,0.078-0.247
	c0.101-0.39,0.183-1.302,0.183-2.695c0-0.835-0.03-1.891-0.062-3.113c-0.052-3.544-0.02-6.124-0.052-7.999
	c0-1.862-0.147-2.997-0.274-3.335c0-0.013,0-0.038-0.025-0.038c-0.014-0.027-0.069-0.027-0.116-0.054
	c-0.177-0.025-0.494-0.052-0.895-0.052c-0.561,0-1.287,0.026-2.165,0.052V302.839z M100.713,281.581h1.695h0.373
	c1.427,0,2.56-0.092,3.533-0.092c0.974,0.026,1.942,0.026,2.951,0.678c1.039,0.664,1.433,1.785,1.586,2.841
	c0.326,2.175,0.152,5.327,0.252,11.32c0.027,1.225,0.027,2.265,0.027,3.165c0,1.472-0.027,2.54-0.248,3.53
	c-0.186,0.95-0.912,2.031-1.872,2.447c-1.802,0.77-3.321,0.522-6.324,1.004l-0.261-1.693l0.261,1.693l-1.975,0.286V281.581z"/>
<g>
	<defs>
		<path id="SVGID_22_" d="M131.662,233.761c-1.992,0-3.647,0.873-4.673,2.071c-1.087,1.225-1.636,2.696-1.723,4.143v0.026v77.156
			v0.012l16.267-3.218v-1.406v-29.35h4.064v30.066l15.173-2.919v-65.235v-0.079c-0.189-3.674-2.374-7.047-6.179-7.868l-0.083-0.012
			l-22.138-3.361h-0.054c-0.208-0.026-0.42-0.026-0.647-0.026H131.662z"/>
	</defs>
	<clipPath id="SVGID_23_">
		<use xlink:href="#SVGID_22_"  overflow="visible"/>
	</clipPath>
	
		<linearGradient id="SVGID_24_" gradientUnits="userSpaceOnUse" x1="-41.8789" y1="666.8008" x2="-35.2099" y2="666.8008" gradientTransform="matrix(2.4244 3.6768 -3.6768 2.4244 2692.2742 -1193.2424)">
		<stop  offset="0" style="stop-color:#EB2227"/>
		<stop  offset="0.5" style="stop-color:#A71D39"/>
		<stop  offset="1" style="stop-color:#A71D39"/>
	</linearGradient>
	<polygon clip-path="url(#SVGID_23_)" fill="url(#SVGID_24_)" points="86.936,259.032 136.025,333.479 199.101,291.884 
		150.01,217.441 	"/>
</g>
<path fill="#D3B42D" d="M128.692,313.001l9.435-1.863l-0.02-31.366h10.88l0.034,29.36l8.33-1.602v-62.294
	c-0.234-2.617-1.374-4.193-3.448-4.729l-21.904-3.334h-0.333c-0.999,0-1.621,0.364-2.133,0.951c-0.495,0.521-0.788,1.329-0.84,2.018
	V313.001z M125.269,240.013v-0.025c0.087-1.459,0.632-2.931,1.72-4.143c1.029-1.237,2.702-2.109,4.676-2.084
	c0.228,0,0.44,0,0.654,0.026h0.047l22.141,3.348l0.08,0.025c3.808,0.821,5.997,4.181,6.176,7.882v0.065v65.249l-15.173,2.905
	v-30.066h-4.061v29.362h-1.681h1.681v1.407l-16.26,3.192V240.013z"/>
<path fill="#D3B42D" d="M140.924,251.346l0.069-0.795l0.451-1.666l-0.451,1.666L140.924,251.346z M145.586,266.223v-13.391
	l-4.054-0.496v13.887H145.586z M140.993,269.649c-0.763-0.027-1.19-0.274-1.737-0.64c-0.458-0.338-1.108-0.95-1.133-2.084v-15.371
	l-0.02-0.038c0.02-0.171,0-0.64,0.248-1.29c0.199-0.704,1.228-1.551,2.222-1.459c0.259,0,0.52,0.025,0.737,0.091l5.016,0.639
	c0.623,0.052,1.01,0.26,1.502,0.572c0.488,0.364,1.151,0.966,1.188,2.137v14.72c-0.087,0.951-0.426,1.342-0.87,1.823
	c-0.427,0.47-1.126,0.887-2.038,0.9H140.993z"/>
<polygon fill="#FFFFFF" points="141.533,252.35 145.586,252.832 145.586,266.223 141.533,266.223 "/>
<g>
	<defs>
		<path id="SVGID_25_" d="M294.157,239.427c-0.54,0-1.101,0.065-1.706,0.183l-27.941,4.246v59.337l19.689,3.868
			c4.337,0.951,7.36,1.537,9.751,1.537c1.549,0,2.956-0.261,4.108-1.146c1.714-1.394,2.045-3.44,2.223-5.824
			c0.193-2.448,0.09-5.534,0.169-9.613v-44.537c0-1.211-0.169-3.01-0.991-4.728c-0.768-1.682-2.611-3.323-5.157-3.323
			C294.236,239.427,294.184,239.427,294.157,239.427"/>
	</defs>
	<clipPath id="SVGID_26_">
		<use xlink:href="#SVGID_25_"  overflow="visible"/>
	</clipPath>
	
		<linearGradient id="SVGID_27_" gradientUnits="userSpaceOnUse" x1="-29.7285" y1="642.2373" x2="-23.0584" y2="642.2373" gradientTransform="matrix(2.2489 5.3237 -5.3237 2.2489 3764.6821 -1020.9551)">
		<stop  offset="0" style="stop-color:#EB2227"/>
		<stop  offset="0.5934" style="stop-color:#A71D39"/>
		<stop  offset="1" style="stop-color:#A71D39"/>
	</linearGradient>
	<polygon clip-path="url(#SVGID_26_)" fill="url(#SVGID_27_)" points="239.712,249.9 269.955,321.494 325.271,298.124 
		295.031,226.545 	"/>
</g>
<g>
	<defs>
		<path id="SVGID_28_" d="M294.157,239.427c-0.54,0-1.101,0.065-1.706,0.183l-27.941,4.246v59.337l19.689,3.868
			c4.337,0.951,7.36,1.537,9.751,1.537c1.549,0,2.956-0.261,4.108-1.146c1.714-1.394,2.045-3.44,2.223-5.824
			c0.193-2.448,0.09-5.534,0.169-9.613v-44.537c0-1.211-0.169-3.01-0.991-4.728c-0.768-1.682-2.611-3.323-5.157-3.323
			C294.236,239.427,294.184,239.427,294.157,239.427"/>
	</defs>
	<clipPath id="SVGID_29_">
		<use xlink:href="#SVGID_28_"  overflow="visible"/>
	</clipPath>
	
		<linearGradient id="SVGID_30_" gradientUnits="userSpaceOnUse" x1="-28.8608" y1="642.2422" x2="-22.1925" y2="642.2422" gradientTransform="matrix(2.077 4.9168 -4.9168 2.077 3497.1765 -925.2322)">
		<stop  offset="0" style="stop-color:#EB2227"/>
		<stop  offset="0.5934" style="stop-color:#A71D39"/>
		<stop  offset="1" style="stop-color:#A71D39"/>
	</linearGradient>
	<polygon clip-path="url(#SVGID_29_)" fill="url(#SVGID_30_)" points="239.712,249.9 269.955,321.494 325.271,298.124 
		295.031,226.545 	"/>
</g>
<path fill="#FFFFFF" d="M277.927,256.4l8.661-0.938l0.58,8.923v16.817l-0.085,9.888c0,0-1.218,1.862-3.725,1.719
	c-2.534-0.129-5.999-1.655-5.999-1.655L277.927,256.4z"/>
<path fill="#D3B42D" d="M278.943,290.27l6.708,1.42c0.046-0.378,0.052-0.846,0.052-1.328c0-0.626-0.006-1.278-0.006-1.863
	l0.02-29.921c0-0.495,0.019-0.952,0.019-1.355c0-0.34-0.019-0.612-0.032-0.86c-1.354,0.221-4.578,0.689-6.604,0.991
	c-0.053,0-0.092,0.013-0.156,0.024V290.27z M286.772,295.376c-0.112,0-0.184,0-0.223-0.014h-0.085l-10.941-2.317V254.25l1.629-0.104
	h0.091c0.071,0,0.195-0.025,0.313-0.038c0.279-0.039,0.645-0.065,1.063-0.145c0.847-0.117,1.947-0.299,3.015-0.455
	c2.144-0.299,4.208-0.612,4.208-0.612l0.259,1.668l-0.187-1.668c0.104-0.026,0.254-0.026,0.403-0.026
	c0.533-0.038,1.159,0.117,1.634,0.522c0.516,0.402,0.809,0.911,0.9,1.328c0.305,0.859,0.298,1.641,0.305,2.501
	c0,0.43-0.007,0.86-0.007,1.355l-0.031,29.921c0,0.561,0.006,1.211,0.006,1.863c-0.006,1.185,0,2.252-0.299,3.283
	c-0.093,0.351-0.248,0.768-0.75,1.249c-0.299,0.272-0.781,0.482-1.263,0.482H286.772z M267.935,300.378l16.974,3.348
	c4.272,0.95,7.23,1.459,9.041,1.459c1.191,0,1.731-0.207,1.992-0.416c0.248-0.183,0.527-0.574,0.75-1.564
	c0.383-1.941,0.259-5.744,0.338-11.229v-44.498c0-0.859-0.155-2.253-0.645-3.179c-0.535-0.964-0.932-1.38-2.229-1.432
	c-0.299,0-0.637,0.038-1.042,0.117h-0.031l-25.148,3.829V300.378z M284.206,307.061l-19.703-3.868v-57.864v-1.484l27.948-4.221
	c0.605-0.131,1.173-0.196,1.706-0.196c2.612-0.038,4.534,1.628,5.309,3.323c0.815,1.718,0.984,3.517,0.984,4.728v44.537
	c-0.079,4.065,0.024,7.165-0.169,9.627c-0.178,2.37-0.509,4.43-2.223,5.821c-1.152,0.86-2.56,1.135-4.108,1.135
	C291.559,308.598,288.536,308.012,284.206,307.061"/>
<path fill="#D3B42D" d="M285.913,252.896h-0.11l-0.385,1.315l0.787,0.587c0,0,0.384-0.43,0.396-0.481
	C286.601,254.25,285.913,252.896,285.913,252.896"/>
<g>
	<defs>
		<path id="SVGID_31_" d="M331.948,233.695c-0.216,0-0.43,0-0.639,0.026l-0.052,0.014l-22.145,3.359l-0.045,0.014
			c-3.839,0.821-6.027,4.183-6.195,7.854l-0.007,0.065v65.249l15.176,2.944v-30.116h4.149v30.911l1.394,0.272l14.85,2.789v-77.156
			v-0.026c-0.097-1.433-0.657-2.918-1.771-4.143c-1.028-1.185-2.709-2.058-4.676-2.058H331.948z"/>
	</defs>
	<clipPath id="SVGID_32_">
		<use xlink:href="#SVGID_31_"  overflow="visible"/>
	</clipPath>
	
		<linearGradient id="SVGID_33_" gradientUnits="userSpaceOnUse" x1="-23.2256" y1="638.1172" x2="-16.556" y2="638.1172" gradientTransform="matrix(2.3786 3.6768 -3.6768 2.3786 2717.4893 -1164.2593)">
		<stop  offset="0" style="stop-color:#EB2227"/>
		<stop  offset="0.5055" style="stop-color:#A71D39"/>
		<stop  offset="1" style="stop-color:#A71D39"/>
	</linearGradient>
	<polygon clip-path="url(#SVGID_32_)" fill="url(#SVGID_33_)" points="264.835,258.289 313.359,333.295 376.464,292.471 
		327.936,217.468 	"/>
</g>
<polygon fill="#FFFFFF" points="317.384,252.129 322.66,251.477 323.526,260.935 322.855,265.272 322.576,266.483 319.09,267.63 
	316.726,266.718 "/>
<path fill="#D3B42D" d="M322.268,266.145v-13.898l-4.227,0.521v13.378H322.268z M317.533,269.57c-0.93,0-1.607-0.443-2.051-0.847
	c-0.443-0.495-0.788-0.885-0.867-1.851v-14.744c0.034-1.135,0.736-1.773,1.193-2.098c0.488-0.326,0.912-0.522,1.504-0.626
	l4.989-0.612c0.274-0.065,0.527-0.091,0.788-0.091c0.912-0.026,1.882,0.586,2.22,1.238c0.34,0.624,0.372,1.106,0.372,1.459v15.24
	c0.006,1.107-0.658,1.979-1.257,2.356c-0.619,0.405-1.133,0.561-1.785,0.574H317.533z M335.015,312.947v-72.908
	c-0.025-0.65-0.365-1.445-0.872-1.98c-0.509-0.586-1.161-0.938-2.195-0.95c-0.065,0-0.171,0-0.287,0.013l-21.924,3.321
	c-2.085,0.534-3.211,2.085-3.465,4.717v62.304l8.343,1.617v-29.388h11.014v31.499L335.015,312.947z M323.591,314.289l0.326-1.68
	h1.711h-1.711L323.591,314.289l-1.394-0.272v-30.911h-4.156v30.116l-15.169-2.944v-65.249v-0.065
	c0.175-3.672,2.356-7.033,6.195-7.854l0.05-0.014l22.133-3.373h0.059c0.202-0.026,0.416-0.026,0.639-0.026
	c1.993-0.014,3.68,0.859,4.722,2.058c1.107,1.238,1.668,2.71,1.765,4.143v0.04v77.143L323.591,314.289z"/>
<path fill="#A71D39" d="M382.047,255.697c-1.44,0-2.638-0.495-3.647-1.472c-1.021-0.991-1.504-2.202-1.504-3.647
	c0-1.459,0.482-2.646,1.516-3.609c1.011-0.99,2.235-1.497,3.636-1.497c1.459,0,2.677,0.507,3.654,1.497
	c0.995,0.964,1.497,2.15,1.497,3.609c0,1.42-0.502,2.632-1.497,3.634C384.724,255.202,383.506,255.697,382.047,255.697
	 M382.047,246.24c-1.192,0-2.201,0.416-3.01,1.251c-0.807,0.819-1.211,1.849-1.211,3.087c0,1.211,0.404,2.267,1.18,3.1
	c0.826,0.86,1.83,1.29,3.041,1.29c1.243,0,2.228-0.43,3.009-1.29c0.821-0.833,1.199-1.889,1.199-3.1c0-1.238-0.412-2.24-1.199-3.087
	C384.261,246.656,383.252,246.24,382.047,246.24 M380.985,253.574h-0.918v-5.966h2.3c1.388,0,2.097,0.559,2.097,1.706
	c0,0.978-0.514,1.524-1.576,1.628l1.707,2.632h-0.971l-1.642-2.566h-0.997V253.574z M382.23,248.338h-1.245v1.914h0.984
	c0.528,0,0.898-0.052,1.08-0.131c0.34-0.155,0.509-0.403,0.509-0.859C383.558,248.676,383.096,248.338,382.23,248.338"/>
</svg>
