<svg xmlns="http://www.w3.org/2000/svg" viewBox="0 0 64 64"><title>Brifecase, bag, bussiness, suitcase, portfolio, </title><g id="Flat"><path d="M60,31V55a2.006,2.006,0,0,1-2,2H6a2.006,2.006,0,0,1-2-2V31Z" style="fill:#8c6239"></path><polygon points="61 17 61 31 36 40 28 40 3 31 3 17 61 17" style="fill:#8c6239"></polygon><polygon points="60 31.36 60 33.36 36 42 28 42 4 33.36 4 31.36 28 40 36 40 60 31.36" style="fill:#724e31"></polygon><path d="M25,7H39a3,3,0,0,1,3,3v7a0,0,0,0,1,0,0H22a0,0,0,0,1,0,0V10A3,3,0,0,1,25,7Z" style="fill:#6d492b"></path><rect x="26" y="11" width="12" height="6" style="fill:#f2f2f2"></rect><rect x="28" y="36" width="8" height="4" style="fill:#d17111"></rect><path d="M32,48h0a4,4,0,0,1-4-4V40h8v4A4,4,0,0,1,32,48Z" style="fill:#f7931e"></path><rect x="31" y="43" width="2" height="2" style="fill:#f9ac5f"></rect><rect x="13" y="17" width="4" height="8" style="fill:#f7931e"></rect><rect x="13" y="29" width="4" height="28" style="fill:#f7931e"></rect><rect x="13" y="25" width="4" height="4" style="fill:#d17111"></rect><rect x="47" y="17" width="4" height="8" style="fill:#f7931e"></rect><rect x="47" y="29" width="4" height="28" style="fill:#f7931e"></rect><rect x="47" y="25" width="4" height="4" style="fill:#d17111"></rect><rect x="28" y="40" width="8" height="2" style="fill:#d67718"></rect><rect x="28" y="36" width="8" height="2" style="fill:#b56012"></rect><rect x="22" y="15" width="4" height="2" style="fill:#593a23"></rect><rect x="38" y="15" width="4" height="2" style="fill:#593a23"></rect></g></svg>