<svg width="165" height="40" version="1.1" id="Layer_1" xmlns="http://www.w3.org/2000/svg" xmlns:xlink="http://www.w3.org/1999/xlink" x="0px" y="0px" viewBox="0 0 221.1 53.9" style="enable-background:new 0 0 221.1 53.9;" xml:space="preserve"><style type="text/css">.dardenel-logo-st0{fill:#E1251B;}	.dardenel-logo-st1{fill:#FFFFFF;}</style><g><rect class="dardenel-logo-st0" width="221.1" height="53.9" fill="#E1251B"></rect><g><path class="dardenel-logo-st1" d="M11.5,41.7l0-29.8l6.2,0c3,0,5.3,0.3,7,0.9c1.9,0.6,3.5,1.6,5,3c3,2.8,4.6,6.5,4.6,11.1	c0,4.6-1.6,8.3-4.8,11.1c-1.6,1.4-3.3,2.4-5,2.9c-1.6,0.6-4,0.8-7,0.8L11.5,41.7z M16,37.5l2,0c2,0,3.7-0.2,5-0.6	c1.3-0.5,2.5-1.2,3.6-2.2c2.2-2,3.3-4.6,3.3-7.9c0-3.3-1.1-5.9-3.2-8c-1.9-1.8-4.8-2.7-8.6-2.7l-2,0L16,37.5z" fill="#FFFFFF"></path><path class="dardenel-logo-st1" d="M54.3,34.6l-12.7,0l-3.3,7.2l-4.8,0l14.7-31.7l14.1,31.7l-4.9,0L54.3,34.6z M52.5,30.3l-4.4-10.2l-4.6,10.1	L52.5,30.3z" fill="#FFFFFF"></path><path class="dardenel-logo-st1" d="M76,29.1l9.1,12.7l-5.5,0l-8.4-12.2h-0.8l0,12.2l-4.5,0l0-29.8l5.2,0c3.9,0,6.7,0.7,8.5,2.2	c1.9,1.7,2.9,3.8,2.9,6.5c0,2.1-0.6,3.9-1.8,5.5C79.6,27.7,78,28.7,76,29.1z M70.5,25.7l1.4,0c4.2,0,6.3-1.6,6.3-4.9	c0-3-2-4.6-6.2-4.6l-1.6,0L70.5,25.7z" fill="#FFFFFF"></path><path class="dardenel-logo-st1" d="M88.1,41.9l0-29.8l6.2,0c3,0,5.3,0.3,7,0.9c1.9,0.6,3.5,1.6,5,3c3,2.8,4.6,6.5,4.6,11.1	c0,4.6-1.6,8.3-4.8,11.1c-1.6,1.4-3.3,2.4-5,2.9c-1.6,0.6-4,0.8-7,0.8L88.1,41.9z M92.5,37.6l2,0c2,0,3.7-0.2,5-0.6	c1.3-0.4,2.5-1.2,3.6-2.1c2.2-2,3.3-4.7,3.3-7.9c0-3.3-1.1-5.9-3.2-8c-2-1.8-4.8-2.7-8.6-2.7l-2,0L92.5,37.6z" fill="#FFFFFF"></path><path class="dardenel-logo-st1" d="M130.9,34.7l-12.7,0l-3.3,7.2h-4.8l14.7-31.7l14.1,31.7l-4.9,0L130.9,34.7z M129.1,30.4l-4.4-10.2l-4.6,10.1	L129.1,30.4z" fill="#FFFFFF"></path><path class="dardenel-logo-st1" d="M142.6,41.9l0.1-31.9l21.5,22.8l0-20.7l4.5,0l0,31.7l-21.5-22.7l0,20.9L142.6,41.9z" fill="#FFFFFF"></path><path class="dardenel-logo-st1" d="M191.3,16.4l-11.9,0l0,7.2l11.5,0l0,4.2l-11.5,0l0,10l11.9,0l0,4.2l-16.3,0l0-29.8l16.3,0L191.3,16.4z" fill="#FFFFFF"></path><path class="dardenel-logo-st1" d="M200.8,12.2l0,25.6l8.7,0l0,4.2l-13.2,0l0-29.9L200.8,12.2z" fill="#FFFFFF"></path></g></g></svg>