<?xml version="1.0" encoding="UTF-8" standalone="no"?>
<svg
   width="200.0258"
   height="70.847725"
   viewBox="0 0 200.0258 70.847725"
   fill="none"
   version="1.1"
   id="svg11"
   xmlns="http://www.w3.org/2000/svg"
   xmlns:svg="http://www.w3.org/2000/svg">
  <path
     d="m 43.005844,34.247521 c 11.6752,-13.2761 8.6331,-16.2989 9.6608,-17.8512 0.6167,-0.8987 4.6043,0.1634 5.6732,3.4722 2.9188,8.9869 -9.2908,17.5244 -12.4974,27.4917 -6.2076,19.5668 25.9815,12.6633 35.149,-9.5588 8.962,-21.6502 -3.0833,-31.2498296 -20.3494,-28.1044196 -17.0607,3.1045196 -24.9538,25.4900196 -38.479,30.2286196 -13.4840301,4.7385 -21.78824714,-2.8595 -22.15823694,-8.8235 -0.2466602,-3.6356 9.00308684,6.6176 26.84483694,-6.6993 15.7451,-11.7238 23.3915,-22.5489196 44.5221,-24.26459365 21.6238,-1.79737595 31.367196,14.29729365 28.6125,27.12399365 -5.8787,27.3692 -41.5211,47.8756 -60.555,42.7286 -14.5529,-4.0033 -13.2785,-16.5849 3.5766,-35.7433 z m 156.464096,-0.3677 c 1.48,-3.0637 -0.205,-4.6159 -2.59,-1.6339 -1.562,1.9199 -8.468,10.7025 -17.718,9.1094 -9.003,-1.5523 -8.715,-11.8872 -8.345,-11.9689 14.676,-1.8382 23.186,-14.9917 15.252,-19.8936696 -5.221,-3.22711 -17.39,-0.77614 -23.022,15.4410696 -1.192,-0.1634 -3.494,-0.9395 -4.769,-1.9199 3.166,-10.8251 -4.933,-10.58 -5.837,-5.4738 -0.823,4.6568 2.302,4.4117 0.041,9.1911 -2.631,5.5964 -6.537,12.214 -9.702,11.0702 -4.07,-1.4706 3.001,-13.2352 -0.822,-16.7074 -4.153,-3.799 -11.018,4.4117 -15.787,7.2712 -4.727,-11.5604 -18.705,-4.085 -23.432,4.1666 -3.700196,6.4951 -3.083596,15.6862 3.453,17.7287 10.113,3.1454 19.116,-6.8627 20.76,-18.178 2.631,-1.9608 6.085,-5.8006 7.359,-3.5131 1.768,3.1454 -5.467,13.9297 1.192,17.3202 4.564,2.3284 13.073,-1.5931 21.254,-18.7908 1.686,0.8987 3.33,1.5115 5.221,1.8791 -2.302,24.8365 27.667,25.1633 37.492,4.9019 z m -77.656,-0.531 c -0.124,2.2467 -5.098,12.7042 -10.237,10.2941 -3.535,-1.6749 -3.371,-10.866 5.139,-15.5228 -0.041,3.0228 2.837,4.9428 5.098,5.2287 z m 60.966,-19.6486 c 2.754,2.8595 -4.111,10.0081 -11.634,11.3153 1.685,-8.2924 8.838,-14.2156 11.634,-11.3153 z"
     fill="#4a3024"
     id="path1"
     clip-path="none" />
  <path
     d="m 104.62994,67.007821 c 0,-2.165 1.685,-3.8399 4.152,-3.8399 0.987,0 1.727,0.2451 2.302,0.6128 l -0.534,1.5931 c -0.411,-0.2451 -1.028,-0.531 -1.686,-0.531 -1.439,0 -2.22,0.9804 -2.22,2.1242 0,1.1437 0.781,2.165 2.22,2.165 0.658,0 1.316,-0.2451 1.727,-0.5311 l 0.534,1.5932 c -0.575,0.3676 -1.356,0.6127 -2.302,0.6127 -2.549,0.0408 -4.193,-1.634 -4.193,-3.799 z"
     fill="#4a3024"
     id="path3"
     clip-path="none" />
  <path
     d="m 121.07394,70.725321 h -1.932 v -2.9003 h -2.796 v 2.9003 h -1.932 v -7.3938 h 1.932 v 2.8595 h 2.796 v -2.8595 h 1.932 z"
     fill="#4a3024"
     id="path4"
     clip-path="none" />
  <path
     d="m 124.44494,67.007821 c 0,-2.1242 1.644,-3.8399 4.111,-3.8399 2.467,0 4.111,1.6749 4.111,3.8399 0,2.165 -1.644,3.8399 -4.111,3.8399 -2.467,0 -4.111,-1.6749 -4.111,-3.8399 z m 1.973,0 c 0,1.2663 0.864,2.165 2.138,2.165 1.274,0 2.138,-0.8987 2.138,-2.165 0,-1.2255 -0.864,-2.1242 -2.138,-2.1242 -1.274,0 -2.138,0.8987 -2.138,2.1242 z"
     fill="#4a3024"
     id="path5"
     clip-path="none" />
  <path
     d="m 135.62694,67.007821 c 0,-2.165 1.685,-3.8399 4.152,-3.8399 0.987,0 1.727,0.2451 2.302,0.6128 l -0.534,1.5931 c -0.411,-0.2451 -1.028,-0.531 -1.686,-0.531 -1.439,0 -2.22,0.9804 -2.22,2.1242 0,1.1437 0.781,2.165 2.22,2.165 0.658,0 1.316,-0.2451 1.727,-0.5311 l 0.534,1.5932 c -0.575,0.3676 -1.356,0.6127 -2.302,0.6127 -2.59,0.0408 -4.193,-1.634 -4.193,-3.799 z"
     fill="#4a3024"
     id="path6"
     clip-path="none" />
  <path
     d="m 145.04094,67.007821 c 0,-2.1242 1.644,-3.8399 4.111,-3.8399 2.467,0 4.111,1.6749 4.111,3.8399 0,2.165 -1.644,3.8399 -4.111,3.8399 -2.467,0 -4.111,-1.6749 -4.111,-3.8399 z m 1.973,0 c 0,1.2663 0.864,2.165 2.138,2.165 1.274,0 2.138,-0.8987 2.138,-2.165 0,-1.2255 -0.864,-2.1242 -2.138,-2.1242 -1.274,0 -2.138,0.8987 -2.138,2.1242 z"
     fill="#4a3024"
     id="path7"
     clip-path="none" />
  <path
     d="m 156.59294,70.725321 v -7.3938 h 1.932 v 5.7598 h 2.343 v 1.634 z"
     fill="#4a3024"
     id="path8"
     clip-path="none" />
  <path
     d="m 165.96594,69.050421 -0.576,1.6749 h -1.932 l 2.713,-7.3938 h 2.015 l 2.713,7.3938 h -1.932 l -0.576,-1.6749 z m 1.233,-3.8398 -0.74,2.3284 h 1.48 z"
     fill="#4a3024"
     id="path9"
     clip-path="none" />
  <path
     d="m 176.48994,64.924521 v 5.7598 h -1.932 v -5.7598 h -1.686 v -1.634 h 5.304 v 1.634 z"
     fill="#4a3024"
     id="path10"
     clip-path="none" />
  <path
     d="m 181.42294,70.725321 v -7.3938 h 4.194 v 1.634 h -2.262 v 1.2255 h 1.933 v 1.5931 h -1.933 v 1.3072 h 2.344 v 1.634 z"
     fill="#4a3024"
     id="path11"
     clip-path="none" />
  <defs
     id="defs11">
    <clipPath
       clipPathUnits="userSpaceOnUse"
       id="clipPath21">
      <g
         id="g22">
        <rect
           width="200"
           height="70.873802"
           fill="#ffffff"
           id="rect21"
           x="0"
           y="0" />
      </g>
    </clipPath>
  </defs>
</svg>
