<?xml version="1.0" encoding="UTF-8" standalone="no"?> <svg width="64" height="64" viewBox="0 0 64 64" fill="none" xmlns="http://www.w3.org/2000/svg">
<path d="M32.94 5.63H7.70996C7.15768 5.63 6.70996 6.07772 6.70996 6.63V37.59C6.70996 38.1423 7.15768 38.59 7.70996 38.59H32.94C33.4922 38.59 33.94 38.1423 33.94 37.59V6.63C33.94 6.07772 33.4922 5.63 32.94 5.63Z" fill="#F8B64C"/>
<path d="M25.43 5.63V16.09C25.4307 16.2943 25.3687 16.4939 25.2525 16.662C25.1363 16.8301 24.9714 16.9585 24.78 17.03C24.6678 17.0707 24.5493 17.091 24.43 17.09C24.288 17.0898 24.1477 17.0594 24.0184 17.0008C23.8891 16.9422 23.7737 16.8567 23.68 16.75L20.33 12.89L17 16.75C16.8657 16.9023 16.6883 17.01 16.4913 17.059C16.2943 17.108 16.0871 17.0959 15.8971 17.0242C15.7072 16.9526 15.5435 16.8249 15.4279 16.658C15.3124 16.4911 15.2503 16.293 15.25 16.09V5.63H25.43Z" fill="#FFD15C"/>
<path d="M37.71 36.59H6C5.20435 36.59 4.44129 36.9061 3.87868 37.4687C3.31607 38.0313 3 38.7944 3 39.59V49.74C3 50.5357 3.31607 51.2987 3.87868 51.8613C4.44129 52.424 5.20435 52.74 6 52.74H9.56C9.60315 52.7457 9.64685 52.7457 9.69 52.74C9.75832 52.726 9.82526 52.7059 9.89 52.68L10.04 52.58C10.0945 52.5422 10.1448 52.4986 10.19 52.45C10.229 52.4041 10.2626 52.3537 10.29 52.3C10.3277 52.2478 10.358 52.1906 10.38 52.13C10.3857 52.0635 10.3857 51.9966 10.38 51.93C10.3857 51.8835 10.3857 51.8365 10.38 51.79C10.38 51.79 10.38 51.79 10.38 51.74C10.38 51.69 10.38 51.74 10.38 51.68V51.5C10.38 50.8539 10.5073 50.2141 10.7545 49.6172C11.0018 49.0203 11.3642 48.4779 11.821 48.0211C12.2779 47.5642 12.8203 47.2018 13.4172 46.9545C14.0141 46.7073 14.6539 46.58 15.3 46.58C15.9461 46.58 16.5859 46.7073 17.1828 46.9545C17.7797 47.2018 18.3221 47.5642 18.779 48.0211C19.2358 48.4779 19.5982 49.0203 19.8455 49.6172C20.0927 50.2141 20.22 50.8539 20.22 51.5V51.68C20.22 51.68 20.22 51.68 20.22 51.74C20.22 51.8 20.22 51.74 20.22 51.79C20.2143 51.8365 20.2143 51.8835 20.22 51.93C20.2143 51.9966 20.2143 52.0635 20.22 52.13C20.2461 52.1887 20.2761 52.2455 20.31 52.3C20.3374 52.3537 20.371 52.4041 20.41 52.45L20.56 52.58L20.71 52.68C20.7747 52.7059 20.8417 52.726 20.91 52.74C20.96 52.74 20.99 52.74 21.04 52.74H37.54C37.8052 52.74 38.0596 52.6347 38.2471 52.4471C38.4346 52.2596 38.54 52.0052 38.54 51.74V37.59C38.5435 37.3518 38.4618 37.1202 38.3096 36.9368C38.1574 36.7535 37.9448 36.6305 37.71 36.59Z" fill="#ACB3BA"/>
<path d="M15.41 58.37C14.0413 58.37 12.7034 57.9642 11.5654 57.2038C10.4275 56.4434 9.54051 55.3627 9.01675 54.0982C8.49299 52.8337 8.35595 51.4424 8.62296 50.1C8.88997 48.7577 9.54904 47.5246 10.5168 46.5569C11.4846 45.5891 12.7176 44.93 14.06 44.663C15.4023 44.396 16.7937 44.533 18.0582 45.0568C19.3226 45.5805 20.4034 46.4675 21.1638 47.6055C21.9241 48.7435 22.33 50.0814 22.33 51.45C22.33 53.2853 21.6009 55.0455 20.3032 56.3432C19.0054 57.641 17.2453 58.37 15.41 58.37V58.37ZM15.41 46.53C14.4369 46.53 13.4857 46.8186 12.6766 47.3592C11.8675 47.8998 11.2369 48.6682 10.8645 49.5672C10.4921 50.4662 10.3947 51.4555 10.5845 52.4099C10.7744 53.3643 11.243 54.2409 11.931 54.929C12.6191 55.6171 13.4958 56.0857 14.4501 56.2755C15.4045 56.4653 16.3938 56.3679 17.2928 55.9955C18.1918 55.6231 18.9602 54.9925 19.5008 54.1834C20.0414 53.3743 20.33 52.4231 20.33 51.45C20.3274 50.146 19.8081 48.8961 18.886 47.974C17.9639 47.0519 16.714 46.5327 15.41 46.53Z" fill="#40596B"/>
<path d="M60.12 31.3L49.12 20.3C48.553 19.7482 47.7911 19.4427 47 19.45H39.71C38.9143 19.45 38.1513 19.7661 37.5886 20.3287C37.026 20.8913 36.71 21.6544 36.71 22.45V51.74C36.71 52.0052 36.8153 52.2596 37.0029 52.4471C37.1904 52.6347 37.4447 52.74 37.71 52.74H43C43 52.74 43 52.74 43.05 52.74C43.0931 52.7457 43.1368 52.7457 43.18 52.74C43.2483 52.726 43.3152 52.7059 43.38 52.68L43.53 52.58C43.5845 52.5422 43.6347 52.4986 43.68 52.45C43.719 52.404 43.7525 52.3537 43.78 52.3C43.8176 52.2478 43.8479 52.1906 43.87 52.13C43.8756 52.0635 43.8756 51.9966 43.87 51.93C43.8756 51.8835 43.8756 51.8365 43.87 51.79C43.87 51.79 43.87 51.79 43.87 51.74C43.87 51.69 43.87 51.74 43.87 51.68V51.5C43.87 50.1952 44.3883 48.9437 45.311 48.0211C46.2337 47.0984 47.4851 46.58 48.79 46.58C50.0948 46.58 51.3462 47.0984 52.2689 48.0211C53.1916 48.9437 53.71 50.1952 53.71 51.5V51.67C53.71 51.67 53.71 51.67 53.71 51.73C53.71 51.79 53.71 51.73 53.71 51.79C53.7053 51.8366 53.7053 51.8835 53.71 51.93C53.7007 51.993 53.7007 52.057 53.71 52.12C53.7306 52.1793 53.7574 52.2363 53.79 52.29L53.9 52.45C53.9419 52.4952 53.9889 52.5355 54.04 52.57C54.0892 52.6123 54.1429 52.6492 54.2 52.68C54.2613 52.7059 54.3249 52.726 54.39 52.74C54.39 52.74 54.47 52.74 54.52 52.74H58C58.7956 52.74 59.5587 52.4239 60.1213 51.8613C60.6839 51.2987 61 50.5357 61 49.74V33.42C60.9993 32.6246 60.6827 31.8621 60.12 31.3V31.3Z" fill="#CDD6E0"/>
<path d="M54.64 34.4L46.05 25.82C45.9574 25.7255 45.847 25.6504 45.7251 25.5989C45.6032 25.5474 45.4723 25.5206 45.34 25.52H43.79C43.5248 25.52 43.2705 25.6254 43.0829 25.8129C42.8954 26.0004 42.79 26.2548 42.79 26.52V38.67C42.79 38.9352 42.8954 39.1896 43.0829 39.3771C43.2705 39.5647 43.5248 39.67 43.79 39.67H53.93C54.1953 39.67 54.4496 39.5647 54.6371 39.3771C54.8247 39.1896 54.93 38.9352 54.93 38.67V35.11C54.9308 34.9784 54.9056 34.8479 54.8558 34.7261C54.806 34.6043 54.7327 34.4935 54.64 34.4V34.4Z" fill="#74C0EB"/>
<path d="M48.8499 58.37C47.4813 58.37 46.1434 57.9642 45.0054 57.2038C43.8674 56.4434 42.9804 55.3627 42.4567 54.0982C41.9329 52.8337 41.7959 51.4424 42.0629 50.1C42.3299 48.7577 42.989 47.5246 43.9568 46.5569C44.9245 45.5891 46.1576 44.93 47.4999 44.663C48.8423 44.396 50.2336 44.533 51.4981 45.0568C52.7626 45.5805 53.8433 46.4675 54.6037 47.6055C55.3641 48.7435 55.7699 50.0814 55.7699 51.45C55.7699 53.2853 55.0409 55.0455 53.7431 56.3432C52.4454 57.641 50.6852 58.37 48.8499 58.37V58.37ZM48.8499 46.53C47.8768 46.53 46.9256 46.8186 46.1165 47.3592C45.3074 47.8998 44.6768 48.6682 44.3044 49.5672C43.9321 50.4662 43.8346 51.4555 44.0245 52.4099C44.2143 53.3643 44.6829 54.2409 45.371 54.929C46.059 55.6171 46.9357 56.0857 47.8901 56.2755C48.8445 56.4653 49.8337 56.3679 50.7327 55.9955C51.6318 55.6231 52.4001 54.9925 52.9408 54.1834C53.4814 53.3743 53.7699 52.4231 53.7699 51.45C53.7699 50.1452 53.2516 48.8937 52.3289 47.9711C51.4062 47.0484 50.1548 46.53 48.8499 46.53V46.53Z" fill="#40596B"/>
<path d="M60.12 31.3L49.12 20.3C48.5531 19.7482 47.7911 19.4427 47 19.45H39.71C38.9143 19.45 38.1513 19.7661 37.5887 20.3287C37.0261 20.8913 36.71 21.6544 36.71 22.45V36.59H33.94V6.59003C33.94 6.32481 33.8346 6.07046 33.6471 5.88292C33.4596 5.69538 33.2052 5.59003 32.94 5.59003H7.71C7.44478 5.59003 7.19043 5.69538 7.00289 5.88292C6.81536 6.07046 6.71 6.32481 6.71 6.59003V36.59H6C5.20435 36.59 4.44129 36.9061 3.87868 37.4687C3.31607 38.0313 3 38.7944 3 39.59V49.74C3 50.5357 3.31607 51.2987 3.87868 51.8613C4.44129 52.424 5.20435 52.74 6 52.74H8.62C8.91878 54.3223 9.76074 55.7505 11.0005 56.778C12.2402 57.8055 13.7998 58.3678 15.41 58.3678C17.0202 58.3678 18.5798 57.8055 19.8195 56.778C21.0593 55.7505 21.9012 54.3223 22.2 52.74H42.06C42.3643 54.3191 43.209 55.7429 44.449 56.7667C45.689 57.7906 47.2469 58.3507 48.855 58.3507C50.4631 58.3507 52.021 57.7906 53.261 56.7667C54.501 55.7429 55.3457 54.3191 55.65 52.74H58C58.7956 52.74 59.5587 52.424 60.1213 51.8613C60.6839 51.2987 61 50.5357 61 49.74V33.42C60.9993 32.6246 60.6828 31.8621 60.12 31.3V31.3ZM23.43 7.63003V13.42L21.08 10.71C20.9861 10.6019 20.8701 10.5153 20.7399 10.4559C20.6096 10.3965 20.4682 10.3658 20.325 10.3658C20.1818 10.3658 20.0404 10.3965 19.9101 10.4559C19.7799 10.5153 19.6639 10.6019 19.57 10.71L17.22 13.42V7.63003H23.43ZM8.71 7.63003H15.22V16.09C15.2203 16.293 15.2824 16.4911 15.3979 16.658C15.5135 16.8249 15.6772 16.9526 15.8671 17.0243C16.0571 17.0959 16.2643 17.108 16.4613 17.059C16.6583 17.0101 16.8357 16.9023 16.97 16.75L20.33 12.89L23.68 16.75C23.8143 16.9023 23.9917 17.0101 24.1887 17.059C24.3857 17.108 24.5929 17.0959 24.7829 17.0243C24.9728 16.9526 25.1365 16.8249 25.2521 16.658C25.3676 16.4911 25.4297 16.293 25.43 16.09V7.63003H31.94V36.63H8.71V7.63003ZM5 49.74V39.59C5 39.3248 5.10536 39.0705 5.29289 38.8829C5.48043 38.6954 5.73478 38.59 6 38.59H36.71V50.74H22.29C22.1068 49.0432 21.303 47.474 20.033 46.3338C18.7631 45.1937 17.1167 44.563 15.41 44.563C13.7033 44.563 12.0569 45.1937 10.787 46.3338C9.51703 47.474 8.71324 49.0432 8.53 50.74H6C5.73478 50.74 5.48043 50.6347 5.29289 50.4471C5.10536 50.2596 5 50.0052 5 49.74ZM15.41 56.37C14.4369 56.37 13.4857 56.0815 12.6766 55.5409C11.8675 55.0002 11.2369 54.2318 10.8645 53.3328C10.4921 52.4338 10.3947 51.4446 10.5845 50.4902C10.7744 49.5358 11.243 48.6591 11.931 47.9711C12.6191 47.283 13.4958 46.8144 14.4502 46.6246C15.4045 46.4347 16.3938 46.5322 17.2928 46.9045C18.1918 47.2769 18.9602 47.9075 19.5008 48.7166C20.0414 49.5257 20.33 50.4769 20.33 51.45C20.3274 52.7541 19.8082 54.004 18.886 54.9261C17.9639 55.8482 16.7141 56.3674 15.41 56.37ZM48.86 56.37C47.8869 56.37 46.9357 56.0815 46.1266 55.5409C45.3175 55.0002 44.6869 54.2318 44.3145 53.3328C43.9421 52.4338 43.8447 51.4446 44.0345 50.4902C44.2244 49.5358 44.693 48.6591 45.381 47.9711C46.0691 47.283 46.9458 46.8144 47.9002 46.6246C48.8545 46.4347 49.8438 46.5322 50.7428 46.9045C51.6418 47.2769 52.4102 47.9075 52.9508 48.7166C53.4914 49.5257 53.78 50.4769 53.78 51.45C53.78 52.7549 53.2616 54.0063 52.339 54.929C51.4163 55.8517 50.1649 56.37 48.86 56.37V56.37ZM59 49.74C59 50.0052 58.8946 50.2596 58.7071 50.4471C58.5196 50.6347 58.2652 50.74 58 50.74H55.74C55.5677 49.0337 54.768 47.4522 53.4959 46.3021C52.2238 45.1519 50.57 44.5151 48.855 44.5151C47.14 44.5151 45.4862 45.1519 44.2141 46.3021C42.942 47.4522 42.1423 49.0337 41.97 50.74H38.71V22.45C38.71 22.1848 38.8154 21.9305 39.0029 21.7429C39.1904 21.5554 39.4448 21.45 39.71 21.45H47C47.2648 21.4537 47.5184 21.5573 47.71 21.74L58.71 32.74C58.8027 32.8335 58.876 32.9443 58.9258 33.0661C58.9755 33.188 59.0008 33.3184 59 33.45V49.74Z" fill="black"/>
<path d="M46.05 25.82C45.9574 25.7255 45.847 25.6504 45.7251 25.5989C45.6032 25.5474 45.4723 25.5206 45.34 25.52H43.79C43.5248 25.52 43.2705 25.6254 43.0829 25.8129C42.8954 26.0004 42.79 26.2548 42.79 26.52V38.67C42.79 38.9352 42.8954 39.1896 43.0829 39.3771C43.2705 39.5647 43.5248 39.67 43.79 39.67H53.93C54.1953 39.67 54.4496 39.5647 54.6371 39.3771C54.8247 39.1896 54.93 38.9352 54.93 38.67V35.11C54.9308 34.9784 54.9056 34.8479 54.8558 34.7261C54.806 34.6043 54.7327 34.4935 54.64 34.4L46.05 25.82ZM52.93 37.67H44.79V27.52H44.93L52.93 35.52V37.67Z" fill="black"/>
</svg>
