<?xml version="1.0" encoding="UTF-8"?>
<!DOCTYPE svg PUBLIC "-//W3C//DTD SVG 1.1//EN" "http://www.w3.org/Graphics/SVG/1.1/DTD/svg11.dtd">
<!-- Creator: CorelDRAW X7 -->
<svg xmlns="http://www.w3.org/2000/svg" xml:space="preserve" width="600px" height="135px" version="1.1" style="shape-rendering:geometricPrecision; text-rendering:geometricPrecision; image-rendering:optimizeQuality; fill-rule:evenodd; clip-rule:evenodd"
viewBox="0 0 381157 85871"
 xmlns:xlink="http://www.w3.org/1999/xlink">
 <defs>
  <style type="text/css">
   <![CDATA[
    .fil1 {fill:#213469;fill-rule:nonzero}
    .fil0 {fill:#B0B2B4;fill-rule:nonzero}
    .fil2 {fill:white;fill-rule:nonzero}
   ]]>
  </style>
 </defs>
 <g id="Layer_x0020_1">
  <metadata id="CorelCorpID_0Corel-Layer"/>
  <g id="_2325653511408">
   <path class="fil0" d="M381157 6186l0 73531 0 23c-2,114 -8,226 -18,339 -19,204 -43,408 -75,606l-30 122 -28 118 -81 343c-56,196 -118,394 -198,582l-56 127 -64 142 -146 315c-105,209 -228,417 -361,608l-32 43 -65 83c-128,174 -257,354 -403,522l-194 182 -336 325 -245 232 -300 203c-128,91 -254,181 -385,263 -204,126 -423,233 -644,339 -133,64 -271,131 -406,184 -249,99 -513,172 -775,239 -128,29 -249,73 -377,94 -398,77 -808,120 -1228,120l-368244 0c-3580,0 -6466,-2806 -6466,-6288l0 -73295c0,-447 52,-882 138,-1303 34,-144 96,-279 137,-425 77,-264 152,-533 262,-784 73,-159 171,-305 255,-455 118,-217 230,-433 378,-629 106,-148 232,-282 348,-417 152,-180 305,-365 481,-525l88 -99c159,-138 337,-251 507,-376l313 -234 47 -36 2 6 -2 -6c237,-153 481,-286 743,-406l174 -67 187 -73 334 -131c217,-71 440,-133 668,-178l63 -11 109 -21c163,-28 324,-60 487,-77 214,-21 427,-38 649,-41l10 0 11 0 77 0 368244 0 9 0 9 0 9 0 9 0 9 0 9 0c178,2 356,10 532,26 229,19 457,51 678,94l26 4 42 15c218,45 437,95 642,162 134,40 258,98 385,145l238 93 163 64c193,88 365,204 548,309l354 204 62 35 153 137c337,251 646,530 929,841l283 333c256,326 475,672 666,1039l118 185 30 86 131 354c67,182 150,361 199,552l48 227 49 241 60 302c35,226 54,455 56,687l1 51z"/>
   <path class="fil1" d="M378031 80445c0,1728 -1406,3132 -3136,3132l-368634 0c-1729,0 -3135,-1404 -3135,-3132l0 -75017c0,-1730 1406,-3134 3135,-3134l368634 0c1730,0 3136,1404 3136,3134l0 75017z"/>
   <path class="fil2" d="M99194 17837l0 13323 -64535 0 0 25867 50183 0 0 -5984 -24680 0 0 -13752 38811 0 0 16958c0,2136 -350,4001 -1041,5590 -696,1595 -1858,3295 -3496,5098 -2035,2278 -4461,3847 -7290,4702 -2325,713 -5376,1069 -9139,1069l-36950 0c-3326,0 -6052,-333 -8182,-998 -2529,-805 -4807,-2209 -6842,-4204 -1781,-1756 -3112,-3548 -3976,-5380 -869,-1831 -1303,-3928 -1303,-6305l0 -21235c0,-1615 558,-3395 1677,-5346 1112,-1947 2611,-3703 4495,-5273 1883,-1567 4026,-2646 6432,-3239 2402,-597 4897,-891 7475,-891l58361 0z"/>
   <polygon class="fil2" points="111088,17837 126476,17837 126476,71347 111088,71347 "/>
   <path class="fil2" d="M201731 31303l-51005 0 0 6772 51005 0 0 -6772zm-3344 19953l-47659 0 0 20091 -14721 0 0 -53510 60744 0c5202,0 9714,1522 13529,4557 4016,3231 6023,7224 6023,11971 0,4657 -1747,8636 -5242,11936 -3493,3304 -7719,4955 -12674,4955z"/>
   <polygon class="fil2" points="300758,31303 268865,31303 268865,70921 254664,70921 254664,31515 222763,31515 222763,17906 300758,17906 "/>
   <path class="fil2" d="M326769 32158l-6544 11260 13012 0 -6468 -11260zm-15612 -1211c2280,-4276 4358,-7337 6239,-9192 2677,-2611 5878,-3918 9598,-3918 3517,0 6616,1397 9296,4203 1683,1808 3714,4895 6093,9263l21339 39620 -15169 0 -8251 -13895 -27217 0 -7580 13895 -15684 0 21336 -39976z"/>
   <path class="fil2" d="M356681 24439l1578 0c328,0 647,-11 960,-35 311,-23 586,-83 822,-184 241,-108 425,-267 569,-481 140,-217 210,-518 210,-904 0,-324 -64,-588 -187,-777 -128,-195 -291,-339 -493,-444 -195,-107 -427,-179 -687,-213 -262,-39 -517,-56 -773,-56l-1999 0 0 3094zm-1517 -4319l3765 0c1155,0 2012,229 2570,691 558,457 835,1157 835,2091 0,876 -243,1519 -732,1925 -492,410 -1099,653 -1827,726l2782 4296 -1625 0 -2649 -4184 -1602 0 0 4184 -1517 0 0 -9729zm-3627 4830c0,1022 177,1968 524,2842 349,865 831,1619 1448,2258 615,636 1341,1138 2181,1504 837,360 1749,545 2728,545 964,0 1864,-185 2692,-545 831,-366 1557,-868 2171,-1504 614,-639 1099,-1393 1447,-2258 350,-874 521,-1820 521,-2842 0,-994 -171,-1920 -521,-2784 -348,-859 -833,-1604 -1447,-2236 -614,-633 -1340,-1127 -2171,-1491 -828,-363 -1728,-546 -2692,-546 -979,0 -1891,183 -2728,546 -840,364 -1566,858 -2181,1491 -617,632 -1099,1377 -1448,2236 -347,864 -524,1790 -524,2784zm-1513 0c0,-1172 223,-2260 670,-3272 447,-1009 1047,-1885 1812,-2626 764,-742 1655,-1326 2672,-1749 1016,-423 2094,-633 3240,-633 1125,0 2198,210 3218,633 1013,423 1903,1007 2658,1749 758,741 1359,1617 1805,2626 440,1012 668,2100 668,3272 0,1204 -228,2314 -668,3330 -446,1015 -1047,1899 -1805,2647 -755,751 -1645,1337 -2658,1758 -1020,423 -2093,633 -3218,633 -1146,0 -2224,-210 -3240,-633 -1017,-421 -1908,-1007 -2672,-1758 -765,-748 -1365,-1632 -1812,-2647 -447,-1016 -670,-2126 -670,-3330z"/>
  </g>
 </g>
</svg>
