<svg xmlns="http://www.w3.org/2000/svg" viewBox="0 0 48 48">
    <defs>
        <style>
            .cls-1 {
                fill: #fd3730;
            }

            .cls-2 {
                fill: #eaeff0;
            }
        </style>
    </defs>
    <title>Health</title>
    <g id="Health">
        <path class="cls-1"
            d="M24,44.166a5.952,5.952,0,0,1-4.222-1.746L5.9,28.538A13.3,13.3,0,0,1,24,9.068a13.3,13.3,0,0,1,18.1,19.47L28.222,42.42A5.952,5.952,0,0,1,24,44.166Z">
        </path>
        <path class="cls-2"
            d="M21,34a1,1,0,0,1-.929-.628L16.9,25.439l-1,2.008A1,1,0,0,1,15,28H3a1,1,0,0,1,0-2H14.382l1.723-3.447A.968.968,0,0,1,17.042,22a1,1,0,0,1,.887.627l2.936,7.342,3.677-12.257A1,1,0,0,1,25.479,17a1.021,1.021,0,0,1,.966.673l3.723,10.755.937-1.875A1,1,0,0,1,32,26H45a1,1,0,0,1,0,2H32.618L30.9,31.447a.978.978,0,0,1-.96.551,1,1,0,0,1-.88-.671L25.568,21.253l-3.61,12.034a1,1,0,0,1-.913.712Z">
        </path>
    </g>
</svg>