<?xml version="1.0" encoding="UTF-8"?>
<svg xmlns="http://www.w3.org/2000/svg" xmlns:xlink="http://www.w3.org/1999/xlink" width="650.8pt" height="196.4pt" viewBox="0 0 650.8 196.4" version="1.1">
<defs>
<clipPath id="clip1">
  <path d="M 222 0 L 650.800781 0 L 650.800781 196.398438 L 222 196.398438 Z M 222 0 "/>
</clipPath>
</defs>
<g id="surface1">
<path style=" stroke:none;fill-rule:evenodd;fill:rgb(10.594177%,9.812927%,9.423828%);fill-opacity:1;" d="M 5 85.644531 C 7.71875 85.644531 9.945313 87.871094 9.945313 90.589844 L 9.945313 100.519531 L 11.285156 100.519531 L 24.113281 87.691406 C 25.917969 85.886719 28.871094 85.886719 30.675781 87.691406 C 32.480469 89.496094 32.480469 92.449219 30.675781 94.257813 L 20.054688 104.871094 L 30.675781 115.496094 C 32.480469 117.304688 32.480469 120.257813 30.675781 122.0625 C 28.871094 123.867188 25.917969 123.867188 24.113281 122.0625 L 11.566406 109.519531 L 9.945313 109.519531 L 9.945313 119.445313 C 9.945313 122.164063 7.71875 124.394531 5 124.394531 C 2.277344 124.394531 0.0507813 122.164063 0.0507813 119.445313 L 0.0507813 90.589844 C 0.0507813 87.871094 2.277344 85.644531 5 85.644531 Z M 199.976563 87.183594 C 202.320313 88.585938 203.082031 91.621094 201.679688 93.964844 C 200.28125 96.308594 197.242188 97.074219 194.898438 95.671875 C 192.464844 94.21875 189.628906 93.71875 186.921875 94.097656 C 184.238281 94.472656 181.710938 95.703125 179.863281 97.726563 C 178.082031 99.667969 177.191406 102.082031 177.191406 104.496094 C 177.191406 106.910156 178.082031 109.324219 179.863281 111.269531 C 181.710938 113.289063 184.238281 114.519531 186.921875 114.894531 C 189.628906 115.273438 192.464844 114.773438 194.898438 113.324219 C 197.242188 111.917969 200.28125 112.683594 201.679688 115.027344 C 203.082031 117.371094 202.320313 120.410156 199.976563 121.8125 C 195.535156 124.460938 190.417969 125.378906 185.566406 124.703125 C 180.6875 124.019531 176.042969 121.71875 172.574219 117.933594 C 169.039063 114.074219 167.273438 109.285156 167.273438 104.496094 C 167.273438 99.710938 169.039063 94.921875 172.574219 91.0625 C 176.042969 87.277344 180.6875 84.976563 185.566406 84.289063 C 190.417969 83.617188 195.535156 84.535156 199.976563 87.183594 Z M 211.214844 71.808594 C 214.339844 71.808594 216.871094 74.339844 216.871094 77.464844 C 216.871094 80.589844 214.339844 83.121094 211.214844 83.121094 C 208.089844 83.121094 205.558594 80.589844 205.558594 77.464844 C 205.558594 74.339844 208.089844 71.808594 211.214844 71.808594 Z M 62.90625 71.808594 C 66.027344 71.808594 68.558594 74.339844 68.558594 77.464844 C 68.558594 80.589844 66.027344 83.121094 62.90625 83.121094 C 59.78125 83.121094 57.25 80.589844 57.25 77.464844 C 57.25 74.339844 59.78125 71.808594 62.90625 71.808594 Z M 48.527344 71.808594 C 51.652344 71.808594 54.183594 74.339844 54.183594 77.464844 C 54.183594 80.589844 51.652344 83.121094 48.527344 83.121094 C 45.40625 83.121094 42.875 80.589844 42.875 77.464844 C 42.875 74.339844 45.40625 71.808594 48.527344 71.808594 Z M 211.214844 85.644531 C 214.152344 85.644531 216.554688 87.871094 216.554688 90.589844 L 216.554688 119.445313 C 216.554688 122.164063 214.152344 124.394531 211.214844 124.394531 C 208.277344 124.394531 205.875 122.164063 205.875 119.445313 L 205.875 90.589844 C 205.875 87.871094 208.277344 85.644531 211.214844 85.644531 Z M 163.773438 119.761719 C 163.773438 122.308594 161.691406 124.394531 159.144531 124.394531 L 149.847656 124.394531 L 154.929688 124.394531 L 144.828125 124.394531 C 142.328125 124.394531 140.273438 122.386719 140.199219 119.902344 C 140.183594 119.753906 140.175781 119.601563 140.175781 119.445313 L 140.175781 90.589844 C 140.175781 90.445313 140.183594 90.296875 140.195313 90.152344 C 140.222656 87.628906 142.296875 85.570313 144.828125 85.570313 L 159.144531 85.570313 C 161.691406 85.570313 163.773438 87.652344 163.773438 90.203125 C 163.773438 92.746094 161.691406 94.828125 159.144531 94.828125 L 150.074219 94.828125 L 150.074219 100.007813 L 159.144531 100.007813 C 161.691406 100.007813 163.773438 102.089844 163.773438 104.640625 C 163.773438 107.1875 161.691406 109.269531 159.144531 109.269531 L 150.074219 109.269531 L 150.074219 115.128906 L 159.144531 115.128906 C 161.691406 115.128906 163.773438 117.214844 163.773438 119.761719 Z M 150.074219 109.269531 L 154.929688 109.269531 Z M 150.074219 94.828125 L 154.929688 94.828125 Z M 126.886719 94.828125 L 126.886719 119.445313 C 126.886719 122.164063 124.484375 124.394531 121.546875 124.394531 C 118.613281 124.394531 116.210938 122.164063 116.210938 119.445313 L 116.210938 94.828125 L 110.203125 94.828125 C 107.65625 94.828125 105.570313 92.746094 105.570313 90.203125 C 105.570313 87.652344 107.65625 85.570313 110.203125 85.570313 L 132.894531 85.570313 C 135.441406 85.570313 137.523438 87.652344 137.523438 90.203125 C 137.523438 92.746094 135.441406 94.828125 132.894531 94.828125 L 126.886719 94.828125 L 128.679688 94.828125 Z M 102.648438 104.640625 C 102.648438 107.1875 100.566406 109.269531 98.015625 109.269531 L 88.945313 109.269531 L 88.945313 119.445313 C 88.945313 122.164063 86.722656 124.394531 84 124.394531 C 81.277344 124.394531 79.050781 122.164063 79.050781 119.445313 L 79.050781 90.589844 C 79.050781 90.445313 79.058594 90.296875 79.070313 90.152344 C 79.097656 87.628906 81.171875 85.570313 83.703125 85.570313 L 98.015625 85.570313 C 100.566406 85.570313 102.648438 87.652344 102.648438 90.203125 C 102.648438 92.746094 100.566406 94.828125 98.015625 94.828125 L 88.945313 94.828125 L 88.945313 100.007813 L 98.015625 100.007813 C 100.566406 100.007813 102.648438 102.089844 102.648438 104.640625 Z M 88.945313 109.269531 L 93.804688 109.269531 Z M 88.945313 94.828125 L 93.804688 94.828125 Z M 55.425781 84.660156 C 66.578125 84.660156 75.613281 93.699219 75.613281 104.847656 C 75.613281 115.996094 66.578125 125.035156 55.425781 125.035156 C 44.277344 125.035156 35.238281 115.996094 35.238281 104.847656 C 35.238281 93.699219 44.277344 84.660156 55.425781 84.660156 Z M 55.425781 94.195313 C 61.308594 94.195313 66.078125 98.964844 66.078125 104.847656 C 66.078125 110.730469 61.308594 115.496094 55.425781 115.496094 C 49.542969 115.496094 44.777344 110.730469 44.777344 104.847656 C 44.777344 98.964844 49.542969 94.195313 55.425781 94.195313 Z M 55.425781 94.195313 "/>
<g clip-path="url(#clip1)" clip-rule="nonzero">
<path style=" stroke:none;fill-rule:evenodd;fill:rgb(94.139099%,48.631287%,0%);fill-opacity:1;" d="M 405.316406 61.089844 L 411.316406 61.089844 C 415.851563 61.089844 419.566406 64.804688 419.566406 69.339844 L 419.566406 115.71875 C 419.566406 120.949219 435.066406 120.949219 435.066406 115.71875 L 435.066406 69.339844 C 435.066406 64.804688 438.777344 61.089844 443.316406 61.089844 L 449.316406 61.089844 C 453.851563 61.089844 457.566406 64.804688 457.566406 69.339844 L 457.566406 115.71875 C 456.253906 129.121094 446.171875 136.121094 427.316406 136.71875 C 408.460938 136.121094 398.375 129.121094 397.066406 115.71875 L 397.066406 69.339844 C 397.066406 64.804688 400.777344 61.089844 405.316406 61.089844 Z M 643.324219 58.851563 L 642.949219 58.851563 L 642.949219 60.691406 L 643.464844 60.691406 C 643.839844 60.691406 644.117188 60.613281 644.308594 60.453125 C 644.5 60.296875 644.59375 60.0625 644.59375 59.761719 C 644.59375 59.445313 644.496094 59.21875 644.289063 59.070313 C 644.085938 58.925781 643.761719 58.851563 643.324219 58.851563 Z M 643.699219 57.324219 C 644.804688 57.324219 645.644531 57.523438 646.230469 57.910156 C 646.8125 58.296875 647.101563 58.867188 647.101563 59.613281 C 647.101563 60.113281 646.964844 60.539063 646.691406 60.90625 C 646.417969 61.269531 646.035156 61.539063 645.539063 61.710938 L 647.234375 65.097656 L 644.574219 65.097656 L 643.1875 62.121094 L 642.949219 62.121094 L 642.949219 65.097656 L 640.503906 65.097656 L 640.503906 57.324219 Z M 649.332031 61.378906 C 649.332031 60.613281 649.1875 59.882813 648.902344 59.1875 C 648.613281 58.492188 648.203125 57.878906 647.667969 57.34375 C 647.113281 56.789063 646.496094 56.371094 645.808594 56.085938 C 645.125 55.800781 644.394531 55.660156 643.617188 55.660156 C 642.832031 55.660156 642.097656 55.796875 641.417969 56.074219 C 640.734375 56.351563 640.132813 56.765625 639.601563 57.304688 C 639.054688 57.859375 638.632813 58.488281 638.339844 59.1875 C 638.046875 59.890625 637.898438 60.621094 637.898438 61.378906 C 637.898438 62.136719 638.042969 62.863281 638.335938 63.554688 C 638.625 64.242188 639.042969 64.859375 639.582031 65.402344 C 640.132813 65.949219 640.75 66.371094 641.4375 66.660156 C 642.125 66.949219 642.851563 67.09375 643.617188 67.09375 C 644.375 67.09375 645.105469 66.949219 645.800781 66.652344 C 646.496094 66.359375 647.128906 65.9375 647.6875 65.386719 C 648.230469 64.851563 648.640625 64.246094 648.917969 63.570313 C 649.195313 62.890625 649.332031 62.160156 649.332031 61.378906 Z M 643.597656 54.195313 C 644.585938 54.195313 645.515625 54.371094 646.394531 54.730469 C 647.269531 55.085938 648.046875 55.605469 648.730469 56.289063 C 649.390625 56.953125 649.902344 57.730469 650.261719 58.609375 C 650.621094 59.488281 650.800781 60.414063 650.800781 61.382813 C 650.800781 62.363281 650.625 63.285156 650.269531 64.140625 C 649.917969 64.996094 649.40625 65.753906 648.730469 66.414063 C 648.019531 67.101563 647.226563 67.628906 646.339844 68.003906 C 645.453125 68.371094 644.539063 68.5625 643.597656 68.5625 C 642.648438 68.5625 641.742188 68.378906 640.886719 68.019531 C 640.023438 67.65625 639.246094 67.121094 638.550781 66.433594 C 637.863281 65.746094 637.339844 64.972656 636.976563 64.109375 C 636.613281 63.242188 636.433594 62.335938 636.433594 61.382813 C 636.433594 60.414063 636.613281 59.496094 636.980469 58.621094 C 637.347656 57.738281 637.878906 56.949219 638.570313 56.246094 C 639.226563 55.578125 639.984375 55.070313 640.847656 54.71875 C 641.703125 54.371094 642.625 54.195313 643.597656 54.195313 Z M 514.300781 78.691406 C 519.285156 70.363281 517.949219 65.570313 509.554688 62.566406 C 488.621094 56.773438 474.535156 59.648438 468.054688 72.941406 C 463.828125 85.429688 467.078125 94.71875 477.800781 100.816406 C 487.550781 104.316406 492.425781 106.066406 492.425781 106.066406 C 497.273438 107.335938 499.734375 110.164063 499.800781 114.566406 C 499.175781 120.476563 490.757813 120.265625 474.550781 113.941406 C 467.214844 111.609375 463.050781 113.441406 462.050781 119.441406 C 461.179688 126.515625 465.679688 131.429688 475.550781 134.191406 C 492.5 138.707031 505.164063 136.707031 513.550781 128.191406 C 517.796875 122.070313 519.371094 114.59375 518.113281 107.5625 C 515.253906 91.578125 503.621094 91.757813 490.300781 86.941406 C 486.085938 84.601563 484.460938 82.144531 485.425781 79.566406 C 489.5 67.257813 510.171875 83.964844 514.300781 78.691406 Z M 602.679688 61.34375 L 596.933594 61.34375 C 592.601563 61.34375 589.054688 64.886719 589.054688 69.21875 L 589.054688 128.21875 C 589.054688 132.546875 592.601563 136.09375 596.933594 136.09375 L 602.679688 136.09375 C 607.011719 136.09375 610.558594 132.546875 610.558594 128.21875 L 610.558594 107.304688 L 626.382813 107.304688 C 629.984375 107.304688 632.929688 104.355469 632.929688 100.757813 L 632.929688 95.976563 C 632.929688 92.371094 629.984375 89.429688 626.382813 89.429688 L 610.558594 89.429688 L 610.558594 79.21875 L 628.390625 79.21875 C 631.992188 79.21875 634.9375 76.273438 634.9375 72.671875 L 634.9375 67.890625 C 634.9375 64.289063 631.988281 61.34375 628.390625 61.34375 Z M 321.015625 10.257813 C 345.289063 10.257813 367.261719 20.09375 383.167969 35.996094 C 389.683594 42.515625 395.179688 50.046875 399.398438 58.335938 C 398.320313 58.914063 397.339844 59.652344 396.480469 60.507813 C 394.839844 62.152344 393.648438 64.253906 393.117188 66.597656 C 389.15625 57.554688 383.539063 49.398438 376.65625 42.515625 C 362.417969 28.277344 342.746094 19.46875 321.015625 19.46875 C 299.289063 19.46875 279.617188 28.277344 265.378906 42.515625 C 251.136719 56.753906 242.332031 76.425781 242.332031 98.152344 C 242.332031 119.882813 251.136719 139.554688 265.378906 153.789063 C 279.617188 168.03125 299.289063 176.839844 321.015625 176.839844 C 342.746094 176.839844 362.417969 168.03125 376.65625 153.789063 C 384.761719 145.691406 391.101563 135.824219 395.066406 124.824219 C 396.550781 128.140625 398.730469 130.96875 401.601563 133.308594 C 397.171875 143.449219 390.886719 152.589844 383.167969 160.308594 C 367.261719 176.214844 345.289063 186.046875 321.015625 186.046875 C 296.746094 186.046875 274.769531 176.214844 258.863281 160.308594 C 242.957031 144.398438 233.117188 122.421875 233.117188 98.152344 C 233.117188 73.882813 242.957031 51.90625 258.863281 35.996094 C 274.769531 20.09375 296.746094 10.257813 321.015625 10.257813 Z M 321.015625 -0.0117188 C 348.125 -0.0117188 372.667969 10.972656 390.429688 28.738281 C 398.523438 36.828125 405.210938 46.328125 410.09375 56.839844 L 405.378906 56.839844 C 400.792969 47.496094 394.703125 39.027344 387.425781 31.746094 C 370.429688 14.746094 346.949219 4.238281 321.015625 4.238281 C 295.082031 4.238281 271.601563 14.746094 254.609375 31.746094 C 237.613281 48.742188 227.101563 72.21875 227.101563 98.152344 C 227.101563 124.089844 237.613281 147.566406 254.609375 164.5625 C 271.601563 181.558594 295.082031 192.070313 321.015625 192.070313 C 346.949219 192.070313 370.429688 181.558594 387.425781 164.5625 C 395.445313 156.539063 402.023438 147.074219 406.730469 136.589844 C 407.960938 137.199219 409.269531 137.746094 410.65625 138.230469 C 405.730469 149.230469 398.839844 159.160156 390.429688 167.570313 C 372.667969 185.332031 348.125 196.320313 321.015625 196.320313 C 293.910156 196.320313 269.367188 185.332031 251.601563 167.570313 C 233.835938 149.804688 222.847656 125.261719 222.847656 98.152344 C 222.847656 71.046875 233.835938 46.503906 251.601563 28.738281 C 269.367188 10.972656 293.910156 -0.0117188 321.015625 -0.0117188 Z M 267.867188 74.234375 C 261.707031 66.164063 263.253906 54.628906 271.324219 48.46875 C 279.394531 42.308594 290.929688 43.855469 297.089844 51.925781 L 321.0625 83.152344 L 345.03125 51.925781 C 351.195313 43.855469 362.730469 42.308594 370.800781 48.46875 C 378.867188 54.628906 380.414063 66.164063 374.253906 74.234375 L 339.488281 119.527344 L 339.488281 149.09375 C 339.488281 159.269531 331.238281 167.519531 321.0625 167.519531 C 310.886719 167.519531 302.636719 159.269531 302.636719 149.09375 L 302.636719 119.527344 Z M 531.316406 61.089844 L 537.316406 61.089844 C 541.851563 61.089844 545.566406 64.804688 545.566406 69.339844 L 545.566406 115.71875 C 545.566406 120.949219 561.066406 120.949219 561.066406 115.71875 L 561.066406 69.339844 C 561.066406 64.804688 564.777344 61.089844 569.316406 61.089844 L 575.316406 61.089844 C 579.851563 61.089844 583.566406 64.804688 583.566406 69.339844 L 583.566406 115.71875 C 582.253906 129.121094 572.171875 136.121094 553.316406 136.71875 C 534.460938 136.121094 524.375 129.121094 523.066406 115.71875 L 523.066406 69.339844 C 523.066406 64.804688 526.777344 61.089844 531.316406 61.089844 Z M 531.316406 61.089844 "/>
</g>
</g>
</svg>
