<svg width="108" height="40" viewBox="0 0 108 40" fill="none" xmlns="http://www.w3.org/2000/svg">
<path d="M20 0.239993C18.1 0.479993 9.98001 0.539993 8.06001 0.339993L6.60001 0.179993V0.779993C6.60001 1.29999 6.68001 1.39999 7.10001 1.39999C7.84001 1.39999 9.34001 2.19999 9.58001 2.73999C9.88001 3.39999 9.86001 4.53999 9.52001 5.71999C9.36001 6.25999 8.04001 11.1 6.60001 16.5C4.92001 22.78 3.8 26.6 3.48 27.16C2.94 28.06 2.02 28.66 0.760001 28.88C0.14 29 0 29.1 0 29.48V29.96L4.54001 30.06C7.90001 30.12 9.76001 30.26 11.6 30.58C12.98 30.82 14.26 31.06 14.46 31.12C14.72 31.2 14.8 31.12 14.8 30.72C14.8 30.36 14.7 30.2 14.46 30.2C13.98 30.2 12.84 29.28 12.5 28.6C12.16 27.92 12.12 26.6 12.4 25.6C12.52 25.22 12.98 23.28 13.42 21.3C14.4 16.9 14.34 17.1 14.66 17.38C14.8 17.5 16.34 19.86 18.08 22.64C21.76 28.56 23.22 30.58 25.66 33.14C30.44 38.14 34.44 39.88 41.1 39.86C43.5 39.84 44.4201 39.76 45.7001 39.42C48.1801 38.78 50.3201 37.62 51.9201 36.08C52.6801 35.36 53.1201 34.82 52.9001 34.9C51.9201 35.22 48.6601 35.82 46.8601 36C43.4201 36.36 41.14 35.98 38.32 34.56C34.6 32.7 32.24 30.74 29.8 27.5C27.62 24.58 21.6 15.44 21.6 15.02C21.6 14.86 28.64 8.11999 33.04 4.05999C34.74 2.47999 37.04 1.19999 38.12 1.19999C38.74 1.19999 38.8 1.15999 38.8 0.579993C38.8 0.0399928 38.74 -0.0200072 38.36 0.0599928C38.1 0.119993 36.74 0.279993 35.3 0.419993C32.78 0.639993 30.18 0.559993 27.54 0.199993C26.22 -7.22706e-06 26 0.0999928 26 0.939993C26 1.33999 26.1 1.39999 26.78 1.39999C27.54 1.39999 28.6 2.09999 28.6 2.61999C28.6 3.27999 27.76 4.33999 25.94 6.01999C24.02 7.77999 18.06 13.36 15.96 15.38C15.44 15.88 14.96 16.22 14.88 16.16C14.72 15.98 17.94 4.29999 18.4 3.39999C19.02 2.19999 20.46 1.19999 21.6 1.19999C21.82 1.19999 22 1.07999 22 0.919993C22 0.759993 22.06 0.499993 22.12 0.319993C22.26 -0.0400072 22.26 -0.0400072 20 0.239993Z" fill="#004416"/>
<path d="M95.3831 0.460355C93.9631 0.860355 92.6631 1.74036 90.8031 3.52036C89.2031 5.08036 89.1231 5.20036 89.4431 5.52036C89.7631 5.84036 89.8231 5.82036 90.5831 5.20036C91.3831 4.58036 92.0031 4.50036 92.0031 5.04036C92.0031 5.18036 91.7231 6.34036 91.4031 7.60036C88.2231 19.6004 87.2031 23.6804 87.2031 24.2804C87.2031 25.8404 89.3631 26.5204 91.4031 25.5804C92.4631 25.1004 96.0031 22.2804 96.0031 21.9004C96.0031 21.7604 95.8831 21.5404 95.7231 21.4204C95.5031 21.2404 95.2831 21.3004 94.7031 21.7004C93.8631 22.2604 93.4831 22.3204 93.3631 21.9404C93.3031 21.8204 94.4031 17.4604 95.8031 12.3004C97.2031 7.12036 98.4031 2.58036 98.4831 2.16036C98.7431 0.700355 97.3431 -0.0796449 95.3831 0.460355Z" fill="#004416"/>
<path d="M83.6578 2.58001C82.4578 3.34001 82.0378 5.02001 82.7378 6.22001C82.9378 6.54001 83.4578 7.00001 83.9378 7.22001C86.6378 8.52001 88.9978 5.00001 86.8178 2.92001C86.0178 2.14001 84.5778 2.00001 83.6578 2.58001Z" fill="#004416"/>
<path d="M103.483 2.58039C102.783 3.00039 102.203 4.08039 102.203 4.96039C102.203 5.7604 102.963 6.82039 103.843 7.2604C105.143 7.90039 106.743 7.2604 107.323 5.88039C107.683 5.00039 107.683 4.52039 107.263 3.66039C106.843 2.76039 105.923 2.2004 104.903 2.2004C104.463 2.2004 103.823 2.38039 103.483 2.58039Z" fill="#004416"/>
<path d="M82.6644 9.67989C81.5644 10.0399 79.6244 11.4399 78.0444 13.0399C76.9444 14.1599 76.8244 14.3599 77.0644 14.6599C77.2844 14.9999 77.3644 14.9799 78.1044 14.4199C78.9644 13.7799 79.6044 13.6199 79.6044 14.0799C79.6044 14.2199 79.0644 16.5799 78.4044 19.2999C77.0844 24.6999 77.0644 25.0399 78.1444 25.7399C78.7844 26.1599 80.6444 25.9999 81.8044 25.4399C82.8044 24.9599 86.0644 22.3199 86.1644 21.9199C86.2044 21.7799 86.0844 21.5599 85.9244 21.4199C85.6844 21.2199 85.4844 21.2599 84.8644 21.6799C84.0644 22.2399 83.7044 22.3199 83.5044 21.9999C83.4444 21.8999 83.9644 19.5799 84.6844 16.8599C86.4244 10.1399 86.3444 10.7199 85.6444 9.99989C84.9644 9.31989 84.1244 9.23989 82.6644 9.67989Z" fill="#004416"/>
<path d="M102.66 9.69945C101.32 10.0994 100.16 10.8794 98.4199 12.5195C96.8999 13.9395 96.5199 14.5995 96.9999 14.8995C97.1199 14.9795 97.5599 14.7595 97.9799 14.4195C98.9399 13.6595 99.3999 13.6195 99.3999 14.2995C99.3999 14.5795 98.8999 16.7795 98.2999 19.1995C97.6999 21.6195 97.1999 23.8995 97.1999 24.2795C97.1999 25.8395 99.3599 26.4995 101.4 25.5795C102.46 25.0995 106 22.2795 106 21.8995C106 21.7595 105.88 21.5395 105.72 21.4195C105.5 21.2395 105.28 21.2995 104.7 21.6995C103.86 22.2595 103.48 22.3195 103.36 21.9395C103.32 21.8195 103.9 19.2995 104.66 16.3795C105.6 12.8195 106.02 10.8794 105.92 10.5195C105.68 9.51945 104.3 9.17945 102.66 9.69945Z" fill="#004416"/>
<path d="M54.08 9.87978C53.64 10.0198 52.7 10.5198 51.98 10.9998C50.62 11.9398 48.2 14.2198 48.2 14.5798C48.2 15.0398 48.8 15.0198 49.54 14.5198C50.32 13.9798 50.7 13.8798 50.88 14.1798C50.94 14.2798 50.32 16.9398 49.5 20.0998C48.68 23.2598 48 25.8598 48 25.8798C48 25.8998 49.28 25.8798 50.84 25.8598L53.7 25.8198L54.5 22.5198C55.44 18.6598 55.98 17.6598 57.98 16.1398C59.3 15.1398 59.66 15.0598 59.76 15.7398C59.82 16.0798 57.66 24.4998 57.26 25.5398C57.18 25.7598 57.64 25.7998 60.02 25.7598L62.9 25.6998L63.8 22.1998C64.76 18.4398 65 17.9598 66.56 16.5998C67.88 15.4198 68.58 15.0798 68.92 15.4398C69.14 15.6598 69 16.3798 68.08 19.6998C66.88 24.0798 66.84 24.7798 67.74 25.6198C68.48 26.3198 69.92 26.2598 71.6 25.4398C73.08 24.7198 75.9 22.3798 75.9 21.8598C75.9 21.2998 75.26 21.3198 74.58 21.8798C73.86 22.4998 72.92 22.5998 73.08 22.0398C73.9 19.2998 75.8 11.6398 75.8 11.0998C75.8 9.99978 75.26 9.59978 73.74 9.59978C71.98 9.59978 70.6 10.3198 68.04 12.5998C65.88 14.5198 65.76 14.5398 66.3 12.7198C66.74 11.2998 66.68 10.6598 66.08 10.0598C65.6 9.57978 65.46 9.55978 64.28 9.65978C62.3 9.81978 60.68 10.6998 58.52 12.8198L56.74 14.5798L56.88 13.7398C57.36 10.8598 57.28 10.1998 56.5 9.83978C55.86 9.53978 55.12 9.55978 54.08 9.87978Z" fill="#004416"/>
<path d="M37.024 10.1204C33.584 11.0404 30.424 14.3204 29.624 17.8004C29.324 19.1004 29.364 21.1804 29.704 22.3404C30.084 23.6004 31.344 25.0604 32.604 25.7004C35.384 27.1004 39.584 26.7404 42.544 24.8204C47.544 21.6004 48.784 13.9004 44.784 11.0004C44.324 10.6804 43.484 10.2604 42.944 10.1004C41.664 9.72038 38.464 9.72038 37.024 10.1204ZM40.624 11.8004C40.724 11.8004 40.984 12.1004 41.204 12.4404C42.064 13.8604 41.464 18.4404 40.024 21.5204C39.704 22.2204 39.024 23.2004 38.504 23.7004C37.664 24.5404 37.524 24.6204 36.764 24.5604C36.064 24.5204 35.844 24.3804 35.444 23.8004C34.984 23.1404 34.964 22.9804 35.064 20.9004C35.224 17.6004 36.124 14.9204 37.704 13.0404C38.264 12.3604 39.764 11.5404 40.164 11.7004C40.324 11.7604 40.524 11.8004 40.624 11.8004Z" fill="#004416"/>
</svg>
