<svg xmlns="http://www.w3.org/2000/svg" viewBox="0 0 360.41 60.28"><g id="Layer_2" data-name="Layer 2"><g id="Layer_1-2" data-name="Layer 1"><path d="M360.41.83h-6.57V29H320.13V.83h-6.57V59.58h6.57V30.2h33.71V59.58h6.57ZM295.25,2.42A28.18,28.18,0,0,0,284.13,0c-8.05,0-16.74,4.24-16.74,13.11,0,7.49,6.49,12.08,15.7,18.61,8.75,6.23,12.25,10.21,12.25,15.92,0,6.83-5.32,11.42-13.19,11.42-9.7,0-16.19-7-16.19-7V55a26.52,26.52,0,0,0,15.93,5.28c8.47,0,19.29-4.06,19.29-15.4,0-9.13-7.66-14.32-16.79-20.6-8-5.54-11.94-8.18-11.94-13.67,0-5.75,5.19-9.39,11.51-9.39a19.72,19.72,0,0,1,11.29,3.86ZM247.83,59.58h6.53V.83h-6.53ZM211.14,2c8.61,0,11.94,5.22,11.94,11.8s-3.29,11.82-11.9,11.82H205.6V2Zm2.38,24.78c10.64,0,15.8,7,15.8,15.8s-5.16,15.75-15.8,15.75h-8V26.82ZM199,.83V59.58H214.3c11.55,0,22.07-6,22.07-17,0-9.74-8.35-15.62-18.31-16.79,6.23-1.68,11-5.58,11-12.33,0-9-8.57-12.63-18.61-12.63Zm-21.5,58.75H184V.83h-6.53ZM164.5,2V.83H132.18V59.58H164.5V58.37H138.76V30.2H160.3V29H138.76V2ZM92.37,59.58h29.25V58.37H99V.83H92.37Z"/><polygon points="47.68 40.41 66.03 58.76 64.94 59.84 41.08 35.98 64.89 12.18 70.39 17.68 47.68 40.41"/><polygon points="22.76 40.41 0 17.65 5.5 12.14 29.36 35.98 5.5 59.84 4.42 58.74 22.76 40.41"/><polygon points="59.09 6.33 35.15 30.26 11.26 6.38 16.78 0.86 35.15 19.25 53.57 0.83 59.09 6.33"/></g></g></svg>