<svg xmlns="http://www.w3.org/2000/svg" width="140.887" height="22.204" viewBox="0 0 140.887 22.204">
  <g id="Group_521" data-name="Group 521" transform="translate(-153 -85)">
    <g id="Group_520" data-name="Group 520" transform="translate(153 85)">
      <g id="Group_519" data-name="Group 519">
        <path id="Path_175" data-name="Path 175" d="M619.32,336.153a9.475,9.475,0,0,1-9.464-9.465V314.343h4.422v12.345a5.042,5.042,0,0,0,10.083,0V314.343h4.454v12.345A9.491,9.491,0,0,1,619.32,336.153Z" transform="translate(-593.204 -313.949)" fill="#1a1d22"/>
        <path id="Path_176" data-name="Path 176" d="M628.195,335.829V315.677a1.335,1.335,0,0,1,1.334-1.334h3.088v20.152a1.335,1.335,0,0,1-1.334,1.334Z" transform="translate(-589.299 -313.949)" fill="#1a1d22"/>
        <path id="Path_177" data-name="Path 177" d="M673.807,335.829V315.677a1.334,1.334,0,0,1,1.334-1.334h3.088v20.152a1.334,1.334,0,0,1-1.334,1.334Z" transform="translate(-579.587 -313.949)" fill="#1a1d22"/>
        <path id="Path_178" data-name="Path 178" d="M680.227,335.829V314.343h16.629v3.121a1.335,1.335,0,0,1-1.334,1.334H684.649v4.093H694.2v4.424h-9.552v4.094h10.873a1.335,1.335,0,0,1,1.334,1.334v3.088Z" transform="translate(-578.219 -313.949)" fill="#1a1d22"/>
        <path id="Path_179" data-name="Path 179" d="M709.285,334.081l-8.506-12.914v14.668h-4.422V314.317H699.4a4.041,4.041,0,0,1,3.376,1.817l8.472,12.849V314.348h4.422V335.9H712.66A4.042,4.042,0,0,1,709.285,334.081Z" transform="translate(-574.785 -313.954)" fill="#1a1d22"/>
        <path id="Path_180" data-name="Path 180" d="M673.523,325.313l-.261-.321.243-.336a6.477,6.477,0,0,0-5.228-10.312H656.126v21.486H668.5a6.477,6.477,0,0,0,6.486-6.453A6.4,6.4,0,0,0,673.523,325.313Zm-5.307-6.515a2.079,2.079,0,0,1,2.091,2.08,2.048,2.048,0,0,1-2.031,2.012h-7.729V318.8Zm.227,12.609h-7.9v-4.094h7.891a2.047,2.047,0,1,1,0,4.094Z" transform="translate(-583.352 -313.949)" fill="#1a1d22"/>
        <path id="Path_181" data-name="Path 181" d="M651.289,326.93a5.789,5.789,0,0,0-1.959-2.073,11.088,11.088,0,0,0-1.88-.976,29.567,29.567,0,0,0-3.35-1.054c-.6-.163-1.217-.33-1.829-.519a3.6,3.6,0,0,1-2.2-1.447l-.015-.024-.123-.274-.01-.032a2,2,0,0,1-.063-.306,1.636,1.636,0,0,1,.224-1.076A3.111,3.111,0,0,1,642,317.956a6.7,6.7,0,0,1,1.557-.18l.01.008a10.046,10.046,0,0,1,4.333,1.1,1.6,1.6,0,0,0,2.024-.613l1.325-2.225a18.254,18.254,0,0,0-7.495-2.028,12.969,12.969,0,0,0-3.232.343,8.331,8.331,0,0,0-4.17,2.265l-.013.015a5.536,5.536,0,0,0-1.559,3.584c0,.044-.009.087-.01.131a5.325,5.325,0,0,0,1.471,3.716l.012.012a8.144,8.144,0,0,0,3.589,2.06c.7.227,1.428.415,2.135.6.725.186,1.475.377,2.2.614a3.861,3.861,0,0,1,2.622,1.889,1.876,1.876,0,0,1,.132.375l.007.025,0,.026a1.941,1.941,0,0,1-.447,1.626,3.85,3.85,0,0,1-2.7,1.02c-.08,0-.159,0-.238,0a11.967,11.967,0,0,1-3.164-.549,16.354,16.354,0,0,1-2.785-1.1,1.605,1.605,0,0,0-2.109.571l-1.423,2.391a17.257,17.257,0,0,0,6.317,2.41c.412.067.831.119,1.254.15.355.026.712.034,1.056.034a11.774,11.774,0,0,0,4.49-.8,7.926,7.926,0,0,0,4.037-3.488A5.358,5.358,0,0,0,651.289,326.93Z" transform="translate(-588.048 -314.018)" fill="#1a1d22"/>
        <path id="Path_182" data-name="Path 182" d="M600.55,331.374V314.343h-4.422v21.486h15.6v-3.121a1.335,1.335,0,0,0-1.334-1.334Z" transform="translate(-596.128 -313.949)" fill="#1a1d22"/>
      </g>
    </g>
  </g>
</svg>
