<svg width="129" height="34" xmlns="http://www.w3.org/2000/svg"><path d="M126.85 10.922c-2.065-1.993-4.88-2.045-5.424-2.036-.419-.008-2.194.026-3.933.959V8.86h-3.53v17.556h3.53V16.229c0-1.228.31-2.128.946-2.751 1.108-1.086 2.919-1.061 2.925-1.061l.062.001.063-.001c.018 0 1.81-.015 2.91 1.046.646.624.96 1.529.96 2.766v10.173h3.531V16.229c0-2.215-.686-4-2.04-5.307M24.081 0l-12.04 11.293L0 0v26.402h3.53V8.152l8.51 7.982 8.51-7.982v18.25h3.53zm33.257 3.698a9.681 9.681 0 017.988 4.219l2.914-1.995A13.211 13.211 0 0057.338.168c-7.28 0-13.2 5.921-13.2 13.2 0 7.28 5.92 13.201 13.2 13.201 4.123 0 7.935-1.876 10.457-5.147l-2.796-2.156a9.611 9.611 0 01-7.661 3.772c-5.332 0-9.67-4.338-9.67-9.67s4.338-9.67 9.67-9.67M41.645 19.219h-.008V9.628h-3.53v9.83c-.04 1.111-.35 1.94-.952 2.518-1.167 1.122-3.112 1.057-3.12 1.057l-.094-.003c-1.53 0-2.528-.577-3.139-1.816-.533-1.081-.554-2.242-.554-2.243V9.628h-3.53v9.343c0 3.043 1.914 7.566 7.182 7.59.052.002.129.004.226.004.614 0 2.047-.081 3.516-.738-.298.959-.784 1.987-1.585 2.81-1.116 1.145-2.638 1.701-4.651 1.701v3.531c2.974 0 5.39-.931 7.18-2.769 3.053-3.133 3.059-7.784 3.051-8.24v-3.444c.002-.067.008-.13.008-.197m65.257 2.542c-1.118 1.116-2.97 1.131-3.007 1.125-.01 0-1.124-.013-2.16-.545-1.208-.62-1.771-1.658-1.771-3.266v-2.778c0-1.603.563-2.64 1.774-3.262 1.036-.534 2.151-.55 2.15-.55h.043c.086 0 1.87.014 2.964 1.097.629.623.935 1.51.935 2.715v2.778c0 1.185-.304 2.064-.928 2.686zm.928-11.825c-1.785-.964-3.607-.987-3.95-.982-.444.002-3.378.093-5.477 2.182-1.308 1.3-1.97 3.037-1.97 5.16v2.779c0 2.132.665 3.873 1.976 5.174 2.104 2.088 5.04 2.168 5.477 2.168h.042c.416 0 2.176-.063 3.902-.999v1.01h3.53V8.871h-3.53v1.064zm-25.114 6.232c.03-1.53.595-2.527 1.773-3.133 1.036-.534 2.151-.55 2.15-.55h.043c.087 0 1.87.015 2.964 1.097.604.598.91 1.44.934 2.573l-7.864.013zm3.914-7.214c-.443.001-3.377.093-5.476 2.182-1.307 1.3-1.97 3.037-1.97 5.16v2.779c0 2.132.665 3.873 1.976 5.174 2.105 2.088 5.042 2.168 5.465 2.168h.023c.38 0 3.771-.07 5.807-2.486l-2.7-2.275c-.834.989-2.533 1.224-3.12 1.23-.026 0-1.874-.038-2.988-1.143-.51-.507-.808-1.18-.9-2.044l11.365-.02v-3.383c0-2.183-.678-3.952-2.016-5.256-2.11-2.059-5.023-2.092-5.466-2.086zM74.296 21.993l.001.003V.153h-3.53v21.753c-.006.356.042 1.946 1.22 3.173.588.611 1.667 1.34 3.476 1.34h1.892v-3.53h-1.892c-.405 0-1.161 0-1.167-.896" fill="#14374C" fill-rule="evenodd"/></svg>