<svg xmlns="http://www.w3.org/2000/svg" viewBox="0 0 64 64"><defs><style>.cls-1{fill:#333;}.cls-2{fill:#ccc;}.cls-3{fill:#ff9811;}.cls-4{fill:#bdccd4;}.cls-5{fill:#5aaae7;}.cls-6{fill:#1e81ce;}.cls-7{fill:#126fad;}.cls-8{fill:#ec8600;}.cls-9{fill:#b30222;}.cls-10{fill:#ff0c38;}.cls-11{fill:#b3b3b3;}.cls-12{fill:#ee8700;}</style></defs><g id="Flat_Icons" data-name="Flat Icons"><circle class="cls-1" cx="11" cy="40" r="5"></circle><circle class="cls-2" cx="11" cy="40" r="2"></circle><circle class="cls-1" cx="52" cy="40" r="5"></circle><circle class="cls-2" cx="52" cy="40" r="2"></circle><path class="cls-3" d="M6,42H2L1,36H4l1-3H2l1-2,16-3,6-8H59l2,8h1l1,4v9l-6,1V40h0a5,5,0,0,0-5-5h0a5,5,0,0,0-5,5h0v2H16V40h0a5,5,0,0,0-5-5h0a5,5,0,0,0-5,5Z"></path><polygon class="cls-4" points="2 33 2 36 4 36 5 33 2 33"></polygon><polygon class="cls-5" points="25 20 19 28 32 28 32 20 25 20"></polygon><polygon class="cls-6" points="32 20 44 20 45 28 32 28 32 20"></polygon><polygon class="cls-7" points="59 20 44 20 45 28 61 28 59 20"></polygon><path class="cls-8" d="M45,39H32a1,1,0,0,1-1-1V20a1,1,0,0,1,1-1H44a1,1,0,0,1,1,.88l1,8A.49.49,0,0,1,46,28V38A1,1,0,0,1,45,39ZM33,37H44V28.06L43.12,21H33Z"></path><path class="cls-8" d="M32,39H19a1,1,0,0,1-1-1V28a1,1,0,0,1,.2-.6l6-8A1,1,0,0,1,25,19h7a1,1,0,0,1,1,1V38A1,1,0,0,1,32,39ZM20,37H31V21H25.5L20,28.33Z"></path><polygon class="cls-3" points="59 20 24 20 26 17 58 17 59 20"></polygon><path class="cls-3" d="M57,29a1,1,0,0,1-1-.76l-2-8A1,1,0,0,1,56,19.76l2,8A1,1,0,0,1,57.24,29,1,1,0,0,1,57,29Z"></path><polygon class="cls-9" points="63 32 60 32 59 28 62 28 63 32"></polygon><rect class="cls-10" x="60" y="32" width="3" height="4"></rect><rect class="cls-11" x="31" y="11" width="25" height="3"></rect><path class="cls-11" d="M32,18a1.25,1.25,0,0,1-.32-.05,1,1,0,0,1-.63-1.27l1-3a1,1,0,0,1,1.9.64l-1,3A1,1,0,0,1,32,18Z"></path><path class="cls-11" d="M54,18a1,1,0,0,1-1-.68l-1-3a1,1,0,1,1,1.9-.64l1,3A1,1,0,0,1,54.32,18,1.25,1.25,0,0,1,54,18Z"></path><path class="cls-8" d="M41,33H40a1,1,0,0,1,0-2h1a1,1,0,0,1,0,2Z"></path><path class="cls-8" d="M28,33H27a1,1,0,0,1,0-2h1a1,1,0,0,1,0,2Z"></path><polygon class="cls-8" points="2 33 5 33 19 28 3 31 2 33"></polygon><polygon class="cls-2" points="31 14 56 11 31 11 31 14"></polygon><polygon class="cls-12" points="46 28 60 32 59 28 46 28"></polygon></g></svg>