<?xml version="1.0" encoding="UTF-8"?>
<svg id="Layer_1" data-name="Layer 1" xmlns="http://www.w3.org/2000/svg" viewBox="0 0 48 48">
  <defs>
    <style>
      .cls-1 {
        fill: #0ca0f2;
      }

      .cls-2 {
        fill: #cfe0f3;
      }

      .cls-3 {
        fill: #0d3b8d;
      }

      .cls-4 {
        fill: #0588e2;
      }

      .cls-5 {
        fill: #6ee7ff;
      }

      .cls-6 {
        fill: #ffc343;
      }

      .cls-7 {
        fill: #00286f;
      }

      .cls-8 {
        fill: #f6a28d;
      }

      .cls-9 {
        fill: #ffa221;
      }

      .cls-10 {
        fill: #47caf0;
      }

      .cls-11 {
        fill: #aecee8;
      }

      .cls-12 {
        fill: #20aee1;
      }

      .cls-13 {
        fill: #ffcdb4;
      }
    </style>
  </defs>
  <rect class="cls-10" x="13.563" y="15.2" width="34.572" height="8.078" rx="1" ry="1" transform="translate(4.282 44.058) rotate(-75)"/>
  <path class="cls-5" d="m24.793,34.701L33.335,2.821c.072-.269.196-.51.357-.716l-1.305-.35c-.533-.143-1.082.174-1.225.707l-8.43,31.462c-.143.533.174,1.082.707,1.225l1.305.35c-.037-.259-.024-.53.048-.798Z"/>
  <path class="cls-12" d="m37.931,8.416l-1.97-.528c-.533-.143-.85-.691-.707-1.225h0c.143-.533.691-.85,1.225-.707l1.97.528-.518,1.932Z"/>
  <path class="cls-12" d="m36.895,12.28l-1.97-.528c-.533-.143-.85-.691-.707-1.225h0c.143-.533.691-.85,1.225-.707l1.97.528-.518,1.932Z"/>
  <path class="cls-12" d="m35.86,16.144l-1.97-.528c-.533-.143-.85-.691-.707-1.225h0c.143-.533.691-.85,1.225-.707l1.97.528-.518,1.932Z"/>
  <path class="cls-12" d="m34.825,20.008l-1.97-.528c-.533-.143-.85-.691-.707-1.225h0c.143-.533.691-.85,1.225-.707l1.97.528-.518,1.932Z"/>
  <path class="cls-6" d="m20.833,25.179l-5.796,1.553-4.932-18.406c-.161-.6-.18-1.229-.055-1.837l.755-3.688c.165-.807,1.181-1.08,1.728-.463l2.497,2.816c.412.465.71,1.019.871,1.619l4.932,18.406Z"/>
  <path class="cls-9" d="m13.648,7.218c-.106-.394-.226-.785-.362-1.17l-1.161-3.301c-.102-.289-.267-.534-.469-.738.309-.041.637.05.876.32l2.497,2.816c.412.465.71,1.019.871,1.619l4.932,18.406-2.215.594L13.648,7.218Z"/>
  <path class="cls-13" d="m15.901,6.772c-.161-.6-.459-1.154-.871-1.619l-2.497-2.816c-.547-.617-1.563-.344-1.728.463l-.755,3.688c-.125.608-.106,1.237.055,1.837l.014.054,5.796-1.553-.014-.054Z"/>
  <path class="cls-8" d="m15.901,6.772c-.161-.6-.459-1.154-.871-1.619l-2.497-2.816c-.238-.268-.564-.36-.87-.32.199.203.362.445.463.731l1.161,3.301c.136.385.256.775.362,1.17l.054.201,2.213-.593-.014-.054Z"/>
  <path class="cls-3" d="m14.057,4.056l-1.524-1.719c-.547-.617-1.563-.344-1.728.463l-.461,2.25,3.712-.995Z"/>
  <path class="cls-7" d="m12.533,2.337c-.238-.268-.564-.36-.87-.32.199.203.362.445.463.731l.587,1.669,1.345-.36-1.524-1.719Z"/>
  <path class="cls-2" d="m25,6h-4V1C21,.448,21.448,0,22,0h2C24.552,0,25,.448,25,1v5Z"/>
  <path class="cls-11" d="m24,0h-1.277c.172.295.277.634.277,1v5h2V1c0-.552-.448-1-1-1Z"/>
  <rect class="cls-3" x="20" y="4" width="6" height="23" rx="1" ry="1"/>
  <path class="cls-7" d="m25,4h-1.277c.172.295.277.634.277,1v21c0,.366-.106.705-.277,1h1.277c.552,0,1-.448,1-1V5c0-.552-.448-1-1-1Z"/>
  <rect class="cls-2" x="11" y="20" width="26" height="26"/>
  <rect class="cls-11" x="33" y="20" width="4" height="26"/>
  <rect class="cls-1" x="9" y="43" width="30" height="5" rx="2.5" ry="2.5"/>
  <rect class="cls-1" x="9" y="18" width="30" height="5" rx="2.5" ry="2.5"/>
  <path class="cls-4" d="m36.5,43h-5c1.381,0,2.5,1.119,2.5,2.5s-1.119,2.5-2.5,2.5h5c1.381,0,2.5-1.119,2.5-2.5s-1.119-2.5-2.5-2.5Z"/>
  <path class="cls-4" d="m36.5,18h-5c1.381,0,2.5,1.119,2.5,2.5s-1.119,2.5-2.5,2.5h5c1.381,0,2.5-1.119,2.5-2.5s-1.119-2.5-2.5-2.5Z"/>
</svg>