<svg xmlns="http://www.w3.org/2000/svg" width="187.173" height="103.672" viewBox="0 0 187.173 103.672"><g transform="translate(-311.811 -188.537)"><path d="M321.331,275.992q0-5.431,7.913-5.429,4.289,0,6.433,1.676a6.4,6.4,0,0,1,2.23,3.663.214.214,0,0,0,.025.007,2.257,2.257,0,0,0,2.24,1.42l.642.005h6.2a15.507,15.507,0,0,0-1.408-6,13.184,13.184,0,0,0-3.588-4.625,16.548,16.548,0,0,0-5.53-2.951,23.536,23.536,0,0,0-7.238-1.041,22.452,22.452,0,0,0-7.209,1.041,15.5,15.5,0,0,0-5.129,2.816,11.085,11.085,0,0,0-3.084,4.191,13.3,13.3,0,0,0-1,5.161,13.634,13.634,0,0,0,1.14,5.966,10.242,10.242,0,0,0,3.551,3.993,22.1,22.1,0,0,0,6.134,2.747q3.72,1.108,8.816,2.18a19.952,19.952,0,0,1,3.488,1.036,7,7,0,0,1,2.114,1.309A3.757,3.757,0,0,1,339.1,294.8a7,7,0,0,1,.266,1.976,5.061,5.061,0,0,1-2.279,4.359q-2.277,1.61-6.7,1.609a11.226,11.226,0,0,1-6.8-1.978,6.419,6.419,0,0,1-2.479-3.488h-.022s-.007-.052-.024-.128-.051-.158-.069-.239a2.309,2.309,0,0,0-2.4-1.543h-6.775q.269,7.376,5.161,11.132t14.617,3.753a23.016,23.016,0,0,0,6.505-.906,16.594,16.594,0,0,0,5.361-2.616,12.786,12.786,0,0,0,3.62-4.189,11.8,11.8,0,0,0,1.341-5.7,16.728,16.728,0,0,0-.537-4.561,11.234,11.234,0,0,0-1.442-3.217,8.514,8.514,0,0,0-2.21-2.247,14.758,14.758,0,0,0-2.784-1.509,43.566,43.566,0,0,0-5.766-2.009q-3.149-.874-7.44-1.878a13.821,13.821,0,0,1-5.265-2.18,4,4,0,0,1-1.642-3.251" transform="translate(0 -35.681)" fill="#0971b9"/><path d="M420.775,262.715V309.12a1,1,0,0,0,1.036,1.142H429.8V262.715Zm-25.336,12.472h-9.023v22.488a14.409,14.409,0,0,0,.869,5.136,12.173,12.173,0,0,0,2.395,3.958,10.46,10.46,0,0,0,3.643,2.567,11.854,11.854,0,0,0,4.686.9q7.151,0,10.62-5.693V309c.012.037-.071,1.248.928,1.248,1.048.061,6.685,0,6.685,0a.953.953,0,0,0,.9-1.11c.007-.032.024-33.949.024-33.949h-8.957V294.9a8.591,8.591,0,0,1-1.769,5.59,6.339,6.339,0,0,1-5.242,2.188q-5.759,0-5.762-6.387ZM452.7,291.863v3.866a8.17,8.17,0,0,1-1.282,4.927,4.632,4.632,0,0,1-3.992,1.736,4.49,4.49,0,0,1-3.992-1.767,8.846,8.846,0,0,1-1.213-5.033V281.571h18.823c0-.012-.007-.049-.007-.049s.064-5.651-6.52-6.335h-12.3v-5.331l0,0c-.556-5.791-7.617-6.958-8.818-7.138h-.064v12.442h-1.144c-.345.049-.77.261-.729,1.031v4.4s.143.969.888.969h.985V296.5a17.916,17.916,0,0,0,.763,5.271,11.369,11.369,0,0,0,2.464,4.376,12.082,12.082,0,0,0,4.339,2.986,16.484,16.484,0,0,0,6.387,1.11,15.83,15.83,0,0,0,6.212-1.11,11.951,11.951,0,0,0,4.3-3.02,12.118,12.118,0,0,0,2.5-4.374,16.7,16.7,0,0,0,.8-5.173v-4.7Z" transform="translate(-35.886 -35.681)" fill="#0971b9"/><path d="M643.77,321.822V298.129a12.784,12.784,0,0,0-.869-4.892,10.447,10.447,0,0,0-2.36-3.576,9.563,9.563,0,0,0-3.574-2.185,13.513,13.513,0,0,0-4.511-.729,13.712,13.712,0,0,0-6.8,1.492,10.978,10.978,0,0,0-4.236,4.408v-3.923a.477.477,0,0,1-.009-.064.906.906,0,0,0-.837-.96h-6.914a.922.922,0,0,0-.846.729v33.4h9.023v-19.6q0-7.841,7.012-7.843,3.189,0,4.511,1.388t1.319,5.345v20.708Z" transform="translate(-144.786 -47.24)" fill="#0971b9"/><path d="M563.579,303.383a10.277,10.277,0,1,1-3.01-7.251,9.93,9.93,0,0,1,3.01,7.251m8.976,17.862V287.783c-.014-.273-.153-.674-.827-.674H564.4a.829.829,0,0,0-.822.768v.921a17.7,17.7,0,0,0-10.261-3.251,17.838,17.838,0,1,0,0,35.675,17.447,17.447,0,0,0,10.258-3.244l-.007,3.267Z" transform="translate(-107.587 -46.662)" fill="#0971b9"/><path d="M666.649,275.3H666.1v-1.056h.579c.379,0,.613.187.613.517v.01c0,.322-.229.529-.643.529m.992,1.233-.682-1.041a.721.721,0,0,0,.6-.733v-.007a.716.716,0,0,0-.2-.522.918.918,0,0,0-.667-.234h-.869v2.537h.273v-.985h.579l.635.985Zm.737-1.269a1.815,1.815,0,1,1-1.814-1.816,1.814,1.814,0,0,1,1.814,1.816m.251,0a2.067,2.067,0,1,0-2.065,2.068,2.066,2.066,0,0,0,2.065-2.068" transform="translate(-169.645 -40.722)" fill="#0971b9"/><path d="M431.588,233.057c-.024-.011-.049-.022-.074-.03l-.848-.3-1.2-.408-.906-.3-.6-.191-.6-.184-.589-.176-.581-.169-.57-.16-.554-.15-.4-.106-.265-.066-.26-.063-.255-.061-.25-.057-.244-.054-.238-.05-.232-.046-.226-.043-.219-.039-.212-.035-.207-.03-.2-.026-.192-.022-.184-.017-.177-.013-.17-.007H420.9l-.128,0-.249.015-.367.036-.478.066-.473.074-.469.087-.464.1-.681.16-.886.218-.649.152-.421.089-.412.074-.4.055-.4.036-.293.011h-.2l-.1,0h.016l-.061-.008-.066-.017-.074-.029-.082-.039-.085-.048-.151-.1-.234-.16-.264-.173-.22-.125-.17-.08-.187-.07-.183-.051-.066-.015-.04-.006-.053-.006-.062,0-.055,0h-.148l-.131,0-.151.007-.169.008-.188.011-.206.013-.221.014-.234.016-.246.017-.257.015-.4.023-.544.078-.547.1-.538.111-.388.084-.248.056-.237.056-.225.053-.211.053-.2.05-.179.047-.16.044-.142.04-.121.037-.08.025-.053.019-.059.022-.061.026-.007,0-.019.009-.039.024-.083.052-.092.055-.092.054-.147.082-.211.109-.16.073-.1.04-.1.033-.09.026-.082.02-.074.012-.065.011-.072,0-.034-.009-.017-.042-.036-.1-.031-.111v-.008l.044-.043.053-.071.035-.095-.005-.111-.032-.068a.24.24,0,0,0-.025-.031l-.015-.015-.094-.059-.193.006-.115.1-.045.093-.022.083-.005,0-.092.062-.109.067-.123.074-.136.077-.146.083-.155.084-.248.131-.351.18-.361.181-.363.18-.266.13-.171.084-.166.08-.157.076-.15.073-.139.067-.127.063-.115.057-.1.05-.085.044-.072.038-.055.032-.016.01,0,0-.216.147-.424.292-.412.288-.4.284-.393.28-.385.277-.377.274-.371.269-.548.4-.72.523-.716.51-.719.5-.732.494-.563.366-.382.242-.392.24-.4.239-.411.238-.421.237-.435.236-.448.236-.462.235-.478.234-.495.234-.513.233-.532.231-.563.21-.312.056a.351.351,0,0,0-.188.463.361.361,0,0,0,.471.186l.255-.185.542-.27.531-.249.514-.245.5-.244.481-.245.464-.243.451-.243.436-.244.425-.244.414-.244.4-.245.393-.247.386-.247.566-.372.736-.5.722-.508.718-.517.721-.523.548-.4.371-.27.377-.273.383-.276.391-.279.4-.283.411-.286.421-.29.211-.144.015-.009.038-.022.06-.031.08-.042.1-.048.113-.056.127-.061.137-.067.149-.072.158-.076.165-.08.172-.083.267-.13.365-.179.365-.182.354-.18.253-.132.16-.085.15-.083.141-.079.035-.021v.028l.008.1.019.1.038.1.071.108.084.075a.417.417,0,0,0,.045.024l.045.031.137.069.157.053.161.03.162.015h.16l.161-.01.158-.017.227-.039.291-.069.21-.064.13-.044.118-.041.107-.039.051-.019-.019.009.008,0-.019.011,0,0h.017l.052-.006.1-.008.127-.01.151-.014.174-.014.194-.014.211-.015.225-.016.239-.017.25-.018.39-.029.54-.042.548-.05.538-.066.385-.077.247-.048.237-.043.225-.037.212-.035.195-.03.177-.026.156-.021.132-.017.1-.011.056-.005.021,0h0l.067.013.063.021.075.03.139.067.205.115.233.133.2.108.155.074.163.065.176.057.19.043.2.024.127,0h.025l.106,0,.228-.016.343-.037.455-.072.455-.1.45-.111.446-.124.662-.2.881-.274.657-.193.435-.114.436-.1.437-.076.438-.042.324-.012h.212l.1,0H420.9l.068,0,.131.009.137.015.147.02.158.024.168.03.178.035.186.04.194.045.2.049.21.053.216.059.224.062.23.066.236.07.241.074.248.077.252.081.389.127.532.181.547.19.558.2.569.207.577.214.582.219.88.336,1.17.452.865.336.568.219s3.587,1.326,4.043,1.471c.064.021.13.042.2.061a3.736,3.736,0,0,0,1.627.2c.06-.012.119-.027.178-.042s.116-.033.173-.052a.593.593,0,0,0,.181-.052c.037-.021.052-.045.051-.071.052-.233-.5-.628-6.424-3.174" transform="translate(-35.849 -20.066)" fill="#0971b9"/><path d="M547.608,241.011l-.094-.152-.2-.268-.227-.243-.246-.221-.261-.2-.27-.181-.28-.16-.286-.145-.291-.131-.295-.115-.3-.106-.3-.092-.3-.082-.306-.076-.452-.094-.595-.108-.586-.088-.575-.077-.561-.075-.546-.076-.4-.064-.257-.045-.25-.048-.243-.053-.237-.058-.24-.065-.132-.04.02.008-.272-.088-.573-.2-.582-.219-.59-.232-.907-.368-.922-.369-.628-.239-.637-.227-.643-.206-.486-.137-.331-.083-.334-.075-.336-.066-.339-.056-.341-.046-.345-.033-.345-.02-.348-.007-.35.008-.352.022-.344.038-.159.022h0l-.308.048-.64.09-.656.087-.669.09-.673.1-.5.089-.336.068-.337.076-.334.084-.332.094-.324.1-.155.054-.01,0-.186.068-.356.143-.349.154-.343.162-.5.25-.66.339-.493.248-.326.157-.327.148-.328.137-.329.122-.33.106-.334.087-.341.068-.179.027h.01l-.061.007-.148.011-.168,0-.187,0-.2-.007-.216-.013-.229-.017-.24-.021-.25-.025-.257-.03-.4-.05-.548-.074-.556-.08-.554-.083-.407-.06-.266-.039-.259-.035-.252-.034-.242-.031-.234-.029-.222-.024-.211-.019-.2-.013-.185-.007h-.172l-.159.007-.146.019-.1.021-.063.02-.02.007-.016.007-.083.036-.138.077-.124.087-.11.1-.095.107-.082.112-.07.117-.058.12-.049.122-.043.126-.051.186-.052.24-.045.235-.042.223-.047.208-.042.144-.029.083-.032.076-.035.067-.037.06-.041.052-.044.048-.05.041-.059.038-.07.035-.084.029-.109.024-.063.009-.226.024-.469.033-.47.009-.469-.015-.469-.036-.47-.056-.47-.074-.471-.091-.471-.108-.472-.122-.473-.137-.474-.147-.474-.16-.474-.167-.714-.266-.956-.375-.958-.39-.963-.388-.962-.38-.723-.269-.482-.172-.482-.162-.483-.151-.481-.141-.481-.127-.481-.113-.477-.1-.236-.042a.175.175,0,0,0-.209.128.173.173,0,0,0,.13.207l.23.065.457.14.455.153.456.165.457.175.458.185.46.192.462.2.7.31.936.42.942.425.952.415.961.4.728.279.488.175.49.163.491.152.494.139.5.123.5.106.5.09.5.07.5.049.5.026.506,0,.508-.021.508-.047.259-.035.015,0,.072-.012.16-.038.159-.053.145-.069.134-.083.119-.1.1-.106.09-.114.076-.12.063-.124.052-.126.042-.126.05-.187.05-.25.04-.247.037-.237.043-.223.037-.15.029-.089.033-.086.037-.079.042-.071.045-.062.051-.056.057-.049.064-.044.074-.039.022-.009.015-.006.022-.006.047-.01.09-.011.115-.007.141,0,.162,0,.181.008.2.014.212.018.226.022.238.026.247.03.256.032.263.036.406.055.553.077.557.079.552.075.4.051.263.032.255.03.247.025.237.021.227.017.214.01.2,0,.189,0,.175-.009.087-.008.009,0,.18-.022.372-.064.371-.084.364-.1.361-.114.357-.124.354-.134.351-.139.521-.214.691-.284.513-.2.338-.124.339-.112.337-.1.162-.043-.009,0,.158-.039.306-.065.306-.056.311-.046.312-.039.318-.032.482-.039.649-.036.653-.026.656-.024.5-.022-.11.121-.141.152-.147.157-.152.162-.157.167-.162.171-.25.262-.343.357-.347.362-.347.36-.341.355-.25.258-.162.168-.158.163-.152.158-.147.153-.141.146-.133.14-.126.131-.119.122-.109.114-.1.1-.036.033-.057.054-.051.049-.047.045-.042.041-.036.037-.033.032-.029.029-.023.024-.02.02-.017.019-.015.017-.018.031.146.168.048-.023.025-.018.036-.031.049-.042.062-.055.074-.065.085-.078.1-.088.106-.1.116-.108.123-.118.133-.126.139-.134.146-.143.152-.149.156-.155.161-.16.164-.167.253-.258.344-.354.345-.365.342-.369.333-.368.241-.272.155-.179.15-.176.145-.171.138-.167.132-.162.124-.156.107-.14.17-.01h0l.161-.008.293,0,.282.01.28.021.279.032.279.043.278.054.277.061.278.072.279.08.278.088.279.1.424.159.566.231.565.249.57.265.588.282-.059.031-.316.185-.31.2-.3.206-.3.208-.238.168.034-.049.085-.138.049-.1.042-.1.033-.1.019-.1V238.9l-.026-.113-.056-.105-.083-.086-.088-.056-.035-.016-.026-.01-.068-.018-.1-.007-.1.01-.1.023-.1.034-.109.044-.114.053-.119.06-.123.07-.048.029.037-.086.048-.147.032-.147.011-.149-.01-.148-.034-.145-.055-.134-.032-.056a.053.053,0,0,0-.007-.011l-.022-.03-.049-.048-.082-.048-.1-.025h-.1l-.1.018-.1.032-.1.045-.108.055-.114.066-.119.074-.121.083-.126.09-.194.147-.262.212-.053.045.04-.039.154-.165.068-.081a.043.043,0,0,0,.008-.009l.025-.046-.024-.153-.105-.061h-.05l-.034.005-.032.009-.035.011-.038.014-.042.017-.047.019-.077.036-.116.056-.129.067-.14.077-.147.086-.155.094-.158.1-.159.111-.16.119L529,238.9l-.149.129-.07.064,0,0-.051.049-.1.1-.162.158-.228.221-.239.232-.249.237-.258.238-.265.236-.27.229-.273.22-.278.2-.276.186-.277.165-.207.107-.136.062-.134.054-.132.047-.13.037-.128.03-.068.01.043-.046.074-.076.115-.114.13-.126.143-.136.156-.145.164-.155.174-.161.18-.167.279-.258.379-.352.375-.353.269-.259.172-.168.162-.163.152-.157.14-.148.126-.141.111-.131.073-.091.043-.058.038-.056.034-.053.03-.052.023-.051.019-.051.011-.054v-.06l-.014-.051,0-.01a.126.126,0,0,0-.166-.062.123.123,0,0,0-.063.163l.005.011,0,0,0,0,0,.012-.01.022-.015.03-.022.037-.027.043-.034.047-.039.051-.068.084-.106.124-.123.135-.137.144-.151.152-.161.159-.171.166-.269.255-.375.349-.38.349-.28.255-.182.166-.175.16-.167.154-.157.146-.145.138-.132.127-.118.116-.078.079-.047.049-.042.046-.037.043-.033.039-.029.036-.023.035-.02.035L524.5,242l-.009.054.022.086.083.067.052.011h.08l.143-.011.147-.022.147-.032.148-.041.148-.051.147-.059.147-.066.22-.112.294-.172.292-.194.287-.212.284-.224.278-.234.27-.24.263-.241.253-.239.242-.233.23-.222.162-.157.1-.1.05-.048,0,0,.07-.064.142-.122.147-.116.15-.11.152-.105.152-.1.14-.086-.228.2-.387.323-.294.25-.193.172-.187.176-.177.182-.167.188-.152.195-.135.2-.115.211-.05.113,0,.007-.008.021-.015.044-.01.045,0,.053.02.076.082.08.1.018.064-.015.047-.022.041-.024.058-.041.085-.067.091-.079.1-.088.1-.1.154-.148.15-.147.095-.092.086-.082.075-.071.032-.029h0l.01-.01.032-.03.044-.042.055-.053.064-.062.075-.072.085-.08.092-.088.1-.094.106-.1.112-.1.118-.107.184-.166.254-.223.258-.218.256-.2.187-.139.119-.084.115-.077.109-.068.1-.058.094-.045.083-.035.07-.02.054-.007.01,0,.026.047.037.095.017.091,0,.095-.012.1-.025.1-.039.112-.053.115-.065.118-.077.121-.088.122-.1.123-.094.109-.063.046-.28.21-.275.214-.263.212-.186.153-.118.1-.112.1-.106.089-.1.085-.09.077-.081.073-.071.064-.061.057-.051.047-.019.02a.185.185,0,0,0-.045.2.191.191,0,0,0,.247.106l.032-.015.019-.012.033-.021.049-.032.062-.042L530.1,241l.086-.06.1-.069.1-.077.113-.084.119-.091.125-.1.194-.158.263-.228.259-.245.1-.1.129-.094.275-.192.2-.132.129-.082.126-.076.12-.069.115-.061.107-.053.1-.043.089-.034.076-.022.061-.011h.029l.025.011.023.021-.005.007-.009,0-.007.006-.006.019-.011.036-.019.049-.029.059-.037.067-.072.111-.114.157-.128.157-.131.152-.094.108-.059.067-.056.063-.049.059-.045.054-.037.051-.033.051-.029.063-.01.134.168.193.157.008.09-.027.063-.027.045-.021.045-.023.049-.026.028-.015,0,0,.068-.037.143-.083.218-.133.294-.19.3-.2.3-.2.3-.2.3-.183.3-.166.221-.106.145-.062.065-.024.513.243.6.274.611.261.622.243.327.117.02.007.131.044.293.089.3.082.3.072.3.065.3.058.448.072.6.082.595.067.584.061.573.06.558.061.4.053.261.035.26.041.255.045.253.048.246.055.245.057.24.063.238.069.237.073.237.081.241.083.247.087.256.092.131.039a.525.525,0,0,0,.734-.054.507.507,0,0,0-.055-.723" transform="translate(-87.483 -22.488)" fill="#0971b9"/><path d="M430.147,238.835l-.081-.025-.165-.046-.245-.079-.327-.118-.326-.13-.327-.135-.329-.131-.332-.118-.252-.077-.168-.043-.081-.018h0l-.172-.032-.341-.048-.342-.031-.343-.013-.344,0-.345.01-.514.026-.681.044-.507.031-.335.014-.331,0-.328,0-.324-.019-.324-.034-.166-.025.015,0-.023,0-.065-.02-.064-.032-.065-.045-.065-.057-.064-.066-.1-.118-.144-.169-.118-.125-.094-.079-.108-.071-.126-.053-.139-.028h-.133l-.048.006-.014,0-.083.016-.165.038-.247.064-.331.1-.332.109-.33.114-.325.116-.317.113-.307.1-.151.048-.128.039-.261.075-.257.066-.252.061-.241.053-.229.046-.212.037-.2.03-.131.018-.079.009-.048,0a.3.3,0,0,0-.369-.082l-.163.079-.316.154-.3.145-.292.141-.282.135-.272.13-.264.124-.256.12-.248.117-.243.113-.353.167-.456.216-.447.213-.445.209-.449.213-.459.222-.354.175-.243.122-.248.127-.257.131-.264.138-.272.144-.281.152-.292.158-.3.166-.315.175-.162.09,0,0,0,0-.015.007-.024.013-.033.017-.042.023-.05.026-.058.03-.066.034-.073.038-.079.042-.087.044-.092.048-.1.051-.1.053-.167.086-.24.122-.258.13-.272.138-.287.142-.3.147-.3.148-.466.226-.625.3-.462.217-.3.139-.29.131-.277.125-.265.114-.187.078-.119.049-.114.045-.108.043-.1.038-.1.034-.09.03-.082.025-.074.021-.019.005.028-.04.062-.079.073-.087.083-.093.093-.1.1-.1.111-.11.12-.114.128-.118.135-.122.142-.127.15-.13.155-.133.161-.137.168-.138.26-.213.364-.29.378-.3.39-.3.6-.452.613-.449.409-.295.407-.285.4-.279.39-.268.38-.253.275-.182.178-.116.173-.112.168-.107.162-.1.156-.1.149-.092.143-.087.136-.08.128-.075.119-.069.111-.063.1-.057.093-.049.082-.04.072-.035.06-.027.046-.018.029-.01.007,0h.01a.1.1,0,0,0,.1-.1.1.1,0,0,0-.1-.1h-.01l-.051.008-.054.018-.059.025-.066.032-.075.039-.085.046-.093.053-.1.06-.111.065-.119.073-.128.077-.135.084-.142.089-.149.094-.156.1-.162.1-.168.108-.173.112-.179.115-.276.18-.383.252-.4.261-.407.271-.414.278-.419.283-.63.43-.619.432-.4.286-.393.283-.377.276-.272.2-.175.134-.169.13-.164.128-.157.126-.15.122-.143.119-.137.116-.129.113-.121.108-.112.106-.1.1-.1.1-.085.093-.076.09-.066.086-.057.083-.046.081-.037.081-.024.087-.007.06a.232.232,0,0,0,0,.033v.014l.023.087.071.1.091.058.088.025.08.007.077,0,.077-.008.081-.013.086-.019.09-.021.1-.027.1-.029.105-.033.112-.037.115-.041.121-.043.126-.046.195-.075.273-.111.286-.119.3-.129.306-.135.469-.215.631-.3.469-.228.306-.151.3-.148.287-.144.273-.139.259-.132.241-.123.167-.087.105-.054.1-.051.093-.048.087-.046.08-.04.073-.039.066-.034.058-.031.051-.026.043-.022.034-.019.025-.012.017-.01.007,0h0l.16-.091.312-.174.3-.166.289-.158.28-.149.269-.144.261-.137.254-.131.247-.125.24-.121.351-.173.456-.22.446-.209.444-.2.451-.2.462-.2.358-.158.244-.11.251-.112.259-.117.266-.121.275-.127.285-.132.3-.139.306-.147.209-.1.049.01.067.006h.134l.073,0,.078-.007.083-.009.089-.01.142-.021.207-.035.226-.043.24-.051.253-.06.261-.067.269-.074.271-.083.138-.045,0,0,.151-.051.316-.113.322-.121.324-.123.323-.12.32-.112.314-.1.228-.064.147-.037.066-.014.037-.006.049,0,.029.012.032.019.041.03.048.044.087.09.13.146.11.121.086.084.093.079.105.073.119.062.133.046.083.017.014,0,.167.02.343.029.348.012.348,0,.345-.014.345-.023.515-.045.682-.065.507-.042.335-.019.332-.009.33,0,.328.018.324.034.158.024h0l.082.015.16.034.24.063.322.1.326.114.332.119.335.114.343.1.261.059.176.03.09.007a.072.072,0,0,0,.084-.057.071.071,0,0,0-.057-.082" transform="translate(-42.732 -23.298)" fill="#0971b9"/><path d="M521.67,245.654l-.124,0-.253,0-.261-.01-.266-.016-.273-.022-.277-.026-.424-.041-.569-.049-.429-.021-.282,0-.281.011-.277.026-.271.045-.2.047-.128.039-.06.019,0,0-.072.027-.133.062-.138.074-.145.084-.15.09-.153.092-.233.14-.234.131-.152.075-.148.063-.139.048-.132.031-.093.01-.056,0-.052,0-.05-.009-.048-.014-.049-.021,0,0-.007-.013-.02-.05-.035-.1-.05-.161-.047-.171-.031-.121-.018-.073-.016-.064-.013-.052-.009-.04-.012-.038,0,0a.157.157,0,0,0-.185-.094l-.043.016-.021.014-.018.013-.019.015-.033.028-.053.047-.065.06-.078.071-.089.082-.1.09-.106.1-.115.106-.121.112-.127.117-.2.181-.274.247-.278.243-.206.174-.134.111-.132.1-.13.088-.131.069-.12.059-.109.049-.093.036-.073.023-.041.007.025,0,.051.02.054.043h0l-.423-.111-.086.186V248l0,.014,0,.018v.013l0,.043-.007.055-.012.065-.013.073-.018.073-.024.072-.029.066-.029.059-.031.05-.039.045-.035.029-.021.014-.021.014-.022.01-.024-.006-.045-.012-.053-.017-.058-.022-.1-.043-.151-.07-.162-.081-.17-.09-.263-.145-.258-.147-.166-.094-.157-.087-.111-.059-.071-.037-.068-.033-.067-.03-.065-.026-.06-.022-.02-.006-.008,0-.39-.108-.781-.208-.78-.2-.782-.188-1.172-.271-1.56-.352L501.985,246l-1.165-.279-.775-.195-.772-.2-.77-.217-.768-.228-.764-.244-.384-.128a.135.135,0,0,0-.171.082.133.133,0,0,0,.084.169l.383.13.767.251.77.24.771.227.772.22.774.213,1.159.31,1.548.406,1.546.412,1.155.318.768.221.766.229.762.239.38.123-.007,0,.019.007.028.013.035.016.043.023.052.029.059.033.1.059.145.088.158.1.252.157.26.16.177.1.172.1.17.086.125.057.084.034.081.029.08.024.082.019.083.012.091,0,.1-.009.072-.017.029-.009.03-.011.08-.036.083-.047.075-.053.093-.085.105-.126.084-.139.062-.141.039-.138.023-.132.012-.124,0-.113v-.02l.1-.066.1-.079.1-.091.105-.1.109-.11.123-.106.131-.107.137-.111.212-.174.285-.24.282-.241.2-.178.13-.114.124-.11.118-.1.109-.1.1-.089.09-.079.061-.053v0l.029.125.044.175.047.171.036.115.026.066.025.057.033.051.039.041a.135.135,0,0,0,.026.018l.03.018.077.036.084.029.086.02.088.01.088,0,.129-.01.174-.035.176-.055.175-.07.171-.081.252-.136.246-.143.156-.095.148-.089.139-.08.128-.067.114-.052.044-.015.056-.019.116-.034.178-.042.244-.041.252-.027.262-.013.268,0,.413.009.562.026.423.019.282.005h.278l.276-.012.268-.027.26-.044.127-.03a.058.058,0,0,0,.049-.064.058.058,0,0,0-.065-.049" transform="translate(-88.794 -26.918)" fill="#0971b9"/><path d="M444.154,216.391l-.03-.074-.049-.05-.006,0a.165.165,0,0,0-.1-.025l-.077.024-.033.023-.031.025-.035.033-.043.042-.048.049-.056.058-.062.064-.067.07-.072.077-.116.123-.165.177-.174.187-.179.189-.178.186-.172.179-.123.124-.078.076L442.2,218l.018-.031.071-.133.04-.093.028-.094.009-.075,0-.059-.02-.062-.036-.059-.051-.045-.049-.027-.013-.005a.173.173,0,0,0-.053-.011l-.092.02-.055.037-.038.037-.037.046-.04.055-.044.064-.048.075-.052.083-.057.092-.06.1-.064.106-.068.114-.107.18-.154.253-.165.263-.173.266-.157.227v0l.013-.066,0-.065-.006-.066-.019-.064-.033-.059-.042-.047-.018-.015a.037.037,0,0,0-.013-.009l-.034-.016-.048-.009-.042,0-.039.009-.038.014-.04.018-.061.035-.087.058-.1.073-.106.087-.116.1-.125.111-.132.122-.138.133-.144.141-.149.148-.153.155-.237.24-.323.33-.327.331-.324.321-.237.229-.153.144-.15.137-.144.126-.138.117-.131.1-.122.091-.113.076-.1.06-.092.043-.044.017a.058.058,0,0,0-.034.074.059.059,0,0,0,.076.034l.044-.016.1-.048.111-.064.119-.078.129-.093.135-.1.143-.115.148-.125.154-.134.159-.141.245-.224.335-.313.338-.321.334-.32.243-.234.158-.151.152-.144.145-.138.14-.13.13-.121.122-.109.112-.1.1-.084.09-.068.077-.052.047-.026.023-.01.005,0,.012.016.006.018,0,.02v.027l0,.034-.008.04-.016.046-.034.079-.062.114-.077.121-.089.123-.1.122-.1.118-.1.109-.091.1-.06.064-.036.038-.033.034-.027.029-.023.023-.017.018-.013.014-.015.023.128.166a.115.115,0,0,0,.029-.01l.048-.024.1-.062.107-.073.105-.083.1-.092.105-.1.155-.161.2-.236.2-.252.193-.264.186-.266.175-.263.163-.252.052-.082.013.048.042.062.065.046.069.021.04,0h.027l.013,0,.07-.02.064-.034.059-.041.06-.047.064-.055.069-.061.073-.068.076-.073.08-.08.126-.126.175-.181.179-.19.179-.192h0l-.132.185-.146.2-.092.131-.086.125-.08.12-.071.111-.06.1-.048.092-.028.063-.014.039-.01.038,0,.037,0,.039.012.044.033.044.049.029.052.008.048,0,.047-.012.048-.018.052-.023.058-.029.063-.036.069-.041.075-.048.082-.056.09-.063.1-.069.1-.08.111-.089.056-.051a.066.066,0,0,0,.013-.092.068.068,0,0,0-.093-.013l-.064.037-.118.077-.108.071-.1.065-.09.058-.081.05-.073.044-.066.037-.057.031-.05.024-.041.018-.012,0,.02-.045.044-.082.058-.1.07-.105.079-.116.088-.122.094-.128.149-.2.206-.268.156-.193.1-.123.094-.117.083-.114.073-.106.062-.1.049-.09.028-.062.015-.044.009-.05Z" transform="translate(-59.925 -13.324)" fill="#0971b9"/><path d="M484.472,213.384a.038.038,0,0,0-.051,0l-.1.094-.2.187-.185.187-.176.182-.17.179-.165.173-.159.17-.155.163-.225.237-.29.3-.282.285-.275.27-.275.258-.273.249-.278.241-.283.236-.292.234-.3.233-.316.234-.334.237-.174.121,0,0-.024.015-.042.026-.033.016-.021.008-.009,0v0l-.006-.01-.014-.051-.013-.066-.013-.076-.021-.084-.041-.086-.056-.06-.059-.033-.066-.014-.063,0-.057.014-.054.021-.054.029-.057.036-.062.045-.065.052-.034.029,0,0-.039.038-.071.074-.094.115-.109.161-.094.169-.082.174-.074.179-.1.266-.122.348-.1.249-.068.152-.074.141-.079.126-.072.093.024-.155.03-.172.033-.171.028-.161.016-.111.009-.071.006-.068v-.071l-.01-.085-.058-.125-.185-.1-.129.015-.011,0-.03.013-.049.03-.079.057-.073.066-.068.071-.063.078-.061.085-.084.133-.1.19-.1.2-.092.213-.088.22-.128.33-.124.32-.08.2-.079.184-.078.163-.076.139-.054.084-.035.046-.021.022a.145.145,0,0,0,.014.208.149.149,0,0,0,.209-.013l.021-.022.048-.06.07-.1.09-.156.09-.176.089-.191.092-.2.14-.318.146-.32.1-.206.1-.2.052-.087-.038.167-.031.171-.016.125-.005.084,0,.08.009.079.02.085.043.093.083.1.134.073.151.016.126-.029.1-.051.093-.064.05-.04.008-.007.033-.03.074-.072.1-.117.117-.168.1-.179.082-.184.069-.186.086-.28.1-.371.075-.267.054-.168.06-.16.07-.15.079-.138.065-.093.046-.058.024-.026,0,0,.03-.031.05-.052.042-.041.025-.021,0,.015.016.059.018.07.024.073.039.074.051.059.054.035.059.019.063,0,.062-.009.061-.021.061-.03.063-.039.034-.023h0l.171-.125.332-.242.319-.235.307-.232.3-.232.291-.234.285-.24.284-.247.282-.259.283-.271.287-.288.291-.306.224-.243.151-.171.154-.177.154-.184.157-.192.157-.2.156-.212.154-.225.075-.117a.035.035,0,0,0,0-.051" transform="translate(-78.799 -11.948)" fill="#0971b9"/><path d="M425.912,241.161l-.109.011-.211.029-.2.037-.195.046-.188.052-.184.06-.267.1-.345.143-.341.152-.345.154.121-.132.077-.1.062-.1.033-.077.013-.06v-.067l-.019-.07-.042-.06-.045-.038-.015-.009-.016-.008-.036-.013-.058-.01-.075,0-.086.022-.086.035-.089.046-.093.057-.142.1-.045.035-.016-.059-.008-.02a.141.141,0,0,0-.08-.073l-.093,0-.035.012-.033.016-.041.022-.051.03-.058.035-.066.041-.075.046-.082.051-.086.055-.14.087-.2.124-.209.127-.21.126-.208.119-.148.082-.094.051-.088.045-.006,0,.084-.064.1-.077.111-.082.179-.13.253-.183.261-.187.258-.186.186-.136.118-.087.113-.083.105-.079.1-.075.088-.068.076-.063.066-.058.054-.051.045-.051.034-.081-.057-.113-.057-.017h-.031l-.029,0-.029.008-.014,0h0l-.045.016-.089.035-.093.044-.1.052-.153.088-.21.132-.212.141-.2.141-.144.1-.09.062-.083.056-.076.049-.035.023-.013.008-.03.02-.036.023-.041.028-.046.032-.051.035-.056.04-.062.043-.1.071-.147.106-.162.117-.176.128-.188.135-.2.145-.208.153-.215.157-.334.243-.456.333-.456.335-.336.245-.217.158-.21.153-.2.148-.192.139-.181.131-.167.12-.152.109-.1.074-.036.026.027-.029.114-.118.121-.124.125-.126.125-.124.12-.119.112-.108.075-.074.045-.045.042-.039.036-.035.031-.03.024-.024.019-.018.011-.011,0,0h0l.245-.254.372-.378.253-.244.26-.238.268-.225.278-.213.217-.149.149-.094.077-.046a.079.079,0,0,0,.027-.11.081.081,0,0,0-.111-.026l-.077.046-.151.1-.221.155-.283.22-.271.232-.262.242-.255.25-.372.381-.246.257h0l-.01.011-.018.017-.024.024-.031.029-.036.036-.041.039-.045.044-.076.073-.112.109-.12.119-.125.124-.126.126-.122.125-.115.119-.1.111-.068.075-.04.045-.034.042-.03.036-.024.033-.017.028-.013.026-.005.037.022.052a.07.07,0,0,0,.059.021h0l.031-.011.021-.011.023-.015.028-.019.033-.022.038-.027.045-.031.049-.035.054-.037.059-.042.064-.045.1-.074.153-.109.168-.12.181-.129.193-.139.2-.146.211-.153.218-.158.338-.242.46-.331.459-.329.336-.241.216-.155.21-.149.2-.143.189-.135.177-.126.163-.116.148-.1.1-.069.061-.042.056-.038.051-.035.046-.031.039-.026.035-.023.029-.018.011-.007.036-.022.079-.05.086-.057.092-.061.146-.1.206-.138.211-.137.091-.056-.1.074-.119.086-.186.132-.261.182-.263.184-.256.179-.181.128-.114.081-.106.076-.1.072-.088.066-.077.06-.065.053-.053.046-.04.041-.031.04-.02.046a.1.1,0,0,0,0,.042v.016l.024.07.076.067.084.018.074-.006.07-.017.074-.024.079-.03.085-.036.089-.043.094-.046.1-.051.153-.083.213-.119.215-.126.212-.127.2-.123.141-.086.088-.053.081-.049.006,0-.042.05-.1.1-.115.1-.121.105-.122.1-.115.095-.081.065-.048.04-.044.037-.04.034-.033.032-.029.031-.025.033-.024.05.011.12.112.08.074,0,.058-.011.032-.008,0,0,.027-.008.06-.025.083-.048.1-.08.085-.09.108-.139.1-.131.064-.072.03-.027,0,0,.014-.014.04-.036.052-.047.063-.056.073-.062.078-.068.129-.1.178-.136.128-.089.078-.047.072-.037.027-.01-.039.058-.059.075-.116.125-.128.128-.084.08-.078.075-.068.065-.042.043-.024.026-.02.025-.02.031-.018.063.075.135.1.016.051-.012.024-.009h0l.1-.039.189-.081.272-.125.346-.167.335-.165.333-.156.254-.108.173-.067.178-.064.185-.059.192-.056.2-.049.1-.023a.054.054,0,1,0-.017-.106" transform="translate(-50.237 -25.015)" fill="#0971b9"/><path d="M499.107,201.318c-2.443-.863-4.844-1.627-6.513-3.667a8.658,8.658,0,0,0-2.386-2.512c-.606-.31-1.41-.193-1.916-.506-1.008-.625-1.51-2.151-2.264-3.022a26.2,26.2,0,0,0-2.246-1.746c-.471-.441-.675-1.291-1.427-1.327-.968-.046-1.964,1.493-2.617,2.048.437-.9-.28-1.429-1.063-.923-.136.089-.042.408-.138.5a5.229,5.229,0,0,1-.811.519c-.835.537-1.654,1.082-2.431,1.7a113.007,113.007,0,0,0-9.024,8.415c-1.518,1.5-3.066,2.972-4.661,4.4q-1.1.982-2.231,1.938a5.571,5.571,0,0,0-1.131.94c-.536.9-.02,1.072.8.709,1.687-.749,3.377-2.732,4.708-3.978,1.5-1.408,2.927-2.891,4.343-4.382,2.8-2.947,5.662-6.195,9.2-8.3a5.457,5.457,0,0,1,1.345-.769c.406-.071.343.137.641.12.539-.03.6.107,1.093-.2.528-.331,1.375-2.106,2.072-2.01.094.013,1.325,1.316,1.569,1.463a4.971,4.971,0,0,1,2.149,2.056c.546.939,1.014,2.286,2.065,2.8.793.388,1.275.217,1.907.852.948.95,1.41,2.286,2.354,3.249a10.208,10.208,0,0,0,3.383,2.3c1.288.505,2.819.823,4.043,1.391,1.061.492,4.134,2.244,4.462,1.961.447-.386-2.021-2.873-5.274-4.021" transform="translate(-70.332)" fill="#0971b9"/><path d="M484.526,208l-.031-.069-.048-.061-.037-.033a.044.044,0,0,0-.012-.009l-.047-.03-.112-.054-.119-.04-.121-.022-.12-.006-.119.008-.117.021-.114.03-.162.059-.207.1-.194.109-.176.108-.081.051a.05.05,0,0,0-.023.068.052.052,0,0,0,.07.023l.09-.034.19-.073.2-.071.2-.061.148-.033.095-.012.091-.006.086,0,.082.011.078.019.074.03.077.045.029.021v0l0,.024-.01.032-.018.04-.023.045-.03.052-.036.056-.043.06-.049.064-.054.066-.091.105-.14.152-.157.16-.171.17-.185.176-.2.18-.2.185-.32.283-.443.379-.334.282-.221.182-.216.178-.211.172-.2.163-.193.155-.182.145-.168.133-.116.091-.073.058-.067.053-.063.049-.059.045-.053.04-.049.037-.042.033-.036.026-.03.023-.023.017-.016.012-.007,0,0,0-1.022.708-1.537,1.058-1.025.707-1.023.713-1.023.718-1.021.727-.765.551-.509.373-.254.186a.245.245,0,0,0-.041.348.254.254,0,0,0,.353.039l.242-.2.487-.394.738-.578,1-.745,1.013-.722,1.024-.7,1.031-.7,1.551-1.035,1.034-.692,0,0,.006,0,.021-.015.027-.019.033-.024.038-.028.044-.033.05-.036.055-.041.06-.045.065-.049.069-.052.074-.057.118-.091.171-.132.184-.144.2-.154.206-.163.213-.172.219-.179.223-.184.336-.283.443-.389.323-.293.2-.194.195-.191.185-.186.172-.181.156-.175.139-.169.094-.121.057-.078.052-.076.046-.073.041-.071.036-.069.029-.067.022-.066.017-.066.009-.067,0-.069Z" transform="translate(-76.758 -9.206)" fill="#0971b9"/><path d="M514.038,222.938l-.109-.146-.107-.137-.111-.127-.112-.115-.113-.107-.114-.1-.117-.092-.175-.118-.226-.129-.22-.108-.214-.093-.3-.121-.29-.122-.182-.088-.179-.1-.131-.09-.085-.064-.084-.073-.083-.08L511,220.84l-.084-.1-.045-.059,0,.006-.038-.051-.073-.108-.066-.109-.059-.108-.079-.168-.09-.234-.072-.24-.059-.245-.072-.382-.083-.525-.071-.4-.061-.269-.076-.271-.1-.266-.087-.2-.067-.133-.075-.131-.08-.128-.042-.059a.025.025,0,0,0-.005-.007l-.073-.1-.156-.182-.175-.175-.191-.169-.209-.165-.223-.161-.237-.158-.25-.155-.26-.153-.271-.152-.42-.226-.582-.3-.6-.3-.6-.309-.447-.238-.293-.162-.288-.166-.281-.169-.273-.173-.264-.178-.253-.183-.242-.189-.227-.194-.213-.2-.2-.206-.179-.213-.161-.22-.108-.172-.065-.117-.031-.06a.09.09,0,0,0-.119-.04.087.087,0,0,0-.042.118l.029.061.064.125.106.183.16.237.181.23.2.222.214.215.23.208.242.2.256.2.265.19.275.185.282.18.288.177.293.172.444.252.6.328.589.319.571.315.409.234.259.154.249.156.236.157.222.157.206.157.189.159.169.16.148.16.128.161.051.076,0-.007.039.061.068.116.059.115.053.115.07.176.076.239.057.241.046.245.052.379.062.517.057.4.053.273.069.274.09.276.085.211.067.142.074.139.083.139.047.072,0,.007.042.06.093.125.1.119.1.109.1.1.1.094.157.124.214.144.217.125.315.16.3.149.187.1.176.106.164.119.111.1.07.07.071.076.066.086.065.093.063.1.061.111.056.123.024.061a.505.505,0,0,0,.681.194.492.492,0,0,0,.2-.672Z" transform="translate(-91.285 -10.835)" fill="#0971b9"/><path d="M447.022,201.776l.1-.07.1-.063.094-.058.091-.05.085-.042.08-.032.074-.016.064-.006.06,0,.008,0,.008.006.025.024.032.033.039.042.044.049.048.055.054.064.058.07.063.076.066.083.071.088.074.094.078.1.082.1.128.165.182.232.192.248.2.259.212.27.218.278.34.426.466.575.356.426.238.278.236.271.236.261.23.249.228.233.22.219.162.151.106.094.1.091.1.084.1.078.1.072.1.066.093.061.092.051.092.045.088.039.089.032.09.021.082.01h.027a.245.245,0,0,0,.28-.2.242.242,0,0,0-.2-.276l-.026-.009-.031-.019-.033-.023-.042-.028-.051-.037-.057-.044-.063-.052-.072-.057-.075-.063-.08-.071-.084-.077-.088-.08-.093-.087-.1-.091-.151-.147-.212-.21-.221-.225-.23-.237-.237-.248-.242-.257-.246-.264-.373-.4-.5-.543-.363-.4-.237-.262-.229-.254-.22-.245-.21-.234-.2-.22-.141-.155-.089-.1-.086-.094-.082-.089-.077-.084-.073-.079-.069-.073-.064-.067-.059-.062-.055-.056-.05-.05-.044-.043-.04-.036-.036-.03-.033-.025-.035-.021-.035-.015-.022-.006-.036,0-.094-.005-.1.009-.1.018-.109.02-.112.029-.117.036-.119.044-.121.052-.124.058-.188.1-.257.143-.26.159-.256.169-.253.172-.244.17-.23.164-.161.115-.1.072-.1.067-.091.061-.083.055-.076.047-.066.038-.056.03-.019.009h0l-.126.062-.248.138-.237.146-.222.154-.207.159-.194.166-.179.171-.166.176-.154.18-.144.184-.134.185-.124.188-.169.282-.2.381-.187.382-.179.378-.174.372-.181.363-.143.263-.1.169-.106.169-.112.166-.119.163-.128.159-.136.155-.147.153-.071.068-.081.076-.172.148-.185.146-.2.145-.211.146-.223.144-.35.217-.485.284-.49.277-.363.2-.238.133-.232.13-.223.129-.108.064-.007,0-.082.051-.172.118-.165.129-.153.135-.141.14-.131.145-.184.217-.233.29-.222.289-.172.205-.114.136-.12.136-.127.135-.061.074a.087.087,0,0,0-.025.122.091.091,0,0,0,.124.025l.1-.032.183-.088.172-.1.163-.112.223-.184.276-.248.258-.251.193-.18.129-.111.13-.107.132-.1.137-.091.148-.086.087-.045-.006,0,.109-.053.229-.111.238-.116.247-.119.38-.186.518-.263.515-.277.377-.216.246-.152.237-.156.228-.161.218-.165.2-.167.087-.079.008-.008.1-.094.176-.182.164-.186.152-.188.141-.19.13-.192.12-.193.113-.2.155-.292.186-.383.173-.377.164-.371.166-.36.177-.351.144-.257.1-.167.106-.163.114-.159.124-.156.132-.154.143-.15.154-.148.167-.145.181-.143.2-.139.219-.137.12-.071h0l.042-.024.076-.05.078-.055.083-.061.086-.067.09-.072.095-.077.1-.082.153-.129.213-.182.22-.191.225-.193.228-.189.224-.182.219-.171Z" transform="translate(-58.973 -6.072)" fill="#0971b9"/><path d="M422.953,213.463l0-.162-.022-.321-.138-.426-.314-.487-.381-.439-.388-.429-.371-.439L421,210.3l-.234-.356-.144-.245-.068-.125h0l-.033-.061-.055-.115-.043-.1-.031-.093-.02-.081-.012-.07v-.06l.006-.05.011-.042.016-.035.019-.03.024-.022.045-.028.075-.028.094-.009.118.014.116-.028.086-.048.054-.051.048-.064.036-.074.022-.081.009-.083,0-.085-.015-.088-.024-.091-.032-.1-.019-.046v0l-.007-.017-.016-.034-.018-.039-.021-.046-.025-.051-.027-.058-.045-.095-.066-.141-.074-.154-.116-.247-.117-.254-.073-.165-.066-.158-.055-.147-.034-.1-.018-.06-.013-.052-.01-.045,0-.022.115.022.1.012.081,0,.09-.028.08-.062.048-.076.018-.062.006-.046v-.048l0-.05-.007-.054-.011-.056-.007-.028v-.005l-.012-.044-.029-.081-.055-.113-.091-.139-.106-.134-.175-.194-.182-.194-.116-.132-.107-.134-.093-.137-.059-.107-.032-.07-.026-.073-.019-.073-.012-.076,0-.076,0-.08.011-.081.023-.085.031-.087.045-.09.059-.094.034-.049.029-.038.059-.069.058-.057.055-.046.053-.034.05-.023.048-.01h.039l.048.008.059.018.058.018.063.024.129.046.154.058.126.03.143.018.159-.006.157-.034.115-.046.074-.039.028-.017a.381.381,0,0,0,.042-.031l.084-.1.05-.126.011-.1,0-.085-.012-.082-.018-.084-.024-.087-.03-.094-.036-.1-.041-.107-.047-.114-.052-.12-.056-.127-.063-.133-.067-.139-.072-.145-.075-.149-.08-.156-.084-.161-.088-.166-.138-.255-.195-.354-.2-.367-.213-.376-.332-.579-.443-.789-.321-.595-.209-.391-.2-.385-.193-.374-.184-.361-.13-.261-.083-.169-.079-.163-.075-.158-.073-.152-.067-.146-.064-.14-.058-.133-.054-.125-.049-.118-.044-.109-.038-.1-.032-.091-.025-.08-.019-.067-.013-.054-.006-.036,0-.024,0-.023a.252.252,0,0,0-.045-.163.231.231,0,0,0-.434,0,.252.252,0,0,0-.047.128l0,.023v.033l-.021.083-.126.481-.13.477-.135.473-.142.469-.147.466-.152.463-.159.46-.166.457-.172.454-.179.452-.186.449-.193.447-.2.444-.209.443-.217.441-.11.217-.023.044-.055.089-.067.1-.077.111-.128.179-.131.185-.085.124-.079.121-.07.118-.059.117-.036.089-.019.066-.012.065,0,.072.01.081.033.088.062.084.084.064.091.037.089.016.052,0a.262.262,0,0,0,.049,0h.009l.1-.033.07-.044.055-.045.052-.048.053-.052.056-.058.059-.063.063-.069.065-.072.1-.115.145-.163.151-.168.151-.166.137-.147-.088.157-.128.216-.136.221-.138.218-.135.21-.1.149-.062.093-.059.089-.054.083-.05.077-.046.07-.04.062-.034.053-.029.046-.022.037-.012.022,0,.008-.026.053-.049.106-.04.1-.032.095-.023.09-.014.088,0,.086.008.085.02.086.033.08.047.073.054.062.081.063.107.06.1.042.075.031.047.025.007.01-.008,0-.007,0-.007-.005-.005,0,0,0,0,.016-.006.029-.011.044-.019.058-.011.03,0-.006-.051.13-.105.246-.112.237-.116.231-.181.344-.244.455-.18.345-.116.238-.109.242-.1.25-.091.259-.078.269-.064.281-.04.222-.02.153-.009.078v0l-.008.063-.022.117-.034.127-.045.14-.057.153-.066.162-.076.171-.086.179-.092.185-.1.189-.159.293-.225.4-.233.4-.235.4-.173.3-.112.193-.107.189-.1.184-.1.177-.091.171-.084.163-.076.156-.066.146-.057.137-.047.129-.034.12-.022.113-.007.109,0,.066c0,.007,0,.014,0,.021l.008.036.03.09.047.092.06.082.073.073.083.06.09.048.095.038.1.029.1.021.109.015.114.008.118,0,.124,0,.128-.007.132-.012.135-.017.139-.021.215-.038.3-.063.311-.075.32-.086.333-.07.347-.049.359-.03.182-.012a.348.348,0,0,0,.23-.439.355.355,0,0,0-.444-.226l-.151.092-.307.173-.313.141-.317.106-.314.072-.3.061-.29.05-.206.029-.13.015-.126.011-.119.007-.113,0-.106,0-.1-.005-.09-.009-.081-.013-.073-.016-.063-.02-.052-.021-.043-.023-.034-.024-.027-.024-.022-.026-.017-.03-.016-.046-.006-.028,0-.038.015-.073.029-.093.042-.108.055-.122.066-.134.076-.145.085-.154.093-.163.1-.17.107-.179.112-.184.115-.189.18-.292.245-.4.246-.4.237-.4.168-.3.105-.2.1-.192.093-.189.086-.185.076-.179.067-.173.057-.17.045-.163.03-.153.009-.064v0l.007-.066.017-.131.034-.192.058-.25.072-.241.083-.235.093-.229.1-.226.111-.224.178-.337.25-.457.188-.355.122-.245.118-.255.111-.262.051-.13v0l.022-.058.03-.1.02-.1.01-.094,0-.093-.015-.092-.03-.085-.042-.077-.051-.065-.062-.057-.083-.057-.092-.047-.075-.03-.052-.02-.031-.012-.01,0,0,.009,0,.011v.01l0,0,0-.009,0-.021,0-.036.01-.049.02-.062.029-.075.04-.09.026-.051.012-.022.024-.039.032-.051.038-.06.045-.068.05-.076.054-.084.058-.089.062-.1.1-.153.137-.215.14-.225.139-.229.133-.228.121-.223.082-.158.049-.1.045-.1.039-.1.032-.094.027-.093.017-.094,0-.1-.023-.12-.055-.1-.01-.014a.288.288,0,0,0-.045-.043l-.1-.054-.132-.022-.1.016-.08.03-.069.037-.066.043-.066.049-.067.056-.069.061-.071.067-.109.109-.149.156-.119.131.051-.087.024-.047,0-.005.112-.226.217-.45.208-.452.2-.454.194-.455.186-.457.177-.459.171-.462.164-.464.159-.466.151-.469.146-.472.14-.476.029-.1,0,.076.005.673,0,.681-.013.689-.022.694-.029.7-.054,1.054-.09,1.409-.1,1.407-.074,1.049-.048.694L416.4,205l-.041.682-.036.675-.03.668-.021.658-.012.647,0,.637.007.625.02.612.025.45.021.3.024.292.028.288.032.283.037.28.041.276.045.271.049.267.055.262.06.257.065.253.071.247.076.243.041.122a.465.465,0,0,0,.59.281.454.454,0,0,0,.284-.581l-.039-.1-.076-.218-.073-.224-.069-.23-.065-.237-.061-.243-.058-.249-.054-.254-.05-.26-.047-.266-.043-.269-.039-.276-.036-.28-.033-.283-.045-.434-.049-.6-.039-.612-.027-.626-.019-.64-.01-.65,0-.663,0-.673.011-.68.017-.688.023-.693.041-1.049.063-1.41.071-1.412.053-1.056.034-.7.031-.7.028-.692.023-.685.019-.679,0-.182.009.019.076.154.079.16.082.165.086.17.135.262.188.362.2.374.205.386.209.393.317.6.413.805.3.6.193.386.186.374.177.36.126.257.08.166.078.16.074.155.07.148.066.142.063.135.057.128.054.121.047.113.044.1.037.095.03.085.023.064h-.029l-.05-.005-.064-.011-.127-.021-.152-.023-.127,0-.133.018-.138.053-.1.062-.063.054-.056.057-.055.058-.055.066-.056.069-.056.078-.057.086-.03.047h0l-.033.053-.056.108-.047.106-.037.1-.025.1-.015.1-.005.1,0,.095.013.092.02.09.029.087.034.086.061.121.1.157.109.15.116.145.174.208.159.2.087.129.067.124.033.087.013.053,0,.024v-.006l0,.029.005.047v.067l0,.021-.005.014-.007.01-.005-.008.011-.022.007-.011-.012-.006-.052-.013-.093-.027-.084-.017-.07-.006-.078.01-.09.04-.056.051a.131.131,0,0,0-.019.027l-.007.012-.025.062-.012.07,0,.068,0,.066.009.068.012.072.016.074.029.116.049.165.058.174.063.179.1.268.107.26.068.161.066.144.044.1.026.058.024.051.021.046.017.039.014.03.005.011,0,0,.02.046.027.072.016.056.007.043,0,.029,0,.017,0,.007h0l0,0-.018.023-.039.049-.05.084-.074.063-.08.06-.056.055-.033.044-.027.047-.02.054-.012.06,0,.067.005.072.013.08.023.089.033.1.044.11.052.122.031.066h0l.062.128.126.256.193.383.256.515.248.521.238.528.238.523.285.487.29.316.25.183.129.091a.1.1,0,0,0,.14.045.1.1,0,0,0,.045-.137" transform="translate(-47.278 -2.299)" fill="#0971b9"/><path d="M560.226,225.087l-.026-.052-.042-.055-.054-.059-.068-.062-.079-.067-.09-.071-.1-.075-.108-.078-.116-.082-.122-.084-.128-.086-.133-.088-.206-.135-.279-.184-.277-.185-.268-.183-.189-.134-.117-.087-.11-.084-.1-.082-.091-.078-.079-.075-.068-.068-.054-.064-.039-.058-.026-.054-.009-.029v0l-.01-.036-.025-.07-.046-.1-.077-.129-.094-.123-.108-.119-.121-.114-.129-.111-.138-.109-.214-.158-.291-.208-.215-.157-.139-.105-.131-.109-.126-.112-.061-.059,0,0-.013-.014-.023-.026-.013-.019-.006-.015,0-.006,0,0-.006,0-.008,0-.008,0h-.01l.01,0,.055-.011.089-.015.116-.019.128-.027.1-.029.065-.028.054-.033.041-.037.024-.039.008-.039-.005-.039-.017-.04-.026-.042-.037-.044-.048-.046-.058-.048-.032-.024,0,0-.014-.009-.026-.017-.033-.021-.042-.024-.047-.028-.054-.032-.06-.035-.065-.038-.07-.04-.073-.043-.116-.068-.162-.1-.164-.1-.161-.1-.153-.1-.1-.072.163.067.18.076.178.076.172.075.122.052.078.032.074.032.071.029.067.027.064.023.061.022.065.02.083.02.114.015h.011a.55.55,0,0,0,.059,0l.062,0,.106-.007.108-.018.1-.029.073-.038.039-.04.013-.037,0-.033-.014-.03-.022-.03-.044-.042-.069-.052-.083-.055-.094-.056-.1-.056-.157-.085-.152-.082-.092-.051-.079-.046-.065-.041-.028-.02-.131-.1-.258-.2-.248-.2-.24-.2-.23-.2-.221-.206-.212-.206-.206-.208-.2-.209-.188-.21-.182-.212-.174-.213-.169-.214-.161-.216-.156-.217-.149-.22-.025-.038v-.015l0-.01a.1.1,0,0,0-.056-.059.46.46,0,0,0-.322-.065.313.313,0,0,0-.193.066c-.04.021-.06.048-.055.075l0,.01,0,.011-.008.017-.016.024-.022.031-.031.036-.038.042-.045.046-.052.049-.059.053-.064.057-.07.061-.075.063-.08.067-.086.07-.09.073-.094.074-.1.078-.155.118-.218.166-.229.17-.239.175-.249.179-.382.272-.527.36-.394.265-.254.172-.243.168-.232.161-.164.117-.1.075-.1.074-.1.071-.09.069-.085.066-.079.064-.074.061-.067.058-.062.055-.055.051-.05.049-.042.046-.035.043-.028.04-.022.039-.014.037,0,.038.014.046.058.058.1.046.049.014.033.007.089.018.138.021.187.016.188,0,.172-.008.15-.013.183-.026.153-.021.075-.011.069-.008.068-.008.058,0h.047l.056.005.061.01.063.016.064.021.069.026.07.032.035.018.04.021.07.043.053.04.038.04.025.039.015.037,0,.036-.006.035-.015.035-.022.034-.032.033-.038.033-.069.049-.112.063-.128.061-.139.06-.217.089-.208.088-.127.062-.107.063-.066.051-.035.037-.014.021,0,0-.008.012-.014.025-.007.025,0,.023v.022l.007.022.022.027.057.035.1.028.106.012.1,0,.12-.005.136-.01,0,.009-.012.02-.016.024-.021.027-.04.046-.066.067-.078.072-.087.075-.138.117-.139.113-.087.07-.079.065-.053.043-.033.026-.03.024-.026.021-.022.019-.018.015-.007.007,0,0-.022.021-.039.043-.029.043-.018.04,0,.039.011.038.025.037.043.034.056.03.066.023.1.022.139.013.141-.007.111,0,.089.013.053.013.029.01.023.014.019.015.013.019.007.023v.027l-.013.032L548,223l-.037.042-.05.047-.066.053-.039.028h0l-.081.057-.171.112-.278.163-.406.209-.441.2-.461.2-.454.2-.373.222-.164.2-.026.146,0,.075c-.031.023-.007.051.055.063a.252.252,0,0,0,.166-.021l.153-.042.3-.083.345-.144.338-.223.283-.239.283-.241.295-.238.3-.235.229-.175.151-.117.074-.059h0l.037-.03.062-.056.051-.049.039-.046.028-.04.016-.037.006-.033,0-.031-.014-.028-.025-.024-.033-.022-.039-.02-.067-.025-.094-.027-.088-.029-.059-.037-.047-.023-.02-.011h-.008l0,0,0-.008,0-.013.009-.019.019-.025.033-.033.023-.021,0,0,.007-.006.016-.013.02-.018.025-.021.028-.023.032-.026.053-.045.077-.066.082-.074.127-.118.123-.122.076-.082.068-.08.058-.075.035-.052.019-.034.015-.032.01-.031,0-.031,0-.03-.016-.032-.03-.029-.009-.006-.022-.012-.067-.023-.107-.018-.094-.005-.082,0-.1.008-.112.012-.063.006-.015,0,.007.006.013.009-.006,0-.01-.005,0-.006,0-.01,0-.014,0-.017.005-.021,0-.012,0,0,.005-.01.015-.024.039-.04.079-.057.1-.059.189-.092.207-.095.138-.066.131-.068.115-.072.073-.056.041-.039.033-.039.025-.042.016-.042,0-.043-.006-.045-.018-.045-.03-.046-.044-.047-.056-.048-.067-.049-.038-.024h0l-.036-.022-.067-.039-.066-.035-.067-.032-.064-.03-.066-.027-.067-.026-.075-.025-.121-.028-.164-.024-.16-.008h-.15l-.18.011-.15.01-.076.006-.059,0h-.034l.027-.029.036-.039.044-.043.051-.048.057-.051.064-.055.068-.06.074-.061.08-.064.083-.069.088-.07.092-.074.1-.075.15-.118.21-.164.221-.171.228-.176.354-.272.49-.368.377-.274.248-.18.244-.176.236-.171.225-.165.16-.12.1-.077.1-.075.094-.074.089-.071.01-.008,0,.084.023.309.027.313.033.316.037.318.04.32.064.483.083.645.077.645.049.479.026.317.02.315.014.311.005.307,0,.3-.011.3-.022.292-.033.286-.046.28-.059.272-.053.2-.038.129-.043.128-.047.126-.051.124-.056.121-.06.118-.064.116-.069.114-.072.111-.077.108-.082.105-.086.1-.092.1-.047.047c-.1.109.051.228.338.266a.96.96,0,0,0,.7-.128l.049-.056.09-.111.083-.113.078-.115.072-.118.065-.12.059-.121.054-.124.049-.126.043-.128.038-.129.034-.131.03-.134.025-.135.029-.206.024-.28.01-.286,0-.291-.015-.3-.025-.3-.035-.3-.043-.309-.049-.312-.054-.315-.056-.317-.089-.48-.118-.643-.106-.645-.065-.481-.035-.319-.026-.317-.016-.315-.006-.311.006-.308,0-.035.034.046.166.218.173.216.18.214.188.214.2.212.2.211.212.21.221.209.229.208.238.208.249.207.258.206.133.1,0,0,.029.021.06.04-.142-.06-.177-.071-.13-.05-.085-.03-.081-.029-.08-.025-.078-.023-.079-.019-.083-.017-.1-.013-.12-.008-.159.01-.115.025a.37.37,0,0,0-.053.02l-.013.006-.066.048-.027.054.006.047.02.044.032.042.039.043.046.044.052.046.059.047.1.072.145.1.158.1.165.1.167.1.163.1.117.069.074.045.069.041.065.038.059.034.053.032.046.028.038.022.028.018.015.01.031.024.048.04.035.034.022.029.013.022,0,.016v.011l0,0h0v0l0,0,0,0-.011,0-.036.006-.061.008-.089.015-.111.021-.1.026-.072.026-.061.03-.051.035-.034.039-.018.042,0,.042.012.044.024.044.036.046.024.025,0,0,.061.06.132.119.141.117.146.112.223.162.3.209.212.155.131.1.122.1.112.1.1.107.086.111.069.113.04.089.021.06.009.03v0l.01.029.036.07.053.075.068.077.079.079.091.083.1.084.112.086.119.088.126.09.2.136.281.185.292.185.292.183.214.133.137.086.133.085.127.081.119.078.111.075.1.071.09.066.078.061.065.056.05.049.034.043.019.033v.018l-.007.013-.018.02-.021.013-.026.013-.032.011-.04.01-.051.011-.063.009-.074.009-.086.008-.1.005-.108,0-.117,0h-.26l-.143,0-.148,0-.155-.008-.245-.013-.344-.022-.36-.028-.374-.033-.376-.049-.372-.064-.365-.079-.179-.043a.71.71,0,0,0-.529.1c-.071.084.051.174.273.2l.217.006.427.014.413.022.4.032.38.039.37.034.355.029.256.018.166.009.161.008.157,0,.15,0,.146,0h.141l.136,0,.13-.006.125-.01.12-.013.114-.017.107-.022.1-.028.086-.033.072-.037.055-.042.036-.042.009-.017a.033.033,0,0,0,0-.009l.006-.031Z" transform="translate(-112.136 -13.084)" fill="#0971b9"/><g transform="translate(367.335 281.807)"><path d="M418.8,370.048h1.519v6.9H418.8Zm.02-1.795H420.3v1.252h-1.479Z" transform="translate(-418.797 -368.253)" fill="#0971b9"/><path d="M426.362,379.685l.789-1.163a3.464,3.464,0,0,1-2.691-3.451v-.02a3.508,3.508,0,0,1,3.6-3.569,3.561,3.561,0,0,1,2.721,1.065l-.966,1.114a2.545,2.545,0,0,0-1.765-.779,2.045,2.045,0,0,0-2,2.149v.02a2.05,2.05,0,0,0,2,2.169,2.492,2.492,0,0,0,1.814-.809l.966.976a3.494,3.494,0,0,1-2.573,1.222l-.641,1.6Z" transform="translate(-421.521 -369.806)" fill="#0971b9"/><path d="M439.07,371.711h5.206v1.35h-3.7v1.4h3.254v1.351h-3.254v1.45h3.746v1.35H439.07Z" transform="translate(-428.549 -369.916)" fill="#0971b9"/><path d="M451.211,375.071v-.02a3.508,3.508,0,0,1,3.6-3.569,3.561,3.561,0,0,1,2.721,1.065l-.966,1.114a2.546,2.546,0,0,0-1.765-.779,2.045,2.045,0,0,0-2,2.149v.02a2.05,2.05,0,0,0,2,2.169,2.491,2.491,0,0,0,1.814-.809l.966.976a3.527,3.527,0,0,1-2.83,1.232A3.484,3.484,0,0,1,451.211,375.071Z" transform="translate(-434.389 -369.806)" fill="#0971b9"/><path d="M465.822,371.711h5.206v1.35h-3.7v1.4h3.254v1.351h-3.254v1.45h3.746v1.35h-5.255Z" transform="translate(-441.417 -369.916)" fill="#0971b9"/><path d="M478.552,371.711h1.519v3.016l2.8-3.016H484.7l-2.81,2.928,2.938,3.973h-1.824l-2.14-2.938-.8.828v2.11h-1.519Z" transform="translate(-447.54 -369.916)" fill="#0971b9"/><path d="M497.532,375.071v-.02a3.543,3.543,0,0,1,3.618-3.569,3.793,3.793,0,0,1,2.712.947l-.956,1.154a2.542,2.542,0,0,0-1.8-.7,2.073,2.073,0,0,0-1.982,2.149v.02a2.068,2.068,0,0,0,2.09,2.189,2.423,2.423,0,0,0,1.43-.414v-.986h-1.528v-1.312h3v3a4.477,4.477,0,0,1-2.948,1.094A3.454,3.454,0,0,1,497.532,375.071Z" transform="translate(-456.669 -369.806)" fill="#0971b9"/><path d="M513.018,371.711h3.155a2.751,2.751,0,0,1,2.012.7,2.168,2.168,0,0,1,.591,1.577v.02a2.143,2.143,0,0,1-1.479,2.14l1.686,2.465h-1.774l-1.479-2.208h-1.193v2.208h-1.518Zm3.056,3.352c.74,0,1.163-.394,1.163-.976v-.02c0-.651-.454-.986-1.193-.986h-1.509v1.982Z" transform="translate(-464.118 -369.916)" fill="#0971b9"/><path d="M526.545,375.654v-3.943h1.519v3.9c0,1.124.562,1.706,1.488,1.706s1.489-.562,1.489-1.656v-3.954h1.518V375.6a2.778,2.778,0,0,1-3.027,3.116A2.739,2.739,0,0,1,526.545,375.654Z" transform="translate(-470.625 -369.916)" fill="#0971b9"/><path d="M541.118,371.711h3.2a2.494,2.494,0,0,1,1.8.611,1.583,1.583,0,0,1,.473,1.173v.02a1.6,1.6,0,0,1-.907,1.488,1.687,1.687,0,0,1,1.292,1.7v.02c0,1.262-1.026,1.893-2.583,1.893h-3.283ZM544,374.5c.671,0,1.095-.217,1.095-.73v-.02c0-.454-.355-.71-1-.71h-1.5V374.5Zm.4,2.78c.671,0,1.075-.237,1.075-.749v-.02c0-.463-.345-.749-1.124-.749H542.6v1.519Z" transform="translate(-477.635 -369.916)" fill="#0971b9"/><path d="M554.627,375.654v-3.943h1.519v3.9c0,1.124.562,1.706,1.488,1.706s1.489-.562,1.489-1.656v-3.954h1.518V375.6a2.778,2.778,0,0,1-3.027,3.116A2.739,2.739,0,0,1,554.627,375.654Z" transform="translate(-484.133 -369.916)" fill="#0971b9"/></g></g></svg>