<svg width="512" height="512" viewBox="0 0 512 512" fill="none" xmlns="http://www.w3.org/2000/svg">
    <path d="M488 392H24V440H488V392Z" fill="#ECAB2C"></path>
    <path d="M328 296H184V392H328V296Z" fill="#529FFF"></path>
    <path d="M328 376H184V392H328V376Z" fill="#0A71CD"></path>
    <path d="M328 200H184V296H328V200Z" fill="#ECAB2C"></path>
    <path d="M184 296H40V392H184V296Z" fill="#D78E0C"></path>
    <path d="M184 376H40V392H184V376Z" fill="#B97A0A"></path>
    <path d="M184 296H40V248L104 200H184V296Z" fill="#E42A3C"></path>
    <path d="M480 296H328V392H480V296Z" fill="#57A865"></path>
    <path d="M480 376H328V392H480V376Z" fill="#4E965A"></path>
    <path d="M134 176H154C155.591 176 157.117 176.632 158.243 177.757C159.368 178.883 160 180.409 160 182V200H128V182C128 180.409 128.632 178.883 129.757 177.757C130.883 176.632 132.409 176 134 176V176Z" fill="#C92535"></path>
    <path d="M278 176H298C299.591 176 301.117 176.632 302.243 177.757C303.368 178.883 304 180.409 304 182V200H272V182C272 180.409 272.632 178.883 273.757 177.757C274.883 176.632 276.409 176 278 176Z" fill="#D78E0C"></path>
    <path d="M214 176H234C235.591 176 237.117 176.632 238.243 177.757C239.368 178.883 240 180.409 240 182V200H208V182C208 180.409 208.632 178.883 209.757 177.757C210.883 176.632 212.409 176 214 176V176Z" fill="#D78E0C"></path>
    <path d="M430 272H450C451.591 272 453.117 272.632 454.243 273.757C455.368 274.883 456 276.409 456 278V296H424V278C424 276.409 424.632 274.883 425.757 273.757C426.883 272.632 428.409 272 430 272V272Z" fill="#4E965A"></path>
    <path d="M366 272H386C387.591 272 389.117 272.632 390.243 273.757C391.368 274.883 392 276.409 392 278V296H360V278C360 276.409 360.632 274.883 361.757 273.757C362.883 272.632 364.409 272 366 272Z" fill="#4E965A"></path>
    <path d="M488 392H344V440H488V392Z" fill="#E42A3C"></path>
    <path d="M168 392H24V440H168V392Z" fill="#57A865"></path>
    <path d="M481.044 193.897L311.819 72.9546L256 151.058L425.224 272.001L481.044 193.897Z" fill="#FF8AA0"></path>
    <path d="M402.251 108.084L418.522 119.714C419.817 120.639 420.691 122.04 420.952 123.61C421.213 125.18 420.84 126.789 419.915 128.084L409.449 142.728L383.414 124.122L393.88 109.477C394.806 108.183 396.207 107.308 397.777 107.047C399.347 106.786 400.956 107.159 402.251 108.084V108.084Z" fill="#E57C90"></path>
    <path d="M454.319 145.298L470.591 156.927C471.885 157.852 472.759 159.254 473.02 160.824C473.282 162.393 472.909 164.002 471.983 165.297L461.517 179.942L435.483 161.335L445.949 146.691C446.874 145.396 448.276 144.522 449.845 144.261C451.415 143.999 453.024 144.373 454.319 145.298V145.298Z" fill="#E57C90"></path>
    <path d="M350.181 70.872L366.453 82.5012C367.747 83.4264 368.622 84.8281 368.883 86.3978C369.144 87.9675 368.771 89.5767 367.846 90.8714L357.379 105.516L331.345 86.9092L341.811 72.2648C342.736 70.9701 344.138 70.0961 345.708 69.8349C347.277 69.5737 348.887 69.9468 350.181 70.872Z" fill="#E57C90"></path>
    <path d="M88 336H72C69.8783 336 67.8434 335.157 66.3431 333.657C64.8429 332.157 64 330.122 64 328C64 325.878 64.8429 323.843 66.3431 322.343C67.8434 320.843 69.8783 320 72 320H88C90.1217 320 92.1566 320.843 93.6569 322.343C95.1571 323.843 96 325.878 96 328C96 330.122 95.1571 332.157 93.6569 333.657C92.1566 335.157 90.1217 336 88 336Z" fill="#ECAB2C"></path>
    <path d="M152 336H120C117.878 336 115.843 335.157 114.343 333.657C112.843 332.157 112 330.122 112 328C112 325.878 112.843 323.843 114.343 322.343C115.843 320.843 117.878 320 120 320H152C154.122 320 156.157 320.843 157.657 322.343C159.157 323.843 160 325.878 160 328C160 330.122 159.157 332.157 157.657 333.657C156.157 335.157 154.122 336 152 336Z" fill="#ECAB2C"></path>
    </svg>